<svg width="102" height="30" viewBox="0 0 102 30" fill="none" xmlns="http://www.w3.org/2000/svg">
<path d="M9.80482 14.4617L0.0895996 25.0059C0.0905121 25.0078 0.090512 25.0106 0.0914244 25.0125C0.389807 26.1574 1.41179 27 2.62539 27C3.11083 27 3.56616 26.8656 3.95671 26.6305L3.98773 26.6118L14.9229 20.1593L9.80482 14.4617Z" fill="#EA4335"/>
<path d="M19.6331 12.6662L19.624 12.6597L14.9028 9.86123L9.58391 14.7013L14.9219 20.1582L19.6176 17.3878C20.4406 16.9324 21 16.045 21 15.0223C21 14.0052 20.4489 13.1225 19.6331 12.6662Z" fill="#FBBC04"/>
<path d="M0.0894234 4.99332C0.0310244 5.21353 0 5.44495 0 5.68383V24.3164C0 24.5552 0.0310245 24.7866 0.0903359 25.0059L10.1386 14.7314L0.0894234 4.99332Z" fill="#4285F4"/>
<path d="M9.87657 14.9999L14.9044 9.85936L3.98192 3.38351C3.58499 3.13997 3.12145 3 2.62597 3C1.41237 3 0.388558 3.84448 0.0901759 4.99035C0.0901759 4.99128 0.0892639 4.99221 0.0892639 4.99315L9.87657 14.9999Z" fill="#34A853"/>
<path d="M35.61 6.71C35.61 7.71 35.3133 8.50667 34.72 9.1C34.0533 9.80667 33.1767 10.16 32.09 10.16C31.05 10.16 30.17 9.8 29.45 9.08C28.73 8.36 28.37 7.47333 28.37 6.42C28.37 5.36667 28.73 4.48 29.45 3.76C30.17 3.04 31.05 2.68 32.09 2.68C32.6167 2.68 33.1133 2.77333 33.58 2.96C34.0467 3.14667 34.43 3.41 34.73 3.75L34.07 4.41C33.85 4.14333 33.5633 3.93667 33.21 3.79C32.8633 3.63667 32.49 3.56 32.09 3.56C31.31 3.56 30.65 3.83 30.11 4.37C29.5767 4.91667 29.31 5.6 29.31 6.42C29.31 7.24 29.5767 7.92333 30.11 8.47C30.65 9.01 31.31 9.28 32.09 9.28C32.8033 9.28 33.3967 9.08 33.87 8.68C34.3433 8.28 34.6167 7.73 34.69 7.03H32.09V6.17H35.56C35.5933 6.35667 35.61 6.53667 35.61 6.71ZM40.9078 2.84V3.72H37.6478V5.99H40.5878V6.85H37.6478V9.12H40.9078V10H36.7278V2.84H40.9078ZM44.5877 3.72V10H43.6677V3.72H41.6677V2.84H46.5877V3.72H44.5877ZM50.6654 10H49.7454V2.84H50.6654V10ZM54.5487 3.72V10H53.6287V3.72H51.6287V2.84H56.5487V3.72H54.5487ZM66.521 6.42C66.521 7.48 66.1677 8.36667 65.461 9.08C64.7477 9.8 63.8743 10.16 62.841 10.16C61.801 10.16 60.9277 9.8 60.221 9.08C59.5143 8.36667 59.161 7.48 59.161 6.42C59.161 5.36 59.5143 4.47333 60.221 3.76C60.9277 3.04 61.801 2.68 62.841 2.68C63.881 2.68 64.7543 3.04333 65.461 3.77C66.1677 4.48333 66.521 5.36667 66.521 6.42ZM60.101 6.42C60.101 7.24667 60.361 7.93 60.881 8.47C61.4077 9.01 62.061 9.28 62.841 9.28C63.621 9.28 64.271 9.01 64.791 8.47C65.3177 7.93667 65.581 7.25333 65.581 6.42C65.581 5.58667 65.3177 4.90333 64.791 4.37C64.271 3.83 63.621 3.56 62.841 3.56C62.061 3.56 61.4077 3.83 60.881 4.37C60.361 4.91 60.101 5.59333 60.101 6.42ZM68.5267 10H67.6067V2.84H68.7267L72.2067 8.41H72.2467L72.2067 7.03V2.84H73.1267V10H72.1667L68.5267 4.16H68.4867L68.5267 5.54V10Z" fill="black"/>
<path d="M85.5181 26.4097H87.1469V15.3981H85.5181V26.4097ZM100.189 19.3646L98.3217 24.1388H98.2658L96.328 19.3646H94.5735L97.4793 26.0371L95.8235 29.749H97.5212L102 19.3646H100.189ZM90.9519 25.1588C90.4176 25.1588 89.6739 24.8902 89.6739 24.2234C89.6739 23.3742 90.6001 23.0483 91.4005 23.0483C92.1163 23.0483 92.4541 23.2042 92.8888 23.4165C92.7622 24.4365 91.892 25.1588 90.9519 25.1588ZM91.1483 19.1241C89.969 19.1241 88.7469 19.6482 88.2424 20.8101L89.6879 21.4188C89.9969 20.8101 90.5721 20.611 91.1762 20.611C92.0185 20.611 92.8748 21.121 92.8888 22.0283V22.1411C92.5938 21.971 91.9627 21.7165 91.1902 21.7165C89.632 21.7165 88.0451 22.5806 88.0451 24.1952C88.0451 25.6689 89.323 26.6184 90.7546 26.6184C91.8501 26.6184 92.4541 26.1225 92.8329 25.5411H92.8888V26.3912H94.4609V22.1692C94.4609 20.2146 93.0154 19.1241 91.1483 19.1241M81.0821 20.7053H78.7655V16.9308H81.0821C82.2998 16.9308 82.9911 17.9482 82.9911 18.8176C82.9911 19.6711 82.2998 20.7053 81.0821 20.7053ZM81.0402 15.3981H77.1375V26.4097H78.7655V22.2379H81.0402C82.8453 22.2379 84.6199 20.9184 84.6199 18.8176C84.6199 16.7168 82.8453 15.3981 81.0402 15.3981M59.7583 25.1606C58.6332 25.1606 57.6913 24.2102 57.6913 22.9047C57.6913 21.5852 58.6332 20.6198 59.7583 20.6198C60.8695 20.6198 61.7406 21.5852 61.7406 22.9047C61.7406 24.2102 60.8695 25.1606 59.7583 25.1606ZM61.6289 19.9812H61.5722C61.2064 19.5417 60.5038 19.1444 59.6178 19.1444C57.7611 19.1444 56.0599 20.7898 56.0599 22.9047C56.0599 25.0047 57.7611 26.6369 59.6178 26.6369C60.5038 26.6369 61.2064 26.2396 61.5722 25.7851H61.6289V26.3251C61.6289 27.7582 60.8695 28.5246 59.6457 28.5246C58.6471 28.5246 58.0282 27.8005 57.7751 27.1901L56.3549 27.7864C56.7626 28.78 57.8458 30 59.6457 30C61.5582 30 63.1757 28.8646 63.1757 26.0978V19.3708H61.6289V19.9812ZM64.3008 26.4097H65.9322V15.3973H64.3008V26.4097ZM68.3362 22.777C68.2943 21.3298 69.4474 20.5916 70.2766 20.5916C70.9243 20.5916 71.4725 20.9176 71.6549 21.3862L68.3362 22.777ZM73.3989 21.528C73.0899 20.6912 72.1472 19.1444 70.2208 19.1444C68.3083 19.1444 66.7196 20.6621 66.7196 22.8907C66.7196 24.9906 68.2943 26.6369 70.4032 26.6369C72.1053 26.6369 73.0899 25.5869 73.4976 24.9765L72.2319 24.1247C71.8103 24.7493 71.2333 25.1606 70.4032 25.1606C69.5739 25.1606 68.983 24.7774 68.6033 24.0261L73.5674 21.9534L73.3989 21.528ZM33.8501 20.2939V21.883H37.6184C37.5058 22.777 37.2107 23.4297 36.7612 23.8834C36.2121 24.4374 35.3541 25.0479 33.8501 25.0479C31.5291 25.0479 29.7152 23.1602 29.7152 20.8189C29.7152 18.4767 31.5291 16.5899 33.8501 16.5899C35.1018 16.5899 36.0157 17.0867 36.6905 17.7254L37.8017 16.604C36.8589 15.6959 35.6081 15 33.8501 15C30.6719 15 28 17.6117 28 20.8189C28 24.0261 30.6719 26.6369 33.8501 26.6369C35.5653 26.6369 36.8589 26.0688 37.8715 25.0047C38.9129 23.9547 39.2358 22.4793 39.2358 21.2866C39.2358 20.9176 39.2079 20.5775 39.1512 20.2939H33.8501ZM43.5208 25.1606C42.3957 25.1606 41.425 24.2243 41.425 22.8907C41.425 21.5421 42.3957 20.6198 43.5208 20.6198C44.6451 20.6198 45.6158 21.5421 45.6158 22.8907C45.6158 24.2243 44.6451 25.1606 43.5208 25.1606ZM43.5208 19.1444C41.4669 19.1444 39.7936 20.7194 39.7936 22.8907C39.7936 25.0479 41.4669 26.6369 43.5208 26.6369C45.5739 26.6369 47.2472 25.0479 47.2472 22.8907C47.2472 20.7194 45.5739 19.1444 43.5208 19.1444ZM51.65 25.1606C50.5249 25.1606 49.5542 24.2243 49.5542 22.8907C49.5542 21.5421 50.5249 20.6198 51.65 20.6198C52.7752 20.6198 53.745 21.5421 53.745 22.8907C53.745 24.2243 52.7752 25.1606 51.65 25.1606ZM51.65 19.1444C49.597 19.1444 47.9237 20.7194 47.9237 22.8907C47.9237 25.0479 49.597 26.6369 51.65 26.6369C53.7031 26.6369 55.3764 25.0479 55.3764 22.8907C55.3764 20.7194 53.7031 19.1444 51.65 19.1444Z" fill="black"/>
</svg>
