<svg width="3549" height="2303" viewBox="0 0 3549 2303" fill="none" xmlns="http://www.w3.org/2000/svg">
<rect x="16" y="16" width="3517" height="2271" rx="112" stroke="black" stroke-width="32"/>
<path d="M302.016 571.258V361.052H384.296C398.51 361.052 410.622 363.455 420.632 368.259C430.842 372.864 438.649 379.57 444.055 388.379C449.66 396.987 452.463 407.297 452.463 419.309C452.463 433.523 448.959 445.134 441.953 454.143C434.946 463.152 425.637 469.859 414.025 474.263C402.414 478.667 389.501 480.869 375.287 480.869H333.246V571.258H302.016ZM421.232 571.258L417.028 520.208C416.428 510.799 413.325 503.191 407.719 497.386C402.114 491.38 394.806 488.377 385.798 488.377H327.841V463.452H390.302C401.513 463.452 411.222 465.755 419.431 470.359C427.839 474.964 434.545 481.37 439.55 489.578C444.555 497.586 447.358 506.895 447.958 517.505L452.163 571.258H421.232ZM333.246 460.75H383.395C392.604 460.75 399.911 459.048 405.317 455.645C410.922 452.041 414.926 447.437 417.328 441.831C419.931 436.226 421.232 430.32 421.232 424.114C421.232 417.708 419.931 411.802 417.328 406.397C414.926 400.991 410.922 396.587 405.317 393.184C399.911 389.78 392.604 388.079 383.395 388.079H333.246V460.75ZM549.674 573.66C533.057 573.66 518.843 570.757 507.032 564.952C495.22 558.946 486.111 550.538 479.705 539.727C473.299 528.916 469.695 516.204 468.895 501.59H499.224C500.425 515.203 505.13 526.014 513.338 534.021C521.546 542.029 533.658 546.033 549.674 546.033C558.482 546.033 566.29 544.932 573.096 542.73C579.903 540.328 585.208 536.724 589.012 531.919C592.816 526.914 594.718 520.608 594.718 513.001C594.718 505.393 592.515 499.388 588.111 494.983C583.907 490.579 578.201 487.075 570.994 484.473C563.988 481.87 556.18 479.568 547.571 477.566C539.163 475.564 530.655 473.262 522.047 470.659C513.638 468.057 505.831 464.654 498.624 460.449C491.617 456.245 485.911 450.64 481.507 443.633C477.303 436.426 475.201 427.217 475.201 416.006C475.201 404.395 478.304 394.385 484.51 385.977C490.716 377.368 499.224 370.662 510.035 365.857C520.845 361.052 533.257 358.65 547.271 358.65C561.685 358.65 574.298 361.252 585.108 366.457C596.119 371.663 604.827 378.97 611.234 388.379C617.84 397.788 621.544 408.999 622.345 422.012H592.015C591.014 411.201 586.51 402.593 578.502 396.187C570.694 389.58 560.284 386.277 547.271 386.277C538.863 386.277 531.556 387.478 525.35 389.88C519.344 392.283 514.739 395.686 511.536 400.09C508.333 404.495 506.732 409.7 506.732 415.706C506.732 423.313 508.834 429.319 513.038 433.723C517.442 437.927 523.148 441.331 530.154 443.933C537.361 446.336 545.269 448.438 553.878 450.239C562.486 452.041 570.994 454.243 579.403 456.846C588.011 459.248 595.819 462.551 602.826 466.756C610.033 470.96 615.738 476.765 619.942 484.173C624.347 491.38 626.549 500.889 626.549 512.701C626.549 525.513 623.245 536.524 616.639 545.733C610.233 554.742 601.224 561.648 589.613 566.453C578.001 571.258 564.688 573.66 549.674 573.66Z" fill="black"/>
<path d="M3234.95 572.294H3270.22C3270.22 527.525 3246.33 488.335 3210.6 466.776C3246.33 445.217 3270.22 406.027 3270.22 361.258H3234.95C3234.95 403.622 3204.6 439.062 3164.7 447.372V361.258H3129.43V447.372C3089.35 439.207 3059.18 403.755 3059.18 361.258H3023.91C3023.91 406.027 3047.8 445.217 3083.53 466.776C3047.8 488.335 3023.91 527.525 3023.91 572.294H3059.18C3059.18 529.797 3089.35 494.345 3129.43 486.18V572.333H3164.7V486.18C3204.78 494.344 3234.95 529.797 3234.95 572.294Z" fill="black"/>
<path d="M309.155 1976.34V1703.66H410.045C426.925 1703.66 441.597 1706.39 454.062 1711.84C466.787 1717.29 476.655 1724.96 483.667 1734.82C490.679 1744.69 494.184 1756.51 494.184 1770.27C494.184 1784.81 490.679 1796.76 483.667 1806.11C476.915 1815.46 468.735 1822.47 459.126 1827.14C472.89 1832.08 484.186 1840.26 493.016 1851.68C502.105 1862.85 506.649 1877.91 506.649 1896.87C506.649 1913.23 502.884 1927.38 495.353 1939.33C488.082 1951.02 477.564 1960.11 463.801 1966.6C450.297 1973.09 434.066 1976.34 415.109 1976.34H309.155ZM349.277 1940.5H409.655C428.613 1940.5 442.895 1936.6 452.504 1928.81C462.113 1921.02 466.917 1909.73 466.917 1894.92C466.917 1880.12 462.113 1868.82 452.504 1861.03C442.895 1853.24 428.613 1849.35 409.655 1849.35H349.277V1940.5ZM349.277 1813.9H408.097C423.419 1813.9 434.975 1810.78 442.766 1804.55C450.816 1798.06 454.841 1788.45 454.841 1775.73C454.841 1763.26 450.816 1753.78 442.766 1747.29C434.975 1740.8 423.289 1737.55 407.707 1737.55H349.277V1813.9ZM619.587 1979.45C604.525 1979.45 590.892 1976.73 578.686 1971.27C566.481 1965.82 556.093 1958.29 547.523 1948.68C539.213 1939.07 532.721 1928.16 528.047 1915.96C523.632 1903.49 521.424 1890.51 521.424 1877C521.424 1863.24 523.502 1850.39 527.657 1838.44C531.812 1826.23 537.915 1815.59 545.965 1806.5C554.275 1797.15 564.273 1789.88 575.959 1784.68C587.645 1779.49 601.019 1776.89 616.082 1776.89C631.144 1776.89 644.388 1779.36 655.814 1784.29C667.5 1789.23 677.239 1796.11 685.029 1804.94C692.82 1813.51 698.663 1823.38 702.558 1834.55C706.713 1845.71 708.791 1857.53 708.791 1869.99C708.791 1872.59 708.661 1875.32 708.401 1878.17C708.401 1881.03 708.272 1883.37 708.012 1885.18H543.238V1855.97H670.616C669.578 1840.91 664.254 1829.09 654.646 1820.52C645.037 1811.69 632.182 1807.28 616.082 1807.28C606.992 1807.28 598.812 1808.84 591.541 1811.95C584.269 1814.81 578.167 1819.22 573.233 1825.2C568.298 1830.91 564.533 1838.05 561.936 1846.62C559.339 1855.19 558.041 1865.19 558.041 1876.61C558.041 1890.38 560.638 1902.58 565.831 1913.23C571.025 1923.88 578.167 1932.19 587.256 1938.16C596.605 1944.13 607.382 1947.12 619.587 1947.12C634.13 1947.12 645.946 1944.13 655.035 1938.16C664.124 1932.19 669.967 1923.62 672.564 1912.45H710.349C708.272 1925.96 703.078 1937.77 694.768 1947.9C686.458 1957.77 675.94 1965.56 663.215 1971.27C650.49 1976.73 635.948 1979.45 619.587 1979.45ZM737.06 1976.34V1697.82H774.845V1976.34H737.06ZM827.931 2055.8V2024.25H918.693C930.119 2024.25 939.468 2020.48 946.739 2012.95C954.011 2005.42 957.646 1995.55 957.646 1983.35V1951.41C952.712 1959.72 944.402 1966.47 932.716 1971.66C921.29 1976.86 908.435 1979.45 894.152 1979.45C874.675 1979.45 858.055 1975.04 844.291 1966.21C830.528 1957.38 820.01 1945.43 812.739 1930.37C805.468 1915.05 801.832 1897.65 801.832 1878.17C801.832 1863.63 803.91 1850.26 808.065 1838.05C812.22 1825.59 818.193 1814.81 825.983 1805.72C833.774 1796.63 843.382 1789.62 854.809 1784.68C866.495 1779.49 879.739 1776.89 894.541 1776.89C903.111 1776.89 911.421 1778.19 919.472 1780.79C927.522 1783.13 934.793 1786.5 941.286 1790.92C948.038 1795.33 953.491 1800.4 957.646 1806.11V1780.01H995.431V1985.68C995.431 1999.71 992.445 2011.91 986.472 2022.3C980.499 2032.95 972.059 2041.13 961.152 2046.84C950.245 2052.81 937.39 2055.8 922.588 2055.8H827.931ZM900.385 1946.34C912.59 1946.34 923.107 1943.49 931.937 1937.77C941.026 1932.06 948.038 1924.14 952.972 1914.01C957.906 1903.88 960.373 1891.94 960.373 1878.17C960.373 1857.66 954.919 1841.17 944.012 1828.7C933.105 1816.24 918.563 1810 900.385 1810C891.295 1810 882.985 1811.69 875.454 1815.07C868.183 1818.18 861.82 1822.73 856.367 1828.7C851.173 1834.67 847.148 1841.82 844.291 1850.13C841.435 1858.44 840.007 1867.79 840.007 1878.17C840.007 1898.69 845.46 1915.18 856.367 1927.64C867.534 1940.11 882.206 1946.34 900.385 1946.34ZM1035.33 1976.34V1780.01H1073.11V1817.8C1077.53 1804.55 1083.89 1794.94 1092.2 1788.97C1100.51 1783 1111.55 1780.01 1125.31 1780.01H1149.07V1812.73H1120.64C1108.69 1812.73 1099.21 1815.98 1092.2 1822.47C1085.45 1828.96 1080.51 1837.79 1077.4 1848.96C1074.54 1860.12 1073.11 1872.98 1073.11 1887.52V1976.34H1035.33ZM1238.85 1979.45C1219.11 1979.45 1202.23 1975.04 1188.21 1966.21C1174.44 1957.38 1163.93 1945.43 1156.66 1930.37C1149.38 1915.05 1145.75 1897.65 1145.75 1878.17C1145.75 1863.63 1147.83 1850.26 1151.98 1838.05C1156.14 1825.59 1162.11 1814.81 1169.9 1805.72C1177.69 1796.63 1187.3 1789.62 1198.73 1784.68C1210.41 1779.49 1223.66 1776.89 1238.46 1776.89C1251.18 1776.89 1263.26 1779.62 1274.69 1785.07C1286.11 1790.53 1295.07 1797.54 1301.56 1806.11V1780.01H1339.35V1976.34H1301.56V1949.85C1297.67 1955.82 1292.47 1961.01 1285.98 1965.43C1279.75 1969.84 1272.61 1973.35 1264.56 1975.95C1256.51 1978.28 1247.94 1979.45 1238.85 1979.45ZM1244.3 1946.34C1253.39 1946.34 1261.57 1944.78 1268.84 1941.67C1276.11 1938.29 1282.48 1933.62 1287.93 1927.64C1293.38 1921.67 1297.41 1914.53 1300.01 1906.22C1302.86 1897.91 1304.29 1888.56 1304.29 1878.17C1304.29 1857.66 1298.84 1841.17 1287.93 1828.7C1277.02 1816.24 1262.48 1810 1244.3 1810C1235.21 1810 1226.9 1811.69 1219.37 1815.07C1212.1 1818.18 1205.74 1822.73 1200.28 1828.7C1195.09 1834.67 1191.07 1841.82 1188.21 1850.13C1185.35 1858.44 1183.92 1867.79 1183.92 1878.17C1183.92 1898.69 1189.38 1915.18 1200.28 1927.64C1211.45 1940.11 1226.12 1946.34 1244.3 1946.34ZM1459.1 1979.45C1439.62 1979.45 1423 1975.04 1409.24 1966.21C1395.48 1957.38 1384.96 1945.43 1377.69 1930.37C1370.42 1915.05 1366.78 1897.65 1366.78 1878.17C1366.78 1863.63 1368.86 1850.26 1373.01 1838.05C1377.17 1825.59 1383.14 1814.81 1390.93 1805.72C1398.72 1796.63 1408.33 1789.62 1419.76 1784.68C1431.44 1779.49 1444.69 1776.89 1459.49 1776.89C1472.73 1776.89 1485.07 1779.88 1496.5 1785.85C1507.92 1791.57 1516.62 1799.23 1522.59 1808.84V1697.82H1560.38V1976.34H1522.59V1947.12C1516.62 1956.73 1507.92 1964.52 1496.5 1970.49C1485.07 1976.47 1472.6 1979.45 1459.1 1979.45ZM1465.33 1946.34C1474.42 1946.34 1482.6 1944.78 1489.87 1941.67C1497.14 1938.29 1503.51 1933.62 1508.96 1927.64C1514.41 1921.67 1518.44 1914.53 1521.04 1906.22C1523.89 1897.91 1525.32 1888.56 1525.32 1878.17C1525.32 1857.66 1519.87 1841.17 1508.96 1828.7C1498.05 1816.24 1483.51 1810 1465.33 1810C1456.24 1810 1447.93 1811.69 1440.4 1815.07C1433.13 1818.18 1426.77 1822.73 1421.31 1828.7C1416.12 1834.67 1412.1 1841.82 1409.24 1850.13C1406.38 1858.44 1404.95 1867.79 1404.95 1878.17C1404.95 1898.69 1410.41 1915.18 1421.31 1927.64C1432.48 1940.11 1447.15 1946.34 1465.33 1946.34ZM1685.19 1979.45C1670.13 1979.45 1656.5 1976.73 1644.29 1971.27C1632.09 1965.82 1621.7 1958.29 1613.13 1948.68C1604.82 1939.07 1598.33 1928.16 1593.65 1915.96C1589.24 1903.49 1587.03 1890.51 1587.03 1877C1587.03 1863.24 1589.11 1850.39 1593.26 1838.44C1597.42 1826.23 1603.52 1815.59 1611.57 1806.5C1619.88 1797.15 1629.88 1789.88 1641.57 1784.68C1653.25 1779.49 1666.63 1776.89 1681.69 1776.89C1696.75 1776.89 1710 1779.36 1721.42 1784.29C1733.11 1789.23 1742.85 1796.11 1750.64 1804.94C1758.43 1813.51 1764.27 1823.38 1768.17 1834.55C1772.32 1845.71 1774.4 1857.53 1774.4 1869.99C1774.4 1872.59 1774.27 1875.32 1774.01 1878.17C1774.01 1881.03 1773.88 1883.37 1773.62 1885.18H1608.85V1855.97H1736.22C1735.19 1840.91 1729.86 1829.09 1720.25 1820.52C1710.64 1811.69 1697.79 1807.28 1681.69 1807.28C1672.6 1807.28 1664.42 1808.84 1657.15 1811.95C1649.88 1814.81 1643.77 1819.22 1638.84 1825.2C1633.91 1830.91 1630.14 1838.05 1627.54 1846.62C1624.95 1855.19 1623.65 1865.19 1623.65 1876.61C1623.65 1890.38 1626.25 1902.58 1631.44 1913.23C1636.63 1923.88 1643.77 1932.19 1652.86 1938.16C1662.21 1944.13 1672.99 1947.12 1685.19 1947.12C1699.74 1947.12 1711.55 1944.13 1720.64 1938.16C1729.73 1932.19 1735.57 1923.62 1738.17 1912.45H1775.96C1773.88 1925.96 1768.69 1937.77 1760.38 1947.9C1752.07 1957.77 1741.55 1965.56 1728.82 1971.27C1716.1 1976.73 1701.56 1979.45 1685.19 1979.45Z" fill="black"/>
<g filter="url(#filter0_d_875_2341)">
<path d="M3217.03 1669.89C3188.88 1688.68 3185.62 1738.51 3217.03 1766.82C3248.25 1794.96 3288.94 1857.49 3260.73 1857.67C3232.64 1857.67 3210.7 1895.15 3213.77 1913.94C3215.58 1924.49 3212.45 1941.72 3211.06 1956.66C3175.74 1961.77 3132.93 1969.22 3094.34 1976.34L3147.26 1884.92L3043.62 1815.83L3009.07 1746.74H2939.98L2870.89 1850.38L2833.05 1927.68C2800.74 1887.86 2753.06 1831.83 2722.32 1801.1C2743.66 1772.06 2765.42 1748.75 2774.88 1748.75C2797.37 1748.75 2802.91 1569.46 2786.09 1530.24C2769.4 1490.83 2786.09 1446.07 2741.31 1429.32C2718.22 1420.65 2708.58 1380.7 2704.48 1344.01C2764.76 1325.64 2851.56 1297.62 2851.56 1297.62C2851.56 1297.62 2888.87 1311.6 2912.08 1316.18C2917.62 1317.33 2932.45 1319.74 2951.74 1322.63C2949.87 1324.68 2948.36 1326.84 2947.88 1328.95C2944.75 1344.62 2997.97 1385.28 2997.97 1410.35C2997.97 1435.41 3010.45 1460.35 3044.93 1460.35C3079.35 1460.35 3041.8 1541.68 3063.62 1547.95C3085.68 1554.15 3220.16 1563.49 3220.16 1594.82C3220.16 1626.03 3245.18 1651.03 3217.03 1669.89Z" stroke="black" stroke-width="31"/>
</g>
<defs>
<filter id="filter0_d_875_2341" x="2683.64" y="1279.22" width="606.076" height="724.461" filterUnits="userSpaceOnUse" color-interpolation-filters="sRGB">
<feFlood flood-opacity="0" result="BackgroundImageFix"/>
<feColorMatrix in="SourceAlpha" type="matrix" values="0 0 0 0 0 0 0 0 0 0 0 0 0 0 0 0 0 0 127 0" result="hardAlpha"/>
<feOffset dy="2"/>
<feGaussianBlur stdDeviation="2"/>
<feColorMatrix type="matrix" values="0 0 0 0 0 0 0 0 0 0 0 0 0 0 0 0 0 0 0.01 0"/>
<feBlend mode="normal" in2="BackgroundImageFix" result="effect1_dropShadow_875_2341"/>
<feBlend mode="normal" in="SourceGraphic" in2="effect1_dropShadow_875_2341" result="shape"/>
</filter>
</defs>
</svg>
