<svg width="985" height="144" viewBox="0 0 985 144" fill="none" xmlns="http://www.w3.org/2000/svg">
<path d="M147.784 143.71C117.1 143.71 95.1821 121.793 95.1821 91.9054C95.1821 62.0179 117.1 40.1004 147.784 40.1004C178.269 40.1004 200.187 62.0179 200.187 91.9054C200.187 121.793 178.269 143.71 147.784 143.71ZM147.784 122.59C164.322 122.59 175.48 110.037 175.48 91.9054C175.48 73.7736 164.322 61.2209 147.784 61.2209C131.047 61.2209 119.889 73.7736 119.889 91.9054C119.889 110.037 131.047 122.59 147.784 122.59Z" fill="white"/>
<path d="M269.194 62.2171V41.6944H260.96C244.223 41.6944 210.749 51.7366 210.749 91.9054V142.116H235.256L236.004 91.9054C236.004 72.7774 241.433 62.2171 256.975 62.2171H269.194Z" fill="white"/>
<path d="M24.6935 2.63682H0V142.088H24.6935V85.2293C51.0331 90.7344 70.8171 114.088 70.8171 142.063H94.1189C94.1189 112.485 78.336 86.5931 54.7328 72.3497C78.3358 58.1064 94.1183 32.2146 94.1183 2.63672H70.8166C70.8166 30.5229 50.9103 53.8685 24.6935 59.4688V2.63682Z" fill="white"/>
<path d="M278.502 11.4084H303.01V41.6944H337.059V62.2171H303.01V106.052C303.01 116.214 308.39 121.394 317.555 121.394H337.059V142.116H314.766C292.848 142.116 278.502 129.364 278.502 107.048V11.4084Z" fill="white"/>
<path d="M347.503 15.752C347.523 8.50294 353.405 2.63672 360.654 2.63672C367.93 2.63672 373.824 8.54587 373.804 15.8224L373.803 16.3612C373.783 23.6102 367.901 29.4764 360.652 29.4764C353.376 29.4764 347.482 23.5673 347.502 16.2908L347.503 15.752ZM348.535 142.116V41.6944H373.042V142.116H348.535Z" fill="white"/>
<path d="M407.342 142.057H385.008C385.008 121.425 395.234 103.18 410.893 92.1157C395.235 81.051 385.009 62.8083 385.009 42.1765H407.344C407.344 58.0259 416.853 71.6543 430.478 77.6668C444.103 71.6543 453.613 58.0259 453.613 42.1765H475.947C475.947 62.8083 465.722 81.051 450.063 92.1157C465.722 103.18 475.948 121.425 475.948 142.057H453.614C453.614 126.208 444.103 112.579 430.478 106.567C416.853 112.579 407.343 126.208 407.342 142.057Z" fill="white"/>
<path opacity="0.5" d="M522.466 142.111V4.90043H575.39C583.884 4.90043 591.333 6.27255 597.736 9.01677C604.139 11.6303 609.17 15.4853 612.829 20.5817C616.619 25.6781 618.514 31.7546 618.514 38.8111C618.514 45.9984 616.815 51.9442 613.417 56.6485C610.15 61.3529 606.23 64.8812 601.656 67.2334C608.321 69.7162 613.875 73.7672 618.318 79.3863C622.891 85.0055 625.178 92.5194 625.178 101.928C625.178 110.161 623.153 117.348 619.102 123.49C615.181 129.501 609.628 134.14 602.44 137.407C595.384 140.543 587.021 142.111 577.35 142.111H522.466ZM547.752 119.766H574.606C583.362 119.766 589.83 118.132 594.012 114.865C598.324 111.468 600.48 106.567 600.48 100.164C600.48 93.8915 598.324 89.0564 594.012 85.6588C589.83 82.2612 583.362 80.5624 574.606 80.5624H547.752V119.766ZM547.752 58.6087H573.626C580.552 58.6087 585.714 57.1713 589.111 54.2964C592.509 51.4215 594.208 47.3705 594.208 42.1434C594.208 36.9163 592.444 32.8653 588.915 29.9904C585.518 27.1155 580.291 25.6781 573.234 25.6781H547.752V58.6087ZM680.422 143.679C671.014 143.679 662.912 141.523 656.117 137.211C649.321 132.899 644.029 126.953 640.239 119.374C636.58 111.664 634.751 102.778 634.751 92.7154C634.751 85.2668 635.796 78.4063 637.887 72.1338C639.978 65.8613 642.984 60.5035 646.904 56.0605C650.824 51.4868 655.594 47.9585 661.213 45.4757C666.963 42.9928 673.431 41.7514 680.619 41.7514C686.499 41.7514 692.118 42.9275 697.476 45.2796C702.834 47.5012 707.146 50.5721 710.413 54.4924V43.3195H734.327V142.111H710.413V130.546C708.453 133.291 705.905 135.643 702.768 137.603C699.763 139.563 696.365 141.066 692.575 142.111C688.786 143.157 684.735 143.679 680.422 143.679ZM685.127 122.902C689.178 122.902 692.837 122.183 696.104 120.746C699.371 119.308 702.18 117.283 704.532 114.669C706.885 111.925 708.649 108.723 709.825 105.064C711.132 101.405 711.785 97.2891 711.785 92.7154C711.785 83.568 709.367 76.2501 704.532 70.7617C699.697 65.2732 693.229 62.529 685.127 62.529C681.207 62.529 677.613 63.2477 674.346 64.6852C671.079 66.1226 668.27 68.2135 665.917 70.9577C663.565 73.5712 661.736 76.7075 660.429 80.3664C659.253 84.0254 658.665 88.1417 658.665 92.7154C658.665 101.732 661.082 109.05 665.917 114.669C670.752 120.158 677.156 122.902 685.127 122.902ZM788.92 143.679C780.818 143.679 773.762 142.307 767.75 139.563C761.87 136.819 757.231 132.899 753.833 127.802C750.566 122.706 748.672 116.564 748.149 109.377H769.319C769.841 114.212 771.801 118.067 775.199 120.942C778.727 123.686 783.301 125.058 788.92 125.058C792.187 125.058 795.062 124.601 797.545 123.686C800.028 122.64 801.923 121.268 803.229 119.57C804.667 117.871 805.385 115.845 805.385 113.493C805.385 110.357 804.405 108.005 802.445 106.436C800.485 104.868 797.872 103.692 794.605 102.908C791.338 101.993 787.744 101.275 783.824 100.752C780.034 100.099 776.179 99.3146 772.259 98.3999C768.469 97.3544 764.941 95.8517 761.674 93.8915C758.407 91.9313 755.794 89.1871 753.833 85.6588C751.873 82.1306 750.893 77.4915 750.893 71.7417C750.893 65.8613 752.396 60.6995 755.402 56.2565C758.538 51.6828 762.785 48.1545 768.143 45.6717C773.5 43.0581 779.577 41.7514 786.372 41.7514C794.343 41.7514 801.204 43.0581 806.954 45.6717C812.703 48.1545 817.212 51.8135 820.479 56.6485C823.746 61.3529 825.575 66.9067 825.967 73.3099H804.797C804.405 70.435 803.36 68.0174 801.661 66.0573C800.093 63.9665 798.002 62.333 795.389 61.1569C792.906 59.9808 790.096 59.3928 786.96 59.3928C782.778 59.3928 779.185 60.3728 776.179 62.333C773.304 64.1625 771.867 66.972 771.867 70.7617C771.867 73.7672 772.847 76.0541 774.807 77.6222C776.898 79.0597 779.577 80.1704 782.844 80.9545C786.111 81.6079 789.704 82.1959 793.625 82.7186C797.545 83.2413 801.4 83.96 805.189 84.8748C809.11 85.7895 812.703 87.227 815.97 89.1871C819.237 91.1473 821.851 93.8915 823.811 97.4198C825.902 100.948 826.947 105.652 826.947 111.533C826.947 116.629 826.032 121.203 824.203 125.254C822.504 129.174 819.956 132.507 816.558 135.251C813.291 137.864 809.306 139.955 804.601 141.523C800.028 142.961 794.801 143.679 788.92 143.679ZM842.005 142.111V43.3195H866.115V142.111H842.005ZM853.962 29.2064C849.911 29.2064 846.383 27.7689 843.377 24.894C840.502 22.0191 839.065 18.5562 839.065 14.5052C839.065 10.4542 840.502 7.05661 843.377 4.3124C846.383 1.4375 849.911 5.06397e-05 853.962 5.06397e-05C858.144 5.06397e-05 861.672 1.4375 864.547 4.3124C867.422 7.05661 868.859 10.4542 868.859 14.5052C868.859 18.5562 867.422 22.0191 864.547 24.894C861.672 27.7689 858.144 29.2064 853.962 29.2064ZM930.814 143.679C920.621 143.679 911.735 141.393 904.156 136.819C896.707 132.245 890.957 126.103 886.907 118.393C882.856 110.684 880.83 102.124 880.83 92.7154C880.83 85.6588 881.941 79.0597 884.162 72.9178C886.514 66.776 889.912 61.3529 894.355 56.6485C898.798 51.9442 904.091 48.2852 910.232 45.6717C916.374 43.0581 923.235 41.7514 930.814 41.7514C939.177 41.7514 946.822 43.3195 953.748 46.4557C960.674 49.592 966.293 53.9697 970.605 59.5888C975.048 65.0772 977.596 71.6764 978.25 79.3863H954.14C953.617 76.1194 952.245 73.2445 950.024 70.7617C947.933 68.1481 945.254 66.1226 941.987 64.6852C938.851 63.2477 935.388 62.529 931.598 62.529C925.979 62.529 921.209 63.9011 917.289 66.6453C913.499 69.2589 910.624 72.7872 908.664 77.2302C906.704 81.6732 905.724 86.8349 905.724 92.7154C905.724 98.4652 906.704 103.627 908.664 108.201C910.755 112.644 913.695 116.237 917.485 118.981C921.405 121.595 926.175 122.902 931.794 122.902C937.544 122.902 942.444 121.399 946.495 118.393C950.546 115.388 953.225 111.533 954.532 106.829H978.642C977.727 113.885 975.048 120.223 970.605 125.842C966.293 131.33 960.739 135.708 953.944 138.975C947.149 142.111 939.439 143.679 930.814 143.679Z" fill="white"/>
</svg>
