<svg width="1601" height="180" viewBox="0 0 1601 180" fill="none" xmlns="http://www.w3.org/2000/svg">
<path d="M139.522 139.53H162.84C162.84 109.932 147.046 84.0224 123.427 69.7693C147.046 55.5162 162.839 29.6067 162.839 0.00854492H139.522C139.522 28.0164 119.455 51.4471 93.0774 56.9406V0.00854492H69.7625V56.9406C43.2607 51.5428 23.3183 28.1045 23.3183 0.00854492H0.000517529C0.000517529 29.6067 15.7941 55.5162 39.4134 69.7693C15.7938 84.0224 0 109.932 0 139.53H23.3178C23.3178 111.434 43.2606 87.9959 69.7625 82.5981V139.556H93.0774V82.598C119.579 87.9957 139.522 111.434 139.522 139.53Z" fill="white"/>
<path d="M379.024 141.074C348.339 141.074 326.422 119.156 326.422 89.2687C326.422 59.3812 348.339 37.4636 379.024 37.4636C409.509 37.4636 431.427 59.3812 431.427 89.2687C431.427 119.156 409.509 141.074 379.024 141.074ZM379.024 119.953C395.562 119.953 406.72 107.4 406.72 89.2687C406.72 71.1369 395.562 58.5842 379.024 58.5842C362.287 58.5842 351.129 71.1369 351.129 89.2687C351.129 107.4 362.287 119.953 379.024 119.953Z" fill="white"/>
<path d="M500.433 59.5804V39.0577H492.199C475.462 39.0577 441.988 49.0999 441.988 89.2687V139.48H466.496L467.244 89.2687C467.244 70.1407 472.673 59.5804 488.214 59.5804H500.433Z" fill="white"/>
<path d="M255.933 0.000104096H231.24V139.452H255.933V82.5926C282.273 88.0977 302.057 111.452 302.057 139.426H325.359C325.359 109.848 309.576 83.9564 285.973 69.713C309.576 55.4697 325.358 29.5779 325.358 0H302.056C302.056 27.8862 282.15 51.2318 255.933 56.832V0.000104096Z" fill="white"/>
<path d="M509.742 8.77166H534.25V39.0577H568.298V59.5804H534.25V103.415C534.25 113.577 539.63 118.758 548.795 118.758H568.298V139.48H546.006C524.088 139.48 509.742 126.728 509.742 104.412V8.77166Z" fill="white"/>
<path d="M578.743 13.1152C578.762 5.86622 584.644 0 591.893 0C599.17 0 605.063 5.90915 605.044 13.1857L605.042 13.7245C605.023 20.9735 599.141 26.8397 591.892 26.8397C584.615 26.8397 578.722 20.9306 578.742 13.654L578.743 13.1152ZM579.774 139.48V39.0577H604.282V139.48H579.774Z" fill="white"/>
<path d="M638.582 139.42H616.248C616.248 118.788 626.473 100.544 642.133 89.479C626.474 78.4143 616.249 60.1716 616.249 39.5397H638.583C638.583 55.3892 648.093 69.0176 661.718 75.0301C675.342 69.0176 684.853 55.3892 684.853 39.5397H707.187C707.187 60.1716 696.961 78.4143 681.303 89.479C696.962 100.544 707.188 118.788 707.188 139.42H684.854C684.854 123.571 675.343 109.943 661.718 103.93C648.092 109.943 638.582 123.571 638.582 139.42Z" fill="white"/>
<g opacity="0.5">
<path d="M815.451 141.043C806.173 141.043 797.418 139.605 789.185 136.73C780.952 133.725 773.634 129.347 767.231 123.597C760.959 117.717 755.993 110.399 752.334 101.644C748.806 92.7575 747.042 82.5647 747.042 71.0651C747.042 61.6564 748.218 53.2277 750.57 45.7791C752.922 38.1999 756.189 31.6007 760.371 25.9816C764.683 20.3624 769.714 15.7234 775.464 12.0645C781.344 8.27482 787.617 5.46527 794.281 3.63579C801.076 1.67563 808.133 0.695557 815.451 0.695557C826.297 0.695557 836.163 2.72105 845.049 6.77203C853.935 10.823 861.188 16.4421 866.807 23.6294C872.426 30.8166 875.824 39.1146 877 48.5233H849.95C849.296 43.4269 847.336 38.9839 844.069 35.1943C840.802 31.4047 836.686 28.4644 831.72 26.3736C826.754 24.1521 821.201 23.0413 815.059 23.0413C810.224 23.0413 805.65 23.76 801.338 25.1975C797.156 26.5043 793.301 28.4644 789.773 31.078C786.375 33.5608 783.435 36.7624 780.952 40.6827C778.469 44.4724 776.509 48.9154 775.072 54.0118C773.765 58.9775 773.112 64.5966 773.112 70.8691C773.112 81.3233 774.941 90.0786 778.6 97.1352C782.259 104.192 787.225 109.55 793.497 113.208C799.9 116.867 807.153 118.697 815.255 118.697C821.397 118.697 827.016 117.652 832.112 115.561C837.209 113.339 841.39 110.334 844.657 106.544C847.924 102.624 849.884 98.1806 850.538 93.2149H876.608C875.693 102.624 872.491 110.922 867.003 118.109C861.515 125.296 854.327 130.915 845.441 134.966C836.555 139.017 826.558 141.043 815.451 141.043Z" fill="white"/>
<path d="M934.72 141.043C924.658 141.043 915.707 138.821 907.866 134.378C900.156 129.935 894.08 123.924 889.637 116.345C885.194 108.635 882.972 99.8794 882.972 90.0786C882.972 80.2779 885.194 71.5878 889.637 64.0086C894.08 56.2986 900.156 50.2221 907.866 45.7791C915.707 41.3361 924.658 39.1146 934.72 39.1146C944.782 39.1146 953.668 41.3361 961.378 45.7791C969.088 50.2221 975.165 56.2986 979.608 64.0086C984.051 71.5878 986.272 80.2779 986.272 90.0786C986.272 99.8794 984.051 108.635 979.608 116.345C975.165 123.924 969.088 129.935 961.378 134.378C953.668 138.821 944.782 141.043 934.72 141.043ZM934.72 120.265C940.209 120.265 944.978 119.024 949.029 116.541C953.211 113.927 956.413 110.399 958.634 105.956C960.856 101.382 961.966 96.0898 961.966 90.0786C961.966 84.0675 960.856 78.8404 958.634 74.3974C956.413 69.8237 953.211 66.2954 949.029 63.8126C944.848 61.199 940.078 59.8923 934.72 59.8923C929.232 59.8923 924.397 61.199 920.215 63.8126C916.164 66.2954 912.963 69.8237 910.61 74.3974C908.389 78.8404 907.278 84.0675 907.278 90.0786C907.278 96.0898 908.389 101.382 910.61 105.956C912.963 110.399 916.164 113.927 920.215 116.541C924.397 119.024 929.232 120.265 934.72 120.265Z" fill="white"/>
<path d="M1110.51 40.6827C1116.13 40.6827 1121.16 41.9895 1125.6 44.603C1130.18 47.0859 1133.77 50.6142 1136.39 55.1879C1139 59.6309 1140.31 64.7273 1140.31 70.4771V139.475H1116.2V72.2412C1116.2 68.9743 1115.08 66.2954 1112.86 64.2046C1110.77 61.9831 1108.16 60.8723 1105.02 60.8723H1080.91V139.475H1057.19V60.8723H1033.08C1029.95 60.8723 1027.27 61.9831 1025.05 64.2046C1022.96 66.2954 1021.91 68.9743 1021.91 72.2412V139.475H997.998V70.4771C997.998 64.7273 999.24 59.6309 1001.72 55.1879C1004.34 50.6142 1007.86 47.0859 1012.31 44.603C1016.75 41.9895 1021.85 40.6827 1027.6 40.6827H1110.51Z" fill="white"/>
<path d="M1157.72 179.462V40.6827H1181.83V52.6397C1184.83 48.5887 1188.95 45.3218 1194.17 42.8389C1199.53 40.356 1205.28 39.1146 1211.42 39.1146C1220.96 39.1146 1229.13 41.3361 1235.93 45.7791C1242.85 50.0915 1248.14 56.0373 1251.8 63.6165C1255.46 71.1958 1257.29 80.0165 1257.29 90.0786C1257.29 97.5272 1256.25 104.388 1254.16 110.66C1252.06 116.933 1249.06 122.356 1245.14 126.93C1241.22 131.373 1236.45 134.836 1230.83 137.318C1225.21 139.801 1218.87 141.043 1211.82 141.043C1207.63 141.043 1203.58 140.52 1199.66 139.475C1195.87 138.298 1192.41 136.665 1189.27 134.574C1186.27 132.483 1183.79 130 1181.83 127.126V179.462H1157.72ZM1206.92 120.265C1210.84 120.265 1214.43 119.546 1217.7 118.109C1220.96 116.671 1223.77 114.646 1226.12 112.032C1228.48 109.288 1230.24 106.087 1231.42 102.428C1232.72 98.7687 1233.38 94.6523 1233.38 90.0786C1233.38 80.9312 1230.96 73.6133 1226.12 68.1249C1221.29 62.6365 1214.89 59.8923 1206.92 59.8923C1202.86 59.8923 1199.21 60.611 1195.94 62.0484C1192.8 63.4859 1189.99 65.5767 1187.51 68.3209C1185.16 70.9345 1183.33 74.0707 1182.02 77.7297C1180.85 81.3886 1180.26 85.5049 1180.26 90.0786C1180.26 99.0954 1182.67 106.413 1187.51 112.032C1192.48 117.521 1198.94 120.265 1206.92 120.265Z" fill="white"/>
<path d="M1305.81 141.043C1298.36 141.043 1291.89 139.409 1286.4 136.142C1280.91 132.745 1276.6 128.106 1273.47 122.225C1270.46 116.345 1268.96 109.55 1268.96 101.84V40.6827H1293.07V96.7432C1293.07 103.408 1294.96 108.896 1298.75 113.208C1302.54 117.521 1307.51 119.677 1313.65 119.677C1318.09 119.677 1322.01 118.632 1325.41 116.541C1328.94 114.319 1331.68 111.314 1333.64 107.524C1335.6 103.734 1336.58 99.4221 1336.58 94.587V40.6827H1360.5V139.475H1336.58V124.185C1333.84 129.543 1329.79 133.725 1324.43 136.73C1319.07 139.605 1312.86 141.043 1305.81 141.043Z" fill="white"/>
<path d="M1479.9 141.043C1471.93 141.043 1464.81 139.605 1458.54 136.73C1452.26 133.855 1446.97 130 1442.66 125.165C1438.48 120.2 1435.28 114.711 1433.05 108.7C1430.83 102.558 1429.72 96.2205 1429.72 89.6866C1429.72 83.1528 1430.7 76.8803 1432.66 70.8691C1434.75 64.858 1437.82 59.5002 1441.88 54.7958C1445.93 49.9608 1450.96 46.1712 1456.97 43.4269C1462.98 40.552 1470.04 39.1146 1478.14 39.1146C1486.37 39.1146 1493.49 40.4867 1499.5 43.2309C1505.51 45.8445 1510.48 49.5034 1514.4 54.2078C1518.32 58.7815 1521.2 63.8779 1523.03 69.497C1524.99 75.1161 1525.97 80.8659 1525.97 86.7464C1525.97 88.4452 1525.9 90.0133 1525.77 91.4508C1525.77 92.8882 1525.7 94.1296 1525.57 95.175H1443.64V78.7097H1502.05C1501.53 72.4372 1499.18 67.3408 1495 63.4205C1490.94 59.3695 1485.33 57.344 1478.14 57.344C1474.09 57.344 1470.43 58.0628 1467.16 59.5002C1464.02 60.807 1461.35 62.8325 1459.12 65.5767C1457.03 68.1902 1455.4 71.5225 1454.22 75.5735C1453.18 79.4938 1452.66 84.0675 1452.66 89.2946C1452.66 95.6978 1453.77 101.317 1455.99 106.152C1458.21 110.856 1461.35 114.515 1465.4 117.129C1469.45 119.742 1474.28 121.049 1479.9 121.049C1486.17 121.049 1491.27 119.808 1495.19 117.325C1499.11 114.842 1501.66 111.248 1502.84 106.544H1526.36C1525.31 113.47 1522.63 119.546 1518.32 124.773C1514.01 129.87 1508.59 133.855 1502.05 136.73C1495.52 139.605 1488.13 141.043 1479.9 141.043Z" fill="white"/>
<path d="M1539.22 139.475V40.6827H1563.33V58.1281C1565.81 51.8556 1569.01 47.4126 1572.93 44.7991C1576.98 42.0548 1582.21 40.6827 1588.61 40.6827H1600.18V60.8723H1584.69C1579.59 60.8723 1575.48 62.2444 1572.34 64.9887C1569.21 67.7329 1566.92 71.5225 1565.48 76.3576C1564.04 81.0619 1563.33 86.5504 1563.33 92.8229V139.475H1539.22Z" fill="white"/>
<path d="M1410.19 139.475C1399.34 139.475 1390.65 136.469 1384.12 130.458C1377.72 124.447 1374.51 115.953 1374.51 104.976V60.8723V10.8884H1398.62V40.6827H1426.07V60.8723H1398.62V103.996C1398.62 108.961 1399.87 112.751 1402.35 115.365C1404.96 117.978 1408.49 119.285 1412.93 119.285H1426.07V139.475H1410.19Z" fill="white"/>
</g>
</svg>
