<svg width="554" height="462" viewBox="0 0 554 462" fill="none" xmlns="http://www.w3.org/2000/svg">
<g opacity="0.3">
<path d="M78.9989 0.527344C79.2406 93.2729 146.704 170.569 236.289 188.394L236.887 188.513V0.527344H314.645V188.515L315.245 188.394C404.407 170.253 472.289 92.9849 472.533 0.527344H550.303C550.121 97.8051 496.921 182.937 417.413 229.808L416.682 230.238L417.413 230.669C496.922 277.54 550.123 362.671 550.305 459.948H472.535C472.293 367.202 404.829 289.906 315.243 272.082L314.645 271.963V460.033H236.887V271.964L236.289 272.082C146.704 289.907 79.2387 367.203 78.9969 459.948H1.22742C1.40921 362.671 54.6109 277.54 134.12 230.669L134.85 230.238L134.12 229.808C54.6116 182.937 1.41109 97.8051 1.22937 0.527344H78.9989Z" stroke="url(#paint0_linear_828_7019)"/>
</g>
<defs>
<linearGradient id="paint0_linear_828_7019" x1="275.766" y1="0.0273437" x2="275.766" y2="460.533" gradientUnits="userSpaceOnUse">
<stop stop-color="white"/>
<stop offset="1" stop-color="white"/>
</linearGradient>
</defs>
</svg>
