<svg width="1730" height="1446" viewBox="0 0 1730 1446" fill="none" xmlns="http://www.w3.org/2000/svg">
<g opacity="0.3">
<path d="M247.746 0.585449C247.988 290.805 458.453 532.839 738.077 588.603L738.675 588.722V0.585449H983.618V588.724L984.219 588.602C1262.53 531.85 1474.3 289.897 1474.55 0.585449H1719.52C1719.34 305.897 1552.89 573.135 1304.01 720.184L1303.29 720.615L1304.01 721.045C1552.89 868.095 1719.34 1135.33 1719.53 1440.64H1474.55C1474.31 1150.42 1263.84 908.388 984.217 852.625L983.618 852.506V1440.91H738.675V852.507L738.077 852.626C458.453 908.391 247.982 1150.43 247.74 1440.64H2.7666C2.94802 1135.33 169.404 868.095 418.283 721.045L419.012 720.615L418.283 720.184C169.407 573.135 2.95404 305.897 2.77246 0.585449H247.746Z" stroke="url(#paint0_linear_1643_657)"/>
</g>
<defs>
<linearGradient id="paint0_linear_1643_657" x1="861.146" y1="0.0854492" x2="861.146" y2="1039.15" gradientUnits="userSpaceOnUse">
<stop stop-color="white"/>
<stop offset="1" stop-color="white" stop-opacity="0"/>
</linearGradient>
</defs>
</svg>
