<svg width="1150" height="344" viewBox="0 0 1150 344" fill="none" xmlns="http://www.w3.org/2000/svg">
<g opacity="0.1">
<path d="M357.388 344C283.411 344 230.57 290.904 230.57 218.501C230.57 146.097 283.411 93.0013 357.388 93.0013C430.885 93.0013 483.726 146.097 483.726 218.501C483.726 290.904 430.885 344 357.388 344ZM357.388 292.835C397.259 292.835 424.16 262.425 424.16 218.501C424.16 174.576 397.259 144.166 357.388 144.166C317.037 144.166 290.136 174.576 290.136 218.501C290.136 262.425 317.037 292.835 357.388 292.835Z" fill="black"/>
<path d="M650.095 146.58V96.8628H630.244C589.892 96.8628 509.19 121.19 509.19 218.501V340.139H568.276L570.078 218.501C570.078 172.162 583.167 146.58 620.636 146.58H650.095Z" fill="black"/>
<path d="M60.6292 2.24464H1.09558V340.071H60.6292V202.328C124.131 215.664 171.829 272.24 171.829 340.009H228.007C228.007 268.355 189.956 205.631 133.051 171.126C189.956 136.621 228.006 73.8979 228.006 2.24438H171.827C171.827 69.7996 123.835 126.355 60.6292 139.922V2.24464Z" fill="black"/>
<path d="M672.537 23.494H731.623V96.8628H813.711V146.58H731.623V252.772C731.623 277.389 744.593 289.939 766.69 289.939H813.711V340.139H759.965C707.124 340.139 672.537 309.246 672.537 255.185V23.494Z" fill="black"/>
<path d="M838.892 34.0165C838.939 16.4555 853.119 2.24438 870.596 2.24438C888.139 2.24438 902.347 16.5595 902.3 34.1871L902.297 35.4924C902.25 53.0534 888.069 67.2645 870.593 67.2645C853.049 67.2645 838.841 52.9494 838.888 35.3217L838.892 34.0165ZM841.378 340.139V96.8628H900.464V340.139H841.378Z" fill="black"/>
<path d="M983.158 339.995H929.313C929.313 290.012 953.965 245.814 991.719 219.01C953.967 192.206 929.315 148.012 929.315 98.0307H983.161C983.161 136.427 1006.09 169.442 1038.94 184.007C1071.78 169.442 1094.71 136.427 1094.71 98.0307H1148.56C1148.56 148.012 1123.9 192.206 1086.15 219.01C1123.91 245.814 1148.56 290.012 1148.56 339.995H1094.71C1094.71 301.599 1071.78 268.584 1038.94 254.019C1006.09 268.584 983.158 301.599 983.158 339.995Z" fill="black"/>
</g>
</svg>
