<svg width="50" height="24" viewBox="0 0 50 24" fill="none" xmlns="http://www.w3.org/2000/svg">
<rect width="50" height="24" rx="12" fill="#E0E0E0"/>
<path d="M10.208 16.5V7.372H13.5854C14.4373 7.372 15.1197 7.57194 15.6326 7.97184C16.1455 8.37173 16.402 8.91506 16.402 9.60184C16.402 10.0887 16.289 10.4886 16.063 10.8015C15.8369 11.1145 15.5587 11.3492 15.2284 11.5057C15.6891 11.6709 16.0673 11.9447 16.3629 12.3272C16.6671 12.701 16.8193 13.2052 16.8193 13.8398C16.8193 14.657 16.5454 15.3047 15.9978 15.7828C15.4501 16.2609 14.7025 16.5 13.7549 16.5H10.208ZM11.5511 15.3003H13.5723C14.8502 15.3003 15.4892 14.7918 15.4892 13.7746C15.4892 12.7575 14.8502 12.249 13.5723 12.249H11.5511V15.3003ZM11.5511 11.0623H13.5202C14.5634 11.0623 15.085 10.6363 15.085 9.7844C15.085 8.93245 14.559 8.50648 13.5071 8.50648H11.5511V11.0623ZM20.1833 16.6043C19.5139 16.6043 18.9706 16.4218 18.5533 16.0566C18.1447 15.6828 17.9404 15.2047 17.9404 14.6222C17.9404 13.9876 18.1751 13.4791 18.6446 13.0966C19.114 12.7141 19.7312 12.5228 20.4963 12.5228H21.8785C22.1741 12.5228 22.3219 12.4098 22.3219 12.1838C22.3219 11.7839 22.1828 11.4622 21.9046 11.2188C21.6264 10.9667 21.2352 10.8406 20.731 10.8406C20.2702 10.8406 19.8877 10.9667 19.5835 11.2188C19.2879 11.4622 19.1314 11.7491 19.114 12.0794H17.9404C17.9752 11.6448 18.1186 11.2579 18.3707 10.9189C18.6228 10.5798 18.9532 10.3147 19.3618 10.1234C19.7791 9.92349 20.2485 9.82352 20.7701 9.82352C21.3352 9.82352 21.8263 9.92784 22.2436 10.1365C22.6696 10.3364 22.9956 10.619 23.2216 10.9841C23.4563 11.3492 23.5737 11.7752 23.5737 12.262V16.5H22.3219V15.4177C22.1567 15.7741 21.8828 16.061 21.5003 16.2783C21.1178 16.4957 20.6788 16.6043 20.1833 16.6043ZM20.4311 15.6002C21.0222 15.6002 21.483 15.422 21.8133 15.0656C22.1523 14.7092 22.3219 14.2267 22.3219 13.6182V13.5008H20.6267C20.2007 13.5008 19.8573 13.5964 19.5965 13.7877C19.3357 13.9789 19.2053 14.2484 19.2053 14.5962C19.2053 14.8917 19.314 15.1351 19.5313 15.3264C19.7573 15.509 20.0572 15.6002 20.4311 15.6002ZM27.4983 16.6043C26.7072 16.6043 26.0813 16.4087 25.6206 16.0175C25.1598 15.6263 24.9034 15.0743 24.8512 14.3614H26.0118C26.0465 14.7353 26.1943 15.0308 26.4551 15.2482C26.7159 15.4655 27.0593 15.5742 27.4853 15.5742C27.8765 15.5742 28.1895 15.4872 28.4242 15.3134C28.6589 15.1395 28.7763 14.9048 28.7763 14.6092C28.7763 14.3397 28.685 14.1441 28.5024 14.0224C28.3199 13.892 28.0851 13.8007 27.7983 13.7486C27.5201 13.6877 27.2201 13.6312 26.8985 13.579C26.5768 13.5269 26.2726 13.4443 25.9857 13.3313C25.7075 13.2096 25.4771 13.0314 25.2946 12.7966C25.112 12.5532 25.0207 12.2142 25.0207 11.7795C25.0207 11.3883 25.1207 11.0493 25.3207 10.7624C25.5206 10.4668 25.7988 10.2365 26.1552 10.0713C26.5116 9.9061 26.9159 9.82352 27.3679 9.82352C28.1329 9.82352 28.7371 10.0061 29.1805 10.3712C29.6239 10.7276 29.8673 11.2275 29.9107 11.8708H28.7502C28.7154 11.5491 28.572 11.2927 28.3199 11.1014C28.0764 10.9102 27.7635 10.8146 27.381 10.8146C27.0593 10.8146 26.7811 10.8928 26.5464 11.0493C26.3117 11.2058 26.1943 11.4318 26.1943 11.7274C26.1943 11.9882 26.2856 12.1794 26.4682 12.3011C26.6507 12.4141 26.8855 12.4967 27.1723 12.5489C27.4592 12.5923 27.7591 12.6402 28.0721 12.6923C28.3937 12.7445 28.698 12.8271 28.9849 12.9401C29.2718 13.0531 29.5065 13.2357 29.6891 13.4878C29.8716 13.7312 29.9629 14.0833 29.9629 14.544C29.9629 15.1786 29.7412 15.6828 29.2979 16.0566C28.8632 16.4218 28.2633 16.6043 27.4983 16.6043ZM31.408 16.5V9.92784H32.6729V16.5H31.408ZM31.3297 7.1764H32.7381V8.76728H31.3297V7.1764ZM37.3318 16.6043C36.645 16.6043 36.0582 16.4478 35.5714 16.1349C35.0933 15.8219 34.7238 15.409 34.463 14.8961C34.2109 14.3745 34.0849 13.8138 34.0849 13.2139C34.0849 12.6054 34.2109 12.0447 34.463 11.5318C34.7238 11.0189 35.0933 10.6059 35.5714 10.293C36.0582 9.98 36.645 9.82352 37.3318 9.82352C37.8447 9.82352 38.3185 9.92349 38.7532 10.1234C39.1965 10.3147 39.5617 10.5885 39.8485 10.945C40.1441 11.3014 40.3223 11.7274 40.3832 12.2229H39.1183C39.0574 11.8491 38.8618 11.5405 38.5315 11.297C38.2012 11.0536 37.81 10.9319 37.3579 10.9319C36.9232 10.9319 36.5581 11.0362 36.2625 11.2449C35.9757 11.4448 35.7583 11.7187 35.6105 12.0664C35.4714 12.4054 35.4019 12.7879 35.4019 13.2139C35.4019 13.6312 35.4758 14.0137 35.6236 14.3614C35.7714 14.7092 35.9887 14.9874 36.2756 15.196C36.5712 15.3959 36.9363 15.4959 37.3709 15.4959C37.823 15.4959 38.2012 15.3873 38.5054 15.1699C38.8184 14.9526 39.027 14.657 39.1313 14.2832H40.3832C40.2789 14.97 39.9529 15.5307 39.4052 15.9654C38.8662 16.3913 38.1751 16.6043 37.3318 16.6043Z" fill="#121215"/>
</svg>
