<svg width="63" height="24" viewBox="0 0 63 24" fill="none" xmlns="http://www.w3.org/2000/svg">
<rect width="62.6496" height="24" rx="12" fill="#121215"/>
<rect width="62.6496" height="24" rx="12" fill="url(#paint0_linear_967_8142)"/>
<rect width="62.6496" height="24" rx="12" fill="url(#paint1_radial_967_8142)" fill-opacity="0.6"/>
<path d="M19.001 16.8575H20.6698C20.6698 14.7896 19.5395 12.9794 17.8491 11.9837C19.5395 10.9879 20.6698 9.17772 20.6698 7.10986H19.001C19.001 9.06662 17.5648 10.7036 15.677 11.0874V7.10986H14.0084V11.0874C12.1117 10.7103 10.6845 9.07277 10.6845 7.10986H9.01566C9.01566 9.17772 10.146 10.9879 11.8364 11.9837C10.146 12.9794 9.01562 14.7896 9.01562 16.8575H10.6844C10.6844 14.8945 12.1117 13.257 14.0084 12.8799V16.8592H15.677V12.8799C17.5737 13.257 19.001 14.8945 19.001 16.8575Z" fill="#121215"/>
<path d="M29.3728 16.6043C27.2862 16.6043 25.8778 15.3915 25.8778 13.3049V7.37105H27.1819V13.344C27.1819 14.6481 28.0687 15.3915 29.3728 15.3915C30.69 15.3915 31.5768 14.6481 31.5768 13.344V7.37105H32.881V13.3049C32.881 15.3915 31.4725 16.6043 29.3728 16.6043ZM34.515 16.5V7.17543H35.78V16.5H34.515ZM38.2118 7.86663H39.4768V9.92716H41.42V11.0226H39.4768V14.3091C39.4768 15.0133 39.855 15.4045 40.494 15.4045H41.42V16.5H40.3897C39.0595 16.5 38.2118 15.6914 38.2118 14.3482V11.0226H36.8686V9.92716H38.2118V7.86663ZM46.3068 11.0226H45.3548C44.155 11.0226 43.7638 12.092 43.7638 13.5266V16.5H42.4987V9.92716H43.7638V11.1922C44.0637 10.3184 44.5854 9.92716 45.5113 9.92716H46.3068V11.0226ZM49.7167 9.82283C51.4121 9.82283 52.5337 10.8009 52.5337 12.2616V16.5H51.2686V15.4306C50.9557 16.1348 50.121 16.6043 49.1299 16.6043C47.7866 16.6043 46.8998 15.7958 46.8998 14.622C46.8998 13.357 47.904 12.5746 49.4559 12.5746H50.8252C51.1252 12.5746 51.2686 12.4181 51.2686 12.1833C51.2686 11.3878 50.6948 10.8401 49.6776 10.8401C48.7647 10.8401 48.0996 11.4139 48.0605 12.079H46.8868C46.9911 10.7879 48.1648 9.82283 49.7167 9.82283ZM49.3777 15.6001C50.5775 15.6001 51.2686 14.8307 51.2686 13.6179V13.4614H49.5733C48.7125 13.4614 48.1518 13.9048 48.1518 14.596C48.1518 15.1959 48.6473 15.6001 49.3777 15.6001Z" fill="#121215"/>
<path d="M29.3728 16.6043C27.2862 16.6043 25.8778 15.3915 25.8778 13.3049V7.37105H27.1819V13.344C27.1819 14.6481 28.0687 15.3915 29.3728 15.3915C30.69 15.3915 31.5768 14.6481 31.5768 13.344V7.37105H32.881V13.3049C32.881 15.3915 31.4725 16.6043 29.3728 16.6043ZM34.515 16.5V7.17543H35.78V16.5H34.515ZM38.2118 7.86663H39.4768V9.92716H41.42V11.0226H39.4768V14.3091C39.4768 15.0133 39.855 15.4045 40.494 15.4045H41.42V16.5H40.3897C39.0595 16.5 38.2118 15.6914 38.2118 14.3482V11.0226H36.8686V9.92716H38.2118V7.86663ZM46.3068 11.0226H45.3548C44.155 11.0226 43.7638 12.092 43.7638 13.5266V16.5H42.4987V9.92716H43.7638V11.1922C44.0637 10.3184 44.5854 9.92716 45.5113 9.92716H46.3068V11.0226ZM49.7167 9.82283C51.4121 9.82283 52.5337 10.8009 52.5337 12.2616V16.5H51.2686V15.4306C50.9557 16.1348 50.121 16.6043 49.1299 16.6043C47.7866 16.6043 46.8998 15.7958 46.8998 14.622C46.8998 13.357 47.904 12.5746 49.4559 12.5746H50.8252C51.1252 12.5746 51.2686 12.4181 51.2686 12.1833C51.2686 11.3878 50.6948 10.8401 49.6776 10.8401C48.7647 10.8401 48.0996 11.4139 48.0605 12.079H46.8868C46.9911 10.7879 48.1648 9.82283 49.7167 9.82283ZM49.3777 15.6001C50.5775 15.6001 51.2686 14.8307 51.2686 13.6179V13.4614H49.5733C48.7125 13.4614 48.1518 13.9048 48.1518 14.596C48.1518 15.1959 48.6473 15.6001 49.3777 15.6001Z" fill="#121215"/>
<defs>
<linearGradient id="paint0_linear_967_8142" x1="4.91571e-07" y1="-1.79792" x2="40.1468" y2="59.1571" gradientUnits="userSpaceOnUse">
<stop stop-color="#23D3FF"/>
<stop offset="0.380795" stop-color="#FDF5E0"/>
<stop offset="0.682258" stop-color="#FFC78C"/>
<stop offset="1" stop-color="#FF1B07"/>
</linearGradient>
<radialGradient id="paint1_radial_967_8142" cx="0" cy="0" r="1" gradientTransform="matrix(16.7066 -10.4 27.1482 6.4 4.17664 24)" gradientUnits="userSpaceOnUse">
<stop stop-color="white"/>
<stop offset="1" stop-color="white" stop-opacity="0"/>
</radialGradient>
</defs>
</svg>
