<svg width="2303" height="2303" viewBox="0 0 2303 2303" fill="none" xmlns="http://www.w3.org/2000/svg">
<rect x="16" y="16" width="2271" height="2271" rx="1135.5" stroke="black" stroke-width="32"/>
<path d="M873.109 634.258V361.583H973.999C990.879 361.583 1005.55 364.31 1018.02 369.763C1030.74 375.217 1040.61 382.878 1047.62 392.746C1054.63 402.614 1058.14 414.43 1058.14 428.194C1058.14 442.736 1054.63 454.682 1047.62 464.031C1040.87 473.38 1032.69 480.391 1023.08 485.066C1036.84 490 1048.14 498.18 1056.97 509.606C1066.06 520.773 1070.6 535.835 1070.6 554.793C1070.6 571.153 1066.84 585.306 1059.31 597.252C1052.04 608.938 1041.52 618.027 1027.75 624.519C1014.25 631.012 998.02 634.258 979.063 634.258H873.109ZM913.232 598.421H973.61C992.567 598.421 1006.85 594.525 1016.46 586.734C1026.07 578.944 1030.87 567.647 1030.87 552.845C1030.87 538.043 1026.07 526.746 1016.46 518.955C1006.85 511.165 992.567 507.269 973.61 507.269H913.232V598.421ZM913.232 471.822H972.051C987.373 471.822 998.929 468.705 1006.72 462.473C1014.77 455.98 1018.8 446.372 1018.8 433.647C1018.8 421.182 1014.77 411.703 1006.72 405.211C998.929 398.719 987.243 395.473 971.662 395.473H913.232V471.822ZM1179.26 637.374C1159.52 637.374 1142.64 632.959 1128.62 624.13C1114.85 615.3 1104.34 603.355 1097.06 588.293C1089.79 572.971 1086.16 555.572 1086.16 536.095C1086.16 521.552 1088.24 508.178 1092.39 495.973C1096.55 483.508 1102.52 472.73 1110.31 463.641C1118.1 454.552 1127.71 447.541 1139.13 442.606C1150.82 437.413 1164.06 434.816 1178.87 434.816C1191.59 434.816 1203.67 437.542 1215.09 442.996C1226.52 448.449 1235.48 455.461 1241.97 464.031V437.932H1279.76V634.258H1241.97V607.769C1238.08 613.742 1232.88 618.936 1226.39 623.351C1220.16 627.766 1213.02 631.271 1204.97 633.868C1196.92 636.205 1188.35 637.374 1179.26 637.374ZM1184.71 604.264C1193.8 604.264 1201.98 602.705 1209.25 599.589C1216.52 596.213 1222.88 591.539 1228.34 585.566C1233.79 579.593 1237.82 572.452 1240.41 564.141C1243.27 555.831 1244.7 546.483 1244.7 536.095C1244.7 515.579 1239.25 499.089 1228.34 486.624C1217.43 474.159 1202.89 467.926 1184.71 467.926C1175.62 467.926 1167.31 469.614 1159.78 472.99C1152.51 476.106 1146.15 480.651 1140.69 486.624C1135.5 492.597 1131.47 499.738 1128.62 508.048C1125.76 516.358 1124.33 525.707 1124.33 536.095C1124.33 556.61 1129.79 573.101 1140.69 585.566C1151.86 598.031 1166.53 604.264 1184.71 604.264ZM1319.65 634.258V355.74H1357.44V634.258H1319.65ZM1396.89 634.258V437.932H1434.68V634.258H1396.89ZM1394.55 355.74H1436.62V403.263H1394.55V355.74Z" fill="black"/>
<path d="M189 1255.97V1045.76H220.231V1255.97H189ZM220.231 1073.39H189V1045.76H220.231V1073.39ZM220.231 1255.97H189V1228.34H220.231V1255.97ZM256.167 1255.97V1045.76H320.73C335.345 1045.76 349.058 1048.07 361.871 1052.67C374.683 1057.27 385.894 1063.98 395.504 1072.79C405.313 1081.6 412.921 1092.61 418.326 1105.82C423.931 1118.83 426.734 1133.85 426.734 1150.87C426.734 1167.88 423.931 1183 418.326 1196.21C412.921 1209.22 405.313 1220.13 395.504 1228.94C385.894 1237.75 374.683 1244.46 361.871 1249.06C349.058 1253.67 335.345 1255.97 320.73 1255.97H256.167ZM287.398 1228.34H318.929C328.738 1228.34 338.147 1226.94 347.156 1224.14C356.165 1221.13 364.173 1216.53 371.18 1210.32C378.387 1204.12 384.092 1196.11 388.297 1186.3C392.501 1176.49 394.603 1164.68 394.603 1150.87C394.603 1132.25 390.999 1117.33 383.792 1106.12C376.585 1094.71 367.176 1086.4 355.565 1081.2C344.153 1075.99 331.941 1073.39 318.929 1073.39H287.398V1228.34Z" fill="black"/>
<path d="M2081.3 1255.93H2116.57C2116.57 1211.16 2092.68 1171.97 2056.96 1150.41C2092.68 1128.85 2116.57 1089.66 2116.57 1044.89H2081.3C2081.3 1087.25 2050.95 1122.7 2011.05 1131V1044.89H1975.79V1131C1935.7 1122.84 1905.54 1087.39 1905.54 1044.89H1870.27C1870.27 1089.66 1894.16 1128.85 1929.88 1150.41C1894.15 1171.97 1870.27 1211.16 1870.27 1255.93H1905.54C1905.54 1213.43 1935.7 1177.98 1975.79 1169.81V1255.97H2011.05V1169.81C2051.14 1177.98 2081.3 1213.43 2081.3 1255.93Z" fill="black"/>
<path d="M748.321 1535.95L705.742 1449.15L731.945 1432.78L705.742 1393.47H731.945L767.974 1432.78L813.828 1411.49L882.609 1449.15L1003.8 1465.53H1098.78L1192.12 1368.91L1288.75 1380.37L1549.13 1562.15H1576.97L1598.26 1614.55L1549.13 1699.71H1490.18L1462.34 1717.73L1414.85 1743.93L1349.34 1765.22L1288.75 1799.61L1298.57 1852.01H1251.08V1892.95L1269.09 1906.06L1241.25 1943.72L1161.01 1933.9V1906.06L1213.41 1884.77V1852.01V1829.09L1177.39 1791.42L1141.36 1743.93L1044.74 1658.77L954.666 1614.55H848.218L799.089 1601.45L748.321 1535.95Z" stroke="black" stroke-width="31"/>
<path d="M1436.13 1829.09L1414.85 1852.01L1423.03 1871.67L1490.18 1933.9H1531.12V1884.77L1503.28 1829.09H1472.16H1436.13Z" stroke="black" stroke-width="31"/>
</svg>
