<svg width="2303" height="2303" viewBox="0 0 2303 2303" fill="none" xmlns="http://www.w3.org/2000/svg">
<rect x="16" y="16" width="2271" height="2271" rx="1135.5" stroke="black" stroke-width="32"/>
<path d="M632.663 634.258V361.583H673.175V598.421H806.006V634.258H632.663ZM822.418 634.258V437.932H860.203V634.258H822.418ZM820.081 355.74H862.151V403.263H820.081V355.74ZM964.319 637.374C948.478 637.374 934.844 634.777 923.418 629.583C911.991 624.13 903.032 616.469 896.54 606.601C890.307 596.473 886.541 584.397 885.243 570.374H919.912C920.95 581.8 925.365 590.76 933.156 597.252C940.947 603.485 951.204 606.601 963.929 606.601C971.72 606.601 978.472 605.432 984.185 603.095C990.158 600.758 994.702 597.382 997.819 592.967C1000.94 588.552 1002.49 583.488 1002.49 577.775C1002.49 570.764 1000.42 565.44 996.261 561.804C992.365 558.169 987.042 555.442 980.29 553.624C973.797 551.806 966.526 550.378 958.476 549.339C950.685 548.041 942.764 546.483 934.714 544.665C926.664 542.847 919.262 540.12 912.511 536.484C906.018 532.589 900.695 527.265 896.54 520.513C892.385 513.502 890.307 504.413 890.307 493.246C890.307 481.82 893.293 471.692 899.266 462.862C905.239 454.033 913.419 447.151 923.807 442.217C934.454 437.283 946.66 434.816 960.423 434.816C975.745 434.816 988.859 437.283 999.766 442.217C1010.67 446.891 1019.24 453.903 1025.48 463.252C1031.97 472.341 1035.6 483.248 1036.38 495.973H1001.71C1001.19 489.48 999.117 483.897 995.482 479.223C991.846 474.548 987.042 470.913 981.069 468.316C975.096 465.719 968.344 464.42 960.813 464.42C951.204 464.42 942.894 466.758 935.883 471.432C928.871 476.106 925.365 482.858 925.365 491.688C925.365 498.18 927.313 503.244 931.208 506.88C935.363 510.256 940.817 512.853 947.569 514.67C954.321 516.229 961.722 517.527 969.772 518.566C977.823 519.605 985.743 521.033 993.534 522.851C1001.58 524.669 1008.99 527.525 1015.74 531.42C1022.49 535.316 1027.81 540.769 1031.71 547.781C1035.86 554.793 1037.94 564.141 1037.94 575.828C1037.94 585.176 1036.25 593.746 1032.88 601.537C1029.5 609.068 1024.57 615.56 1018.07 621.014C1011.84 626.207 1004.18 630.233 995.092 633.089C986.003 635.946 975.745 637.374 964.319 637.374ZM1166.42 637.374C1157.59 637.374 1149.02 636.076 1140.71 633.479C1132.66 630.622 1125.39 626.857 1118.89 622.182C1112.4 617.248 1107.21 611.535 1103.31 605.043V634.258H1065.53V355.74H1103.31V466.758C1109.29 457.149 1117.99 449.488 1129.41 443.775C1140.84 437.802 1153.04 434.816 1166.03 434.816C1185.76 434.816 1202.51 439.23 1216.28 448.06C1230.3 456.889 1240.95 468.965 1248.22 484.287C1255.49 499.349 1259.13 516.618 1259.13 536.095C1259.13 550.638 1257.05 564.141 1252.89 576.607C1248.74 588.812 1242.64 599.459 1234.59 608.548C1226.8 617.638 1217.19 624.779 1205.76 629.973C1194.33 634.907 1181.22 637.374 1166.42 637.374ZM1160.57 604.264C1169.66 604.264 1177.84 602.705 1185.12 599.589C1192.65 596.213 1199.01 591.539 1204.2 585.566C1209.66 579.593 1213.81 572.452 1216.67 564.141C1219.52 555.831 1220.95 546.483 1220.95 536.095C1220.95 515.579 1215.37 499.089 1204.2 486.624C1193.3 474.159 1178.75 467.926 1160.57 467.926C1148.63 467.926 1138.11 470.783 1129.02 476.496C1119.93 482.209 1112.79 490.13 1107.6 500.258C1102.66 510.386 1100.2 522.331 1100.2 536.095C1100.2 556.61 1105.65 573.101 1116.56 585.566C1127.72 598.031 1142.4 604.264 1160.57 604.264ZM1374.59 637.374C1354.86 637.374 1337.33 633.089 1322.01 624.519C1306.94 615.69 1295 603.614 1286.17 588.293C1277.6 572.971 1273.31 555.572 1273.31 536.095C1273.31 516.358 1277.6 498.959 1286.17 483.897C1295 468.575 1306.94 456.63 1322.01 448.06C1337.33 439.23 1354.86 434.816 1374.59 434.816C1394.07 434.816 1411.34 439.23 1426.4 448.06C1441.72 456.63 1453.67 468.575 1462.24 483.897C1471.07 498.959 1475.48 516.358 1475.48 536.095C1475.48 555.572 1471.07 572.971 1462.24 588.293C1453.67 603.614 1441.72 615.69 1426.4 624.519C1411.34 633.089 1394.07 637.374 1374.59 637.374ZM1374.59 604.264C1387.06 604.264 1397.97 601.407 1407.31 595.694C1416.66 589.721 1423.93 581.671 1429.13 571.543C1434.32 561.155 1436.92 549.339 1436.92 536.095C1436.92 522.851 1434.32 511.165 1429.13 501.037C1423.93 490.649 1416.66 482.599 1407.31 476.886C1397.97 470.913 1387.06 467.926 1374.59 467.926C1362.13 467.926 1351.09 470.913 1341.48 476.886C1332.13 482.599 1324.86 490.649 1319.67 501.037C1314.48 511.165 1311.88 522.851 1311.88 536.095C1311.88 549.339 1314.48 561.155 1319.67 571.543C1324.86 581.671 1332.13 589.721 1341.48 595.694C1351.09 601.407 1362.13 604.264 1374.59 604.264ZM1501.88 634.258V437.932H1539.67V472.601C1544.86 460.395 1553.04 451.046 1564.21 444.554C1575.38 438.062 1588.23 434.816 1602.77 434.816C1617.58 434.816 1630.43 438.192 1641.34 444.944C1652.5 451.436 1661.07 460.655 1667.05 472.601C1673.02 484.287 1676.01 497.92 1676.01 513.502V634.258H1638.22V520.903C1638.22 505.322 1634.07 492.727 1625.76 483.118C1617.45 473.51 1606.28 468.705 1592.26 468.705C1582.13 468.705 1573.04 471.302 1564.99 476.496C1556.94 481.43 1550.71 488.312 1546.29 497.141C1541.88 505.971 1539.67 516.229 1539.67 527.915V634.258H1501.88Z" fill="black"/>
<g filter="url(#filter0_d_875_2346)">
<path fill-rule="evenodd" clip-rule="evenodd" d="M1286.12 1830.34C1350.27 1818.77 1268.5 1766.16 1250.96 1748.69C1233.41 1731.15 1256.78 1661.08 1291.88 1661.08C1326.83 1661.08 1291.88 1620.25 1245.06 1573.4C1198.39 1526.68 1245.06 1509.28 1286.05 1509.28C1326.83 1509.28 1274.33 1439.21 1315.04 1398.24C1355.96 1357.35 1303.39 1281.59 1303.39 1246.51C1303.39 1211.65 1361.85 1199.87 1408.66 1153.22C1455.34 1106.43 1367.82 1123.97 1367.82 1088.97C1367.82 1053.96 1309.28 1042.18 1268.51 1071.5C1227.52 1100.75 1239.31 1071.5 1204.22 1071.5C1169.13 1071.5 1104.91 1083.21 1104.91 1048.07C1104.91 1012.86 1075.71 1007.31 1046.58 1042.18C1037.98 1052.58 1023.28 1058.05 1003.38 1060.62C999.077 1106.36 994.361 1148.99 1007.75 1170.62C1038.88 1221.01 969.256 1487.24 906.909 1559.19C844.494 1631.14 904.621 1650.4 969.256 1700.8C1034.1 1751.19 990.963 1933.48 990.963 1976.59C990.963 2019.85 1048.52 2007.85 1115.72 2007.85C1155.74 2007.85 1200.96 1990.04 1245.34 1982.28C1232.23 1962.25 1221.76 1942.56 1221.76 1929.53C1221.76 1894.53 1221.76 1842.06 1286.12 1830.34Z" stroke="black" stroke-width="31"/>
</g>
<path d="M189 1255.97V1045.76H270.38C284.794 1045.76 297.106 1048.47 307.316 1053.87C317.726 1059.28 325.634 1066.68 331.039 1076.09C336.444 1085.5 339.147 1096.51 339.147 1109.13C339.147 1118.33 337.545 1126.84 334.342 1134.65C331.339 1142.46 326.835 1149.16 320.829 1154.77C315.023 1160.38 307.816 1164.78 299.208 1167.98C290.8 1170.99 281.19 1172.49 270.38 1172.49H220.231V1255.97H189ZM220.231 1145.46H269.479C278.688 1145.46 285.995 1143.76 291.4 1140.36C297.006 1136.95 301.01 1132.55 303.412 1127.14C305.814 1121.54 307.015 1115.53 307.015 1109.13C307.015 1102.72 305.814 1096.81 303.412 1091.41C301.01 1085.8 297.006 1081.3 291.4 1077.89C285.995 1074.49 278.688 1072.79 269.479 1072.79H220.231V1145.46ZM401.505 1255.97V1073.39H335.74V1045.76H498.5V1073.39H432.735V1255.97H401.505Z" fill="black"/>
<path d="M2081.3 1255.93H2116.57C2116.57 1211.16 2092.68 1171.97 2056.96 1150.41C2092.68 1128.85 2116.57 1089.66 2116.57 1044.89H2081.3C2081.3 1087.25 2050.95 1122.7 2011.05 1131V1044.89H1975.79V1131C1935.7 1122.84 1905.54 1087.39 1905.54 1044.89H1870.27C1870.27 1089.66 1894.16 1128.85 1929.88 1150.41C1894.15 1171.97 1870.27 1211.16 1870.27 1255.93H1905.54C1905.54 1213.43 1935.7 1177.98 1975.79 1169.81V1255.97H2011.05V1169.81C2051.14 1177.98 2081.3 1213.43 2081.3 1255.93Z" fill="black"/>
<defs>
<filter id="filter0_d_875_2346" x="861.129" y="1001.16" width="580.742" height="1029.72" filterUnits="userSpaceOnUse" color-interpolation-filters="sRGB">
<feFlood flood-opacity="0" result="BackgroundImageFix"/>
<feColorMatrix in="SourceAlpha" type="matrix" values="0 0 0 0 0 0 0 0 0 0 0 0 0 0 0 0 0 0 127 0" result="hardAlpha"/>
<feOffset dy="2"/>
<feGaussianBlur stdDeviation="2"/>
<feColorMatrix type="matrix" values="0 0 0 0 0 0 0 0 0 0 0 0 0 0 0 0 0 0 0.01 0"/>
<feBlend mode="normal" in2="BackgroundImageFix" result="effect1_dropShadow_875_2346"/>
<feBlend mode="normal" in="SourceGraphic" in2="effect1_dropShadow_875_2346" result="shape"/>
</filter>
</defs>
</svg>
