<svg width="3549" height="2303" viewBox="0 0 3549 2303" fill="none" xmlns="http://www.w3.org/2000/svg">
<rect x="16" y="16" width="3517" height="2271" rx="408" stroke="black" stroke-width="32"/>
<path d="M309.155 634.258V361.583H349.667V598.421H482.498V634.258H309.155ZM578.957 637.374C559.22 637.374 541.691 633.089 526.37 624.519C511.308 615.69 499.362 603.614 490.532 588.293C481.963 572.971 477.678 555.572 477.678 536.095C477.678 516.358 481.963 498.959 490.532 483.897C499.362 468.575 511.308 456.63 526.37 448.06C541.691 439.23 559.22 434.816 578.957 434.816C598.434 434.816 615.703 439.23 630.765 448.06C646.087 456.63 658.033 468.575 666.602 483.897C675.432 498.959 679.847 516.358 679.847 536.095C679.847 555.572 675.432 572.971 666.602 588.293C658.033 603.614 646.087 615.69 630.765 624.519C615.703 633.089 598.434 637.374 578.957 637.374ZM578.957 604.264C591.422 604.264 602.329 601.407 611.678 595.694C621.027 589.721 628.298 581.671 633.492 571.543C638.686 561.155 641.283 549.339 641.283 536.095C641.283 522.851 638.686 511.165 633.492 501.037C628.298 490.649 621.027 482.599 611.678 476.886C602.329 470.913 591.422 467.926 578.957 467.926C566.492 467.926 555.455 470.913 545.846 476.886C536.498 482.599 529.226 490.649 524.032 501.037C518.839 511.165 516.242 522.851 516.242 536.095C516.242 549.339 518.839 561.155 524.032 571.543C529.226 581.671 536.498 589.721 545.846 595.694C555.455 601.407 566.492 604.264 578.957 604.264ZM706.247 634.258V437.932H744.032V472.601C749.226 460.395 757.406 451.046 768.572 444.554C779.739 438.062 792.594 434.816 807.136 434.816C821.939 434.816 834.793 438.192 845.7 444.944C856.867 451.436 865.437 460.655 871.41 472.601C877.383 484.287 880.369 497.92 880.369 513.502V634.258H842.584V520.903C842.584 505.322 838.429 492.727 830.119 483.118C821.809 473.51 810.642 468.705 796.619 468.705C786.491 468.705 777.402 471.302 769.351 476.496C761.301 481.43 755.069 488.312 750.654 497.141C746.239 505.971 744.032 516.229 744.032 527.915V634.258H706.247ZM997.242 637.374C977.765 637.374 961.145 632.959 947.381 624.13C933.618 615.3 923.1 603.355 915.829 588.293C908.558 572.971 904.922 555.572 904.922 536.095C904.922 521.552 907 508.178 911.155 495.973C915.31 483.508 921.282 472.73 929.073 463.641C936.864 454.552 946.472 447.541 957.899 442.606C969.585 437.413 982.829 434.816 997.631 434.816C1010.88 434.816 1023.21 437.802 1034.64 443.775C1046.06 449.488 1054.76 457.149 1060.74 466.758V355.74H1098.52V634.258H1060.74V605.043C1054.76 614.651 1046.06 622.442 1034.64 628.415C1023.21 634.388 1010.75 637.374 997.242 637.374ZM1003.47 604.264C1012.56 604.264 1020.74 602.705 1028.02 599.589C1035.29 596.213 1041.65 591.539 1047.1 585.566C1052.56 579.593 1056.58 572.452 1059.18 564.141C1062.03 555.831 1063.46 546.483 1063.46 536.095C1063.46 515.579 1058.01 499.089 1047.1 486.624C1036.2 474.159 1021.65 467.926 1003.47 467.926C994.385 467.926 986.075 469.614 978.544 472.99C971.273 476.106 964.91 480.651 959.457 486.624C954.263 492.597 950.238 499.738 947.381 508.048C944.525 516.358 943.096 525.707 943.096 536.095C943.096 556.61 948.55 573.101 959.457 585.566C970.624 598.031 985.296 604.264 1003.47 604.264ZM1226.45 637.374C1206.72 637.374 1189.19 633.089 1173.87 624.519C1158.8 615.69 1146.86 603.614 1138.03 588.293C1129.46 572.971 1125.17 555.572 1125.17 536.095C1125.17 516.358 1129.46 498.959 1138.03 483.897C1146.86 468.575 1158.8 456.63 1173.87 448.06C1189.19 439.23 1206.72 434.816 1226.45 434.816C1245.93 434.816 1263.2 439.23 1278.26 448.06C1293.58 456.63 1305.53 468.575 1314.1 483.897C1322.93 498.959 1327.34 516.358 1327.34 536.095C1327.34 555.572 1322.93 572.971 1314.1 588.293C1305.53 603.614 1293.58 615.69 1278.26 624.519C1263.2 633.089 1245.93 637.374 1226.45 637.374ZM1226.45 604.264C1238.92 604.264 1249.83 601.407 1259.17 595.694C1268.52 589.721 1275.79 581.671 1280.99 571.543C1286.18 561.155 1288.78 549.339 1288.78 536.095C1288.78 522.851 1286.18 511.165 1280.99 501.037C1275.79 490.649 1268.52 482.599 1259.17 476.886C1249.83 470.913 1238.92 467.926 1226.45 467.926C1213.99 467.926 1202.95 470.913 1193.34 476.886C1183.99 482.599 1176.72 490.649 1171.53 501.037C1166.33 511.165 1163.74 522.851 1163.74 536.095C1163.74 549.339 1166.33 561.155 1171.53 571.543C1176.72 581.671 1183.99 589.721 1193.34 595.694C1202.95 601.407 1213.99 604.264 1226.45 604.264ZM1353.74 634.258V437.932H1391.53V472.601C1396.72 460.395 1404.9 451.046 1416.07 444.554C1427.24 438.062 1440.09 434.816 1454.63 434.816C1469.43 434.816 1482.29 438.192 1493.2 444.944C1504.36 451.436 1512.93 460.655 1518.91 472.601C1524.88 484.287 1527.87 497.92 1527.87 513.502V634.258H1490.08V520.903C1490.08 505.322 1485.93 492.727 1477.62 483.118C1469.3 473.51 1458.14 468.705 1444.12 468.705C1433.99 468.705 1424.9 471.302 1416.85 476.496C1408.8 481.43 1402.56 488.312 1398.15 497.141C1393.74 505.971 1391.53 516.229 1391.53 527.915V634.258H1353.74Z" fill="black"/>
<path d="M381.993 1978.08C365.977 1978.08 351.863 1975.08 339.652 1969.07C327.64 1963.07 318.231 1954.36 311.424 1942.95C304.617 1931.54 301.214 1917.92 301.214 1902.11V1765.47H331.243V1903.01C331.243 1913.02 333.345 1921.63 337.549 1928.83C341.954 1935.84 347.86 1941.15 355.267 1944.75C362.874 1948.35 371.783 1950.15 381.993 1950.15C397.208 1950.15 409.42 1946.05 418.629 1937.84C428.038 1929.63 432.743 1918.02 432.743 1903.01V1765.47H462.472V1902.11C462.472 1917.92 459.068 1931.54 452.262 1942.95C445.655 1954.36 436.246 1963.07 424.034 1969.07C412.022 1975.08 398.009 1978.08 381.993 1978.08ZM527.807 1975.68H496.576V1765.47H527.807V1975.68ZM516.095 1875.38L620.297 1765.47H659.636L517.897 1915.02L516.095 1875.38ZM573.752 1840.85L668.344 1975.68H630.207L552.13 1863.07L573.752 1840.85Z" fill="black"/>
<path d="M3234.95 1976.72H3270.22C3270.22 1931.95 3246.33 1892.76 3210.61 1871.2C3246.33 1849.64 3270.22 1810.45 3270.22 1765.68H3234.95C3234.95 1808.04 3204.6 1843.48 3164.7 1851.79V1765.68H3129.43V1851.79C3089.35 1843.63 3059.18 1808.18 3059.18 1765.68H3023.91C3023.91 1810.45 3047.8 1849.64 3083.53 1871.2C3047.8 1892.76 3023.91 1931.95 3023.91 1976.72H3059.18C3059.18 1934.22 3089.35 1898.77 3129.43 1890.6V1976.75H3164.7V1890.6C3204.79 1898.77 3234.95 1934.22 3234.95 1976.72Z" fill="black"/>
<path d="M1904.1 1975.68H1879.92V1853.47H1669.07V1975.68H1644.9V1719.17H1640.2C1633.52 1719.17 1628.11 1713.77 1628.11 1707.08V1438.49C1628.11 1431.8 1633.52 1426.4 1640.2 1426.4H1644.9V1337.76C1644.9 1334.54 1646.18 1331.48 1648.43 1329.23L1712.05 1265.61V1169.89C1712.05 1168.44 1712.32 1167 1712.82 1165.66L1762.41 1033.4V968.438H1786.59V1033.4L1836.18 1165.66C1836.71 1167 1836.95 1168.44 1836.95 1169.89V1265.61L1900.57 1329.23C1902.82 1331.48 1904.1 1334.57 1904.1 1337.76V1426.4H1908.8C1915.48 1426.4 1920.89 1431.8 1920.89 1438.49V1707.08C1920.89 1713.77 1915.48 1719.17 1908.8 1719.17H1904.1V1975.68ZM1853.74 1829.3H1879.89V1719.17H1669.04V1829.26H1695.23V1740.66H1719.4V1829.3H1762.38V1740.66H1786.55V1829.3H1829.53V1740.66H1853.74V1829.3ZM1652.29 1695H1896.71V1450.57H1652.29V1695ZM1853.74 1426.4H1879.89V1349.85H1669.04V1426.4H1695.23V1371.34H1719.4V1426.4H1762.38V1371.34H1786.55V1426.4H1829.53V1371.34H1853.74V1426.4ZM1686.16 1325.67H1862.84L1819.86 1282.7H1729.14L1686.16 1325.67ZM1786.59 1258.52H1812.77V1181.97H1736.22V1258.52H1762.41V1203.46H1786.59V1258.52ZM1741.6 1157.8H1807.44L1774.5 1070L1741.6 1157.8ZM1853.74 1975.68H1829.56V1874.96H1853.77L1853.74 1975.68ZM1786.59 1975.68H1762.41V1874.96H1786.59V1975.68ZM1719.44 1975.68H1695.26V1874.96H1719.44V1975.68ZM1774.5 1643.63C1726.19 1643.63 1686.87 1604.31 1686.87 1556C1686.87 1507.68 1726.19 1468.37 1774.5 1468.37C1822.81 1468.37 1862.13 1507.65 1862.13 1556C1862.13 1604.34 1822.81 1643.63 1774.5 1643.63ZM1774.5 1492.54C1739.51 1492.54 1711.04 1521.01 1711.04 1556C1711.04 1590.98 1739.51 1619.45 1774.5 1619.45C1809.48 1619.45 1837.96 1590.98 1837.96 1556C1837.96 1521.01 1809.48 1492.54 1774.5 1492.54ZM1824.86 1568.08H1774.5C1771.28 1568.08 1768.22 1566.81 1765.94 1564.53C1763.69 1562.28 1762.41 1559.19 1762.41 1555.96L1762.48 1505.6L1786.65 1505.63L1786.59 1543.91H1824.86V1568.08Z" fill="black"/>
</svg>
