<svg width="3549" height="2303" viewBox="0 0 3549 2303" fill="none" xmlns="http://www.w3.org/2000/svg">
<rect x="16" y="16" width="3517" height="2271" rx="1135.5" stroke="black" stroke-width="32"/>
<path d="M1158.16 634.258V361.583H1208.02L1294.89 578.944L1381.76 361.583H1431.62V634.258H1392.66V431.31L1311.25 634.258H1278.53L1196.73 431.31V634.258H1158.16ZM1552.56 637.374C1532.83 637.374 1515.95 632.959 1501.92 624.13C1488.16 615.3 1477.64 603.355 1470.37 588.293C1463.1 572.971 1459.47 555.572 1459.47 536.095C1459.47 521.552 1461.54 508.178 1465.7 495.973C1469.85 483.508 1475.83 472.73 1483.62 463.641C1491.41 454.552 1501.02 447.541 1512.44 442.606C1524.13 437.413 1537.37 434.816 1552.17 434.816C1564.9 434.816 1576.98 437.542 1588.4 442.996C1599.83 448.449 1608.79 455.461 1615.28 464.031V437.932H1653.06V634.258H1615.28V607.769C1611.38 613.742 1606.19 618.936 1599.7 623.351C1593.47 627.766 1586.32 631.271 1578.27 633.868C1570.22 636.205 1561.65 637.374 1552.56 637.374ZM1558.02 604.264C1567.11 604.264 1575.29 602.705 1582.56 599.589C1589.83 596.213 1596.19 591.539 1601.65 585.566C1607.1 579.593 1611.12 572.452 1613.72 564.141C1616.58 555.831 1618.01 546.483 1618.01 536.095C1618.01 515.579 1612.55 499.089 1601.65 486.624C1590.74 474.159 1576.2 467.926 1558.02 467.926C1548.93 467.926 1540.62 469.614 1533.09 472.99C1525.82 476.106 1519.45 480.651 1514 486.624C1508.81 492.597 1504.78 499.738 1501.92 508.048C1499.07 516.358 1497.64 525.707 1497.64 536.095C1497.64 556.61 1503.09 573.101 1514 585.566C1525.17 598.031 1539.84 604.264 1558.02 604.264ZM1692.96 634.258V355.74H1730.75V634.258H1692.96ZM1850.83 637.374C1831.1 637.374 1814.22 632.959 1800.19 624.13C1786.43 615.3 1775.91 603.355 1768.64 588.293C1761.37 572.971 1757.73 555.572 1757.73 536.095C1757.73 521.552 1759.81 508.178 1763.97 495.973C1768.12 483.508 1774.09 472.73 1781.89 463.641C1789.68 454.552 1799.28 447.541 1810.71 442.606C1822.4 437.413 1835.64 434.816 1850.44 434.816C1863.17 434.816 1875.24 437.542 1886.67 442.996C1898.1 448.449 1907.06 455.461 1913.55 464.031V437.932H1951.33V634.258H1913.55V607.769C1909.65 613.742 1904.46 618.936 1897.97 623.351C1891.73 627.766 1884.59 631.271 1876.54 633.868C1868.49 636.205 1859.92 637.374 1850.83 637.374ZM1856.29 604.264C1865.38 604.264 1873.56 602.705 1880.83 599.589C1888.1 596.213 1894.46 591.539 1899.91 585.566C1905.37 579.593 1909.39 572.452 1911.99 564.141C1914.85 555.831 1916.27 546.483 1916.27 536.095C1916.27 515.579 1910.82 499.089 1899.91 486.624C1889.01 474.159 1874.46 467.926 1856.29 467.926C1847.2 467.926 1838.89 469.614 1831.36 472.99C1824.08 476.106 1817.72 480.651 1812.27 486.624C1807.07 492.597 1803.05 499.738 1800.19 508.048C1797.34 516.358 1795.91 525.707 1795.91 536.095C1795.91 556.61 1801.36 573.101 1812.27 585.566C1823.44 598.031 1838.11 604.264 1856.29 604.264ZM2004.86 713.723V682.171H2095.63C2107.05 682.171 2116.4 678.405 2123.67 670.874C2130.94 663.343 2134.58 653.475 2134.58 641.269V609.328C2129.64 617.638 2121.33 624.39 2109.65 629.583C2098.22 634.777 2085.37 637.374 2071.08 637.374C2051.61 637.374 2034.99 632.959 2021.22 624.13C2007.46 615.3 1996.94 603.355 1989.67 588.293C1982.4 572.971 1978.76 555.572 1978.76 536.095C1978.76 521.552 1980.84 508.178 1985 495.973C1989.15 483.508 1995.13 472.73 2002.92 463.641C2010.71 454.552 2020.32 447.541 2031.74 442.606C2043.43 437.413 2056.67 434.816 2071.47 434.816C2080.04 434.816 2088.35 436.114 2096.4 438.711C2104.45 441.048 2111.73 444.424 2118.22 448.839C2124.97 453.254 2130.42 458.318 2134.58 464.031V437.932H2172.36V643.607C2172.36 657.63 2169.38 669.835 2163.4 680.223C2157.43 690.87 2148.99 699.051 2138.08 704.764C2127.18 710.737 2114.32 713.723 2099.52 713.723H2004.86ZM2077.32 604.264C2089.52 604.264 2100.04 601.407 2108.87 595.694C2117.96 589.981 2124.97 582.06 2129.9 571.932C2134.84 561.804 2137.31 549.858 2137.31 536.095C2137.31 515.579 2131.85 499.089 2120.95 486.624C2110.04 474.159 2095.5 467.926 2077.32 467.926C2068.23 467.926 2059.92 469.614 2052.39 472.99C2045.12 476.106 2038.75 480.651 2033.3 486.624C2028.11 492.597 2024.08 499.738 2021.22 508.048C2018.37 516.358 2016.94 525.707 2016.94 536.095C2016.94 556.61 2022.39 573.101 2033.3 585.566C2044.47 598.031 2059.14 604.264 2077.32 604.264ZM2292.89 637.374C2273.16 637.374 2256.28 632.959 2242.25 624.13C2228.49 615.3 2217.97 603.355 2210.7 588.293C2203.43 572.971 2199.8 555.572 2199.8 536.095C2199.8 521.552 2201.87 508.178 2206.03 495.973C2210.18 483.508 2216.16 472.73 2223.95 463.641C2231.74 454.552 2241.35 447.541 2252.77 442.606C2264.46 437.413 2277.7 434.816 2292.51 434.816C2305.23 434.816 2317.31 437.542 2328.73 442.996C2340.16 448.449 2349.12 455.461 2355.61 464.031V437.932H2393.39V634.258H2355.61V607.769C2351.71 613.742 2346.52 618.936 2340.03 623.351C2333.8 627.766 2326.65 631.271 2318.6 633.868C2310.55 636.205 2301.98 637.374 2292.89 637.374ZM2298.35 604.264C2307.44 604.264 2315.62 602.705 2322.89 599.589C2330.16 596.213 2336.52 591.539 2341.98 585.566C2347.43 579.593 2351.45 572.452 2354.05 564.141C2356.91 555.831 2358.34 546.483 2358.34 536.095C2358.34 515.579 2352.88 499.089 2341.98 486.624C2331.07 474.159 2316.53 467.926 2298.35 467.926C2289.26 467.926 2280.95 469.614 2273.42 472.99C2266.15 476.106 2259.78 480.651 2254.33 486.624C2249.14 492.597 2245.11 499.738 2242.25 508.048C2239.4 516.358 2237.97 525.707 2237.97 536.095C2237.97 556.61 2243.42 573.101 2254.33 585.566C2265.5 598.031 2280.17 604.264 2298.35 604.264Z" fill="black"/>
<path d="M340.826 1255.96V1045.76H475.658V1073.38H372.057V1133.74H455.839V1161.37H372.057V1228.33H478.961V1255.96H340.826ZM570.595 1258.36C553.979 1258.36 539.765 1255.46 527.954 1249.65C516.142 1243.65 507.033 1235.24 500.627 1224.43C494.221 1213.62 490.617 1200.91 489.816 1186.29H520.146C521.347 1199.91 526.052 1210.72 534.26 1218.72C542.468 1226.73 554.58 1230.74 570.595 1230.74C579.404 1230.74 587.212 1229.64 594.018 1227.43C600.825 1225.03 606.13 1221.43 609.934 1216.62C613.738 1211.62 615.64 1205.31 615.64 1197.7C615.64 1190.1 613.437 1184.09 609.033 1179.69C604.829 1175.28 599.123 1171.78 591.916 1169.18C584.909 1166.57 577.102 1164.27 568.493 1162.27C560.085 1160.27 551.577 1157.97 542.968 1155.36C534.56 1152.76 526.753 1149.36 519.546 1145.15C512.539 1140.95 506.833 1135.34 502.429 1128.34C498.225 1121.13 496.123 1111.92 496.123 1100.71C496.123 1089.1 499.226 1079.09 505.432 1070.68C511.638 1062.07 520.146 1055.36 530.957 1050.56C541.767 1045.76 554.179 1043.35 568.193 1043.35C582.607 1043.35 595.22 1045.96 606.03 1051.16C617.041 1056.37 625.749 1063.67 632.156 1073.08C638.762 1082.49 642.466 1093.7 643.267 1106.71H612.937C611.936 1095.9 607.432 1087.3 599.424 1080.89C591.616 1074.28 581.206 1070.98 568.193 1070.98C559.785 1070.98 552.478 1072.18 546.272 1074.58C540.266 1076.99 535.661 1080.39 532.458 1084.79C529.255 1089.2 527.653 1094.4 527.653 1100.41C527.653 1108.02 529.756 1114.02 533.96 1118.43C538.364 1122.63 544.07 1126.03 551.076 1128.64C558.283 1131.04 566.191 1133.14 574.8 1134.94C583.408 1136.74 591.916 1138.95 600.325 1141.55C608.933 1143.95 616.741 1147.25 623.747 1151.46C630.955 1155.66 636.66 1161.47 640.864 1168.88C645.269 1176.08 647.471 1185.59 647.471 1197.4C647.471 1210.22 644.167 1221.23 637.561 1230.44C631.155 1239.44 622.146 1246.35 610.535 1251.16C598.923 1255.96 585.61 1258.36 570.595 1258.36Z" fill="black"/>
<path d="M3197.93 1257H3233.2C3233.2 1212.23 3209.31 1173.04 3173.58 1151.48C3209.31 1129.92 3233.2 1090.73 3233.2 1045.96H3197.93C3197.93 1088.32 3167.57 1123.77 3127.68 1132.07V1045.96H3092.41V1132.07C3052.33 1123.91 3022.16 1088.46 3022.16 1045.96H2986.89C2986.89 1090.73 3010.78 1129.92 3046.51 1151.48C3010.78 1173.04 2986.89 1212.23 2986.89 1257H3022.16C3022.16 1214.5 3052.33 1179.05 3092.41 1170.88V1257.04H3127.68V1170.88C3167.76 1179.05 3197.93 1214.5 3197.93 1257Z" fill="black"/>
<g filter="url(#filter0_d_875_2331)">
<path fill-rule="evenodd" clip-rule="evenodd" d="M2297.13 1392.75C2267.48 1392.12 2234.35 1395.28 2211.67 1390.27C2184.73 1384.33 2127.82 1381.31 2112.89 1366.36C2097.89 1351.44 2073.96 1339.46 2073.96 1357.33C2073.96 1375.42 2032.05 1378.37 2008.13 1363.34C1984.14 1348.35 1945.28 1336.51 1927.3 1324.44C1917.81 1318.18 1898.4 1310.19 1879.95 1300.99C1854.99 1305.85 1783.26 1279.49 1736.02 1285.32C1685.58 1291.43 1524.37 1277.89 1461.63 1282.87C1398.93 1287.77 1395.2 1257.04 1360.75 1257.04C1326.34 1257.04 1341.09 1298.78 1291.9 1300.03C1242.66 1301.31 1237.83 1332 1273.41 1360.35C1293.71 1376.48 1291.26 1410.41 1288.41 1441.61C1298.61 1440.33 1306.15 1437.52 1310.56 1432.15C1325.49 1414.28 1340.45 1417.13 1340.45 1435.17C1340.45 1453.19 1373.37 1447.18 1391.36 1447.18C1409.31 1447.18 1403.3 1462.18 1424.31 1447.18C1445.21 1432.15 1475.21 1438.19 1475.21 1456.14C1475.21 1474.08 1520.07 1465.09 1496.15 1489.07C1472.19 1512.98 1442.19 1519.02 1442.19 1536.89C1442.19 1554.9 1469.17 1593.73 1448.16 1614.66C1427.29 1635.66 1454.2 1671.58 1433.3 1671.58C1412.29 1671.58 1388.33 1680.49 1412.29 1704.44C1436.29 1728.46 1454.2 1749.38 1436.29 1749.38C1418.3 1749.38 1406.32 1785.3 1415.31 1794.29C1424.31 1803.24 1466.22 1830.21 1433.34 1836.14C1400.35 1842.14 1400.35 1869.04 1400.35 1887.05C1400.35 1893.73 1405.68 1903.82 1412.44 1914.09C1427.72 1911.39 1442.79 1910.93 1456.69 1917.39C1491.14 1933.34 1511.08 2019.04 1557.54 2013.28C1577.27 2010.79 1567.42 1996.09 1577.27 1986.14C1587.15 1976.37 1605.53 1983.79 1625.25 1983.79C1644.88 1983.79 1654.79 1955.44 1701.47 1954.27C1748.25 1953.06 1777.79 1949.26 1807.29 1950.57C1836.83 1951.78 1860.22 1941.94 1867.54 1921.05C1874.9 1900.16 1899.57 1881.76 1932.77 1876.82C1965.97 1871.88 1961.07 1837.45 1963.48 1817.84C1965.97 1798.13 2021.35 1768.57 2024.98 1753.86C2028.71 1739.04 1992.95 1682.52 2026.19 1632.1C2059.42 1581.69 2095.11 1579.27 2095.11 1550.96C2095.11 1525.06 2129.56 1515.36 2171.4 1510.32C2213.23 1505.48 2226.74 1477.17 2262.47 1462.39C2292.5 1449.92 2303.17 1427.89 2297.13 1392.75Z" stroke="black" stroke-width="31"/>
</g>
<defs>
<filter id="filter0_d_875_2331" x="1230.74" y="1239.54" width="1087.51" height="795.523" filterUnits="userSpaceOnUse" color-interpolation-filters="sRGB">
<feFlood flood-opacity="0" result="BackgroundImageFix"/>
<feColorMatrix in="SourceAlpha" type="matrix" values="0 0 0 0 0 0 0 0 0 0 0 0 0 0 0 0 0 0 127 0" result="hardAlpha"/>
<feOffset dy="2"/>
<feGaussianBlur stdDeviation="2"/>
<feColorMatrix type="matrix" values="0 0 0 0 0 0 0 0 0 0 0 0 0 0 0 0 0 0 0.01 0"/>
<feBlend mode="normal" in2="BackgroundImageFix" result="effect1_dropShadow_875_2331"/>
<feBlend mode="normal" in="SourceGraphic" in2="effect1_dropShadow_875_2331" result="shape"/>
</filter>
</defs>
</svg>
