<svg width="3549" height="2303" viewBox="0 0 3549 2303" fill="none" xmlns="http://www.w3.org/2000/svg">
<rect x="16" y="16" width="3517" height="2271" rx="408" stroke="black" stroke-width="32"/>
<path d="M309.609 634.258V361.583H354.795L486.068 571.543V361.583H526.58V634.258H481.783L350.12 424.688V634.258H309.609ZM651.615 637.374C636.553 637.374 622.919 634.647 610.713 629.194C598.508 623.74 588.12 616.209 579.551 606.601C571.24 596.992 564.748 586.085 560.074 573.88C555.659 561.415 553.452 548.43 553.452 534.926C553.452 521.163 555.529 508.308 559.684 496.362C563.839 484.157 569.942 473.51 577.992 464.42C586.303 455.072 596.301 447.8 607.987 442.606C619.673 437.413 633.047 434.816 648.109 434.816C663.171 434.816 676.415 437.283 687.841 442.217C699.527 447.151 709.266 454.033 717.057 462.862C724.847 471.432 730.69 481.3 734.586 492.467C738.741 503.634 740.818 515.45 740.818 527.915C740.818 530.512 740.688 533.238 740.429 536.095C740.429 538.951 740.299 541.289 740.039 543.107H575.266V513.891H702.644C701.605 498.829 696.281 487.013 686.673 478.444C677.064 469.614 664.21 465.199 648.109 465.199C639.02 465.199 630.839 466.758 623.568 469.874C616.297 472.73 610.194 477.145 605.26 483.118C600.326 488.831 596.56 495.973 593.963 504.543C591.366 513.112 590.068 523.11 590.068 534.537C590.068 548.3 592.665 560.506 597.859 571.153C603.053 581.8 610.194 590.11 619.283 596.083C628.632 602.056 639.409 605.043 651.615 605.043C666.157 605.043 677.973 602.056 687.062 596.083C696.151 590.11 701.995 581.541 704.591 570.374H742.376C740.299 583.878 735.105 595.694 726.795 605.822C718.485 615.69 707.967 623.481 695.243 629.194C682.518 634.647 667.975 637.374 651.615 637.374ZM807.697 634.258L746.929 437.932H784.714L825.226 584.008L869.633 437.932H905.47L949.487 584.008L989.61 437.932H1027.78L967.017 634.258H931.958L887.551 487.793L842.755 634.258H807.697ZM1193.82 634.258V520.513L1098.38 361.583H1143.18L1214.07 481.949L1284.97 361.583H1329.77L1234.33 520.513V634.258H1193.82ZM1393.16 637.374C1373.42 637.374 1355.89 633.089 1340.57 624.519C1325.51 615.69 1313.56 603.614 1304.73 588.293C1296.16 572.971 1291.88 555.572 1291.88 536.095C1291.88 516.358 1296.16 498.959 1304.73 483.897C1313.56 468.575 1325.51 456.63 1340.57 448.06C1355.89 439.23 1373.42 434.816 1393.16 434.816C1412.64 434.816 1429.91 439.23 1444.97 448.06C1460.29 456.63 1472.23 468.575 1480.8 483.897C1489.63 498.959 1494.05 516.358 1494.05 536.095C1494.05 555.572 1489.63 572.971 1480.8 588.293C1472.23 603.614 1460.29 615.69 1444.97 624.519C1429.91 633.089 1412.64 637.374 1393.16 637.374ZM1393.16 604.264C1405.62 604.264 1416.53 601.407 1425.88 595.694C1435.23 589.721 1442.5 581.671 1447.69 571.543C1452.89 561.155 1455.48 549.339 1455.48 536.095C1455.48 522.851 1452.89 511.165 1447.69 501.037C1442.5 490.649 1435.23 482.599 1425.88 476.886C1416.53 470.913 1405.62 467.926 1393.16 467.926C1380.69 467.926 1369.66 470.913 1360.05 476.886C1350.7 482.599 1343.43 490.649 1338.23 501.037C1333.04 511.165 1330.44 522.851 1330.44 536.095C1330.44 549.339 1333.04 561.155 1338.23 571.543C1343.43 581.671 1350.7 589.721 1360.05 595.694C1369.66 601.407 1380.69 604.264 1393.16 604.264ZM1520.45 634.258V437.932H1558.23V475.717C1562.65 462.473 1569.01 452.864 1577.32 446.891C1585.63 440.918 1596.67 437.932 1610.43 437.932H1634.19V470.653H1605.76C1593.81 470.653 1584.33 473.899 1577.32 480.391C1570.57 486.884 1565.63 495.713 1562.52 506.88C1559.66 518.046 1558.23 530.901 1558.23 545.444V634.258H1520.45ZM1678.59 573.101L1678.98 525.967L1774.81 437.932H1823.89L1678.59 573.101ZM1651.32 634.258V355.74H1689.11V634.258H1651.32ZM1784.54 634.258L1705.47 527.915L1736.63 508.438L1831.29 634.258H1784.54ZM2037.67 637.374C2020.27 637.374 2003.52 634.518 1987.42 628.804C1971.58 622.831 1957.3 614.132 1944.57 602.705C1932.11 591.279 1922.24 576.866 1914.97 559.467C1907.95 541.808 1904.45 521.293 1904.45 497.92C1904.45 479.223 1906.79 462.473 1911.46 447.67C1916.13 432.608 1922.63 419.494 1930.94 408.327C1939.51 397.161 1949.38 387.942 1960.54 380.67C1971.97 373.399 1984.17 367.945 1997.16 364.31C2010.4 360.414 2023.91 358.467 2037.67 358.467C2058.19 358.467 2076.88 362.362 2093.76 370.153C2110.9 377.944 2124.93 388.721 2135.83 402.484C2146.74 415.988 2153.36 431.57 2155.7 449.229H2113.24C2111.94 438.581 2107.66 429.103 2100.38 420.792C2093.37 412.482 2084.41 405.99 2073.51 401.316C2062.6 396.641 2050.52 394.304 2037.28 394.304C2026.89 394.304 2017.02 395.732 2007.68 398.589C1998.33 401.445 1989.89 405.73 1982.36 411.444C1974.82 417.157 1968.33 424.168 1962.88 432.478C1957.43 440.789 1953.14 450.397 1950.02 461.304C1947.17 472.211 1945.74 484.417 1945.74 497.92C1945.74 520.513 1949.63 539.471 1957.43 554.793C1965.48 570.114 1976.38 581.8 1990.15 589.851C2004.17 597.641 2020.01 601.537 2037.67 601.537C2051.17 601.537 2063.38 599.2 2074.29 594.525C2085.45 589.851 2094.54 583.359 2101.55 575.048C2108.57 566.738 2112.72 557.26 2114.02 546.612H2155.31C2153.49 564.271 2147.13 579.983 2136.22 593.746C2125.57 607.25 2111.68 617.897 2094.54 625.688C2077.66 633.479 2058.7 637.374 2037.67 637.374ZM2181.65 634.258V437.932H2219.44V634.258H2181.65ZM2179.32 355.74H2221.39V403.263H2179.32V355.74ZM2341.08 634.258C2321.09 634.258 2305.12 628.674 2293.17 617.508C2281.49 606.081 2275.64 590.24 2275.64 569.984V470.653H2235.52V437.932H2275.64V376.385H2313.43V437.932H2371.47V470.653H2313.43V568.816C2313.43 579.203 2316.15 587.254 2321.61 592.967C2327.06 598.68 2334.46 601.537 2343.81 601.537H2371.47V634.258H2341.08ZM2389.68 713.723V682.171H2411.11C2416.04 682.171 2420.72 680.483 2425.13 677.107C2429.55 673.731 2433.44 666.979 2436.82 656.851L2444.22 635.426L2371.77 437.932H2410.72L2462.14 586.734L2513.95 437.932H2552.9L2481.23 633.479L2471.1 662.694C2467.2 673.341 2462.79 682.43 2457.85 689.961C2452.92 697.492 2446.95 703.335 2439.93 707.49C2433.18 711.646 2424.48 713.723 2413.84 713.723H2389.68Z" fill="black"/>
<path d="M381.994 1978.08C365.978 1978.08 351.864 1975.08 339.652 1969.07C327.641 1963.07 318.232 1954.36 311.425 1942.95C304.618 1931.54 301.215 1917.92 301.215 1902.11V1765.47H331.244V1903.01C331.244 1913.02 333.346 1921.63 337.55 1928.83C341.955 1935.84 347.861 1941.15 355.268 1944.75C362.875 1948.35 371.784 1950.15 381.994 1950.15C397.209 1950.15 409.421 1946.05 418.63 1937.84C428.039 1929.63 432.744 1918.02 432.744 1903.01V1765.47H462.473V1902.11C462.473 1917.92 459.069 1931.54 452.263 1942.95C445.656 1954.36 436.247 1963.07 424.035 1969.07C412.023 1975.08 398.01 1978.08 381.994 1978.08ZM565.044 1978.08C548.428 1978.08 534.214 1975.18 522.402 1969.37C510.591 1963.37 501.482 1954.96 495.076 1944.15C488.669 1933.34 485.066 1920.63 484.265 1906.01H514.595C515.796 1919.62 520.5 1930.44 528.708 1938.44C536.917 1946.45 549.028 1950.46 565.044 1950.46C573.853 1950.46 581.66 1949.35 588.467 1947.15C595.274 1944.75 600.579 1941.15 604.383 1936.34C608.186 1931.34 610.088 1925.03 610.088 1917.42C610.088 1909.82 607.886 1903.81 603.482 1899.41C599.278 1895 593.572 1891.5 586.365 1888.89C579.358 1886.29 571.55 1883.99 562.942 1881.99C554.534 1879.99 546.025 1877.68 537.417 1875.08C529.009 1872.48 521.201 1869.08 513.994 1864.87C506.987 1860.67 501.282 1855.06 496.877 1848.05C492.673 1840.85 490.571 1831.64 490.571 1820.43C490.571 1808.82 493.674 1798.81 499.88 1790.4C506.086 1781.79 514.595 1775.08 525.405 1770.28C536.216 1765.47 548.628 1763.07 562.642 1763.07C577.056 1763.07 589.668 1765.67 600.479 1770.88C611.489 1776.08 620.198 1783.39 626.604 1792.8C633.211 1802.21 636.914 1813.42 637.715 1826.43H607.385C606.384 1815.62 601.88 1807.01 593.872 1800.61C586.065 1794 575.654 1790.7 562.642 1790.7C554.233 1790.7 546.926 1791.9 540.72 1794.3C534.714 1796.7 530.11 1800.11 526.907 1804.51C523.704 1808.92 522.102 1814.12 522.102 1820.13C522.102 1827.73 524.204 1833.74 528.408 1838.15C532.813 1842.35 538.518 1845.75 545.525 1848.36C552.732 1850.76 560.64 1852.86 569.248 1854.66C577.857 1856.46 586.365 1858.67 594.773 1861.27C603.382 1863.67 611.189 1866.97 618.196 1871.18C625.403 1875.38 631.109 1881.19 635.313 1888.59C639.717 1895.8 641.919 1905.31 641.919 1917.12C641.919 1929.93 638.616 1940.95 632.01 1950.15C625.603 1959.16 616.594 1966.07 604.983 1970.87C593.372 1975.68 580.059 1978.08 565.044 1978.08Z" fill="black"/>
<path d="M3234.95 1976.72H3270.22C3270.22 1931.95 3246.33 1892.76 3210.6 1871.2C3246.33 1849.64 3270.22 1810.45 3270.22 1765.68H3234.95C3234.95 1808.04 3204.6 1843.48 3164.7 1851.79V1765.68H3129.43V1851.79C3089.35 1843.63 3059.18 1808.18 3059.18 1765.68H3023.91C3023.91 1810.45 3047.8 1849.64 3083.53 1871.2C3047.8 1892.76 3023.91 1931.95 3023.91 1976.72H3059.18C3059.18 1934.22 3089.35 1898.77 3129.43 1890.6V1976.75H3164.7V1890.6C3204.78 1898.77 3234.95 1934.22 3234.95 1976.72Z" fill="black"/>
<path d="M1557.84 1179.58H1534.7V1247.99H1652.41M1557.84 1179.58C1562.2 1148.05 1583.19 1082.99 1632.28 1074.94C1693.65 1064.88 1660.45 1003.51 1639.33 1002.51M1557.84 1179.58H1639.33M1639.33 1179.58H1693.65V1247.99H1652.41M1639.33 1179.58C1637.99 1163.14 1646.97 1125.85 1693.65 1108.14M1652.41 1247.99V1446.18M1652.41 1446.18C1664.28 1500.07 1687.83 1619.24 1687.02 1664.75C1686.01 1721.64 1626.07 1738.91 1589.5 1738.91V1664.75M1652.41 1446.18H1589.5M1589.5 1500.18V1664.75M1589.5 1664.75L1517.93 1738.91L1569.2 1816.62C1569.53 1834.89 1569.11 1864.9 1566.74 1895.3M1823.05 1849.13C1813.82 1864 1803.2 1877.23 1791.57 1888.97M1566.74 1895.3C1564.4 1925.25 1560.18 1955.57 1552.94 1975.43C1606.5 1977.95 1718.71 1962.55 1791.57 1888.97M1566.74 1895.3C1608.82 1897.42 1702 1874.39 1738.01 1765.35M1791.57 1888.97C1807.9 1906.12 1851.31 1943.92 1894.32 1957.92M1995.61 1967.93L1938.09 1781.6L1858.06 1727.83V1675.31M1858.06 1675.31C1886.07 1661.31 1893.91 1632.8 1894.32 1620.29M1858.06 1675.31C1767.02 1683.76 1745.93 1642.15 1746.77 1620.29M1753.4 1562.48C1763.2 1566.4 1795.05 1565.3 1843.99 1529.53C1851.66 1540.51 1872.46 1564.59 1894.32 1573.06M1746.77 1493.06C1751.95 1484.76 1766.46 1471.15 1791.57 1462.44M1843.99 1454.23C1823.04 1454.23 1805.64 1457.57 1791.57 1462.44M1843.99 1454.23L1894.32 1308.92M1843.99 1454.23C1871.56 1454.23 1889.88 1461.06 1901.67 1469.89M2031.07 1500.18H1920.47C1919.85 1492.09 1914.84 1479.75 1901.67 1469.89M1791.57 1462.44L1746.77 1353.04M1901.67 1469.89L2006.36 1390.2M1597.96 1308.92V1390.2H1534.7V1308.92H1597.96Z" stroke="black" stroke-width="31"/>
</svg>
