<svg width="3549" height="2303" viewBox="0 0 3549 2303" fill="none" xmlns="http://www.w3.org/2000/svg">
<rect x="16" y="16" width="3517" height="2271" rx="112" stroke="black" stroke-width="32"/>
<path d="M380.993 573.66C364.977 573.66 350.863 570.657 338.652 564.651C326.64 558.645 317.231 549.937 310.424 538.526C303.617 527.115 300.214 513.501 300.214 497.686V361.052H330.243V498.587C330.243 508.597 332.345 517.205 336.549 524.412C340.954 531.419 346.86 536.724 354.267 540.328C361.874 543.931 370.783 545.733 380.993 545.733C396.208 545.733 408.42 541.629 417.629 533.421C427.038 525.213 431.743 513.601 431.743 498.587V361.052H461.472V497.686C461.472 513.501 458.068 527.115 451.262 538.526C444.655 549.937 435.246 558.645 423.034 564.651C411.022 570.657 397.009 573.66 380.993 573.66ZM564.043 573.66C547.427 573.66 533.213 570.757 521.401 564.952C509.59 558.946 500.481 550.538 494.075 539.727C487.668 528.916 484.065 516.204 483.264 501.59H513.594C514.795 515.203 519.499 526.014 527.708 534.021C535.916 542.029 548.027 546.033 564.043 546.033C572.852 546.033 580.659 544.932 587.466 542.73C594.273 540.328 599.578 536.724 603.382 531.919C607.185 526.914 609.087 520.608 609.087 513.001C609.087 505.393 606.885 499.388 602.481 494.983C598.277 490.579 592.571 487.075 585.364 484.473C578.357 481.87 570.549 479.568 561.941 477.566C553.533 475.564 545.024 473.262 536.416 470.659C528.008 468.057 520.2 464.654 512.993 460.449C505.986 456.245 500.281 450.64 495.876 443.633C491.672 436.426 489.57 427.217 489.57 416.006C489.57 404.395 492.673 394.385 498.879 385.977C505.085 377.368 513.594 370.662 524.404 365.857C535.215 361.052 547.627 358.65 561.641 358.65C576.055 358.65 588.667 361.252 599.478 366.457C610.488 371.663 619.197 378.97 625.603 388.379C632.21 397.788 635.913 408.999 636.714 422.012H606.384C605.384 411.201 600.879 402.593 592.871 396.187C585.064 389.58 574.653 386.277 561.641 386.277C553.232 386.277 545.925 387.478 539.719 389.88C533.713 392.283 529.109 395.686 525.906 400.09C522.703 404.495 521.101 409.7 521.101 415.706C521.101 423.313 523.203 429.319 527.407 433.723C531.812 437.927 537.517 441.331 544.524 443.933C551.731 446.336 559.639 448.438 568.247 450.239C576.856 452.041 585.364 454.243 593.772 456.846C602.381 459.248 610.188 462.551 617.195 466.756C624.402 470.96 630.108 476.765 634.312 484.173C638.716 491.38 640.918 500.889 640.918 512.701C640.918 525.513 637.615 536.524 631.009 545.733C624.602 554.742 615.593 561.648 603.982 566.453C592.371 571.258 579.058 573.66 564.043 573.66Z" fill="black"/>
<path d="M3234.95 572.294H3270.22C3270.22 527.525 3246.33 488.335 3210.61 466.776C3246.33 445.217 3270.22 406.027 3270.22 361.258H3234.95C3234.95 403.622 3204.6 439.062 3164.7 447.372V361.258H3129.43V447.372C3089.35 439.207 3059.18 403.755 3059.18 361.258H3023.91C3023.91 406.027 3047.8 445.217 3083.53 466.776C3047.8 488.335 3023.91 527.525 3023.91 572.294H3059.18C3059.18 529.797 3089.35 494.345 3129.43 486.18V572.333H3164.7V486.18C3204.79 494.344 3234.95 529.797 3234.95 572.294Z" fill="black"/>
<path d="M397.969 1979.45C376.415 1979.45 357.977 1975.69 342.655 1968.16C327.333 1960.36 315.517 1949.46 307.207 1935.43C298.897 1921.41 294.223 1904.92 293.184 1885.96H332.527C334.085 1903.62 340.188 1917.65 350.835 1928.03C361.483 1938.42 377.194 1943.61 397.969 1943.61C409.395 1943.61 419.523 1942.19 428.353 1939.33C437.182 1936.21 444.064 1931.54 448.998 1925.31C453.932 1918.81 456.399 1910.63 456.399 1900.77C456.399 1890.9 453.543 1883.11 447.83 1877.39C442.376 1871.68 434.975 1867.14 425.626 1863.76C416.537 1860.38 406.409 1857.4 395.242 1854.8C384.335 1852.2 373.299 1849.22 362.132 1845.84C351.225 1842.47 341.097 1838.05 331.748 1832.6C322.659 1827.14 315.258 1819.87 309.545 1810.78C304.091 1801.43 301.364 1789.49 301.364 1774.95C301.364 1759.88 305.39 1746.9 313.44 1735.99C321.49 1724.83 332.527 1716.13 346.55 1709.89C360.574 1703.66 376.674 1700.54 394.853 1700.54C413.551 1700.54 429.911 1703.92 443.934 1710.67C458.217 1717.42 469.514 1726.9 477.824 1739.11C486.394 1751.31 491.198 1765.86 492.237 1782.74H452.894C451.595 1768.71 445.752 1757.55 435.364 1749.24C425.237 1740.67 411.733 1736.38 394.853 1736.38C383.946 1736.38 374.467 1737.94 366.417 1741.06C358.626 1744.17 352.653 1748.59 348.498 1754.3C344.343 1760.01 342.266 1766.77 342.266 1774.56C342.266 1784.42 344.992 1792.22 350.446 1797.93C356.159 1803.38 363.56 1807.8 372.649 1811.17C381.998 1814.29 392.256 1817.02 403.423 1819.35C414.589 1821.69 425.626 1824.55 436.533 1827.92C447.7 1831.04 457.828 1835.32 466.917 1840.78C476.266 1846.23 483.667 1853.76 489.12 1863.37C494.834 1872.72 497.69 1885.05 497.69 1900.38C497.69 1917 493.405 1931.28 484.835 1943.23C476.525 1954.91 464.839 1963.87 449.777 1970.1C434.715 1976.34 417.446 1979.45 397.969 1979.45ZM604.651 1979.45C584.915 1979.45 568.035 1975.04 554.011 1966.21C540.248 1957.38 529.73 1945.43 522.459 1930.37C515.188 1915.05 511.552 1897.65 511.552 1878.17C511.552 1863.63 513.63 1850.26 517.785 1838.05C521.94 1825.59 527.913 1814.81 535.703 1805.72C543.494 1796.63 553.103 1789.62 564.529 1784.68C576.215 1779.49 589.459 1776.89 604.262 1776.89C616.986 1776.89 629.062 1779.62 640.488 1785.07C651.915 1790.53 660.874 1797.54 667.366 1806.11V1780.01H705.151V1976.34H667.366V1949.85C663.471 1955.82 658.277 1961.01 651.785 1965.43C645.552 1969.84 638.411 1973.35 630.36 1975.95C622.31 1978.28 613.74 1979.45 604.651 1979.45ZM610.105 1946.34C619.194 1946.34 627.374 1944.78 634.645 1941.67C641.917 1938.29 648.279 1933.62 653.733 1927.64C659.186 1921.67 663.211 1914.53 665.808 1906.22C668.665 1897.91 670.093 1888.56 670.093 1878.17C670.093 1857.66 664.64 1841.17 653.733 1828.7C642.826 1816.24 628.283 1810 610.105 1810C601.015 1810 592.705 1811.69 585.174 1815.07C577.903 1818.18 571.541 1822.73 566.087 1828.7C560.893 1834.67 556.868 1841.82 554.011 1850.13C551.155 1858.44 549.727 1867.79 549.727 1878.17C549.727 1898.69 555.18 1915.18 566.087 1927.64C577.254 1940.11 591.926 1946.34 610.105 1946.34ZM745.048 1976.34V1780.01H782.833V1814.68C788.027 1802.47 796.207 1793.12 807.374 1786.63C818.54 1780.14 831.395 1776.89 845.938 1776.89C860.74 1776.89 873.595 1780.27 884.502 1787.02C895.668 1793.51 904.238 1802.73 910.211 1814.68C916.184 1826.36 919.17 1840 919.17 1855.58V1976.34H881.386V1862.98C881.386 1847.4 877.23 1834.8 868.92 1825.2C860.61 1815.59 849.444 1810.78 835.42 1810.78C825.292 1810.78 816.203 1813.38 808.153 1818.57C800.102 1823.51 793.87 1830.39 789.455 1839.22C785.04 1848.05 782.833 1858.31 782.833 1869.99V1976.34H745.048ZM1034.27 1976.34V1703.66H1209.17V1739.5H1074.78V1820.91H1183.46V1856.75H1074.78V1976.34H1034.27ZM1212.23 1976.34V1780.01H1250.02V1817.8C1254.43 1804.55 1260.79 1794.94 1269.1 1788.97C1277.41 1783 1288.45 1780.01 1302.21 1780.01H1325.98V1812.73H1297.54C1285.59 1812.73 1276.12 1815.98 1269.1 1822.47C1262.35 1828.96 1257.42 1837.79 1254.3 1848.96C1251.45 1860.12 1250.02 1872.98 1250.02 1887.52V1976.34H1212.23ZM1415.75 1979.45C1396.02 1979.45 1379.14 1975.04 1365.11 1966.21C1351.35 1957.38 1340.83 1945.43 1333.56 1930.37C1326.29 1915.05 1322.65 1897.65 1322.65 1878.17C1322.65 1863.63 1324.73 1850.26 1328.89 1838.05C1333.04 1825.59 1339.01 1814.81 1346.8 1805.72C1354.59 1796.63 1364.2 1789.62 1375.63 1784.68C1387.32 1779.49 1400.56 1776.89 1415.36 1776.89C1428.09 1776.89 1440.16 1779.62 1451.59 1785.07C1463.02 1790.53 1471.97 1797.54 1478.47 1806.11V1780.01H1516.25V1976.34H1478.47V1949.85C1474.57 1955.82 1469.38 1961.01 1462.89 1965.43C1456.65 1969.84 1449.51 1973.35 1441.46 1975.95C1433.41 1978.28 1424.84 1979.45 1415.75 1979.45ZM1421.21 1946.34C1430.29 1946.34 1438.47 1944.78 1445.75 1941.67C1453.02 1938.29 1459.38 1933.62 1464.83 1927.64C1470.29 1921.67 1474.31 1914.53 1476.91 1906.22C1479.77 1897.91 1481.19 1888.56 1481.19 1878.17C1481.19 1857.66 1475.74 1841.17 1464.83 1828.7C1453.93 1816.24 1439.38 1810 1421.21 1810C1412.12 1810 1403.81 1811.69 1396.28 1815.07C1389 1818.18 1382.64 1822.73 1377.19 1828.7C1371.99 1834.67 1367.97 1841.82 1365.11 1850.13C1362.26 1858.44 1360.83 1867.79 1360.83 1878.17C1360.83 1898.69 1366.28 1915.18 1377.19 1927.64C1388.35 1940.11 1403.03 1946.34 1421.21 1946.34ZM1556.15 1976.34V1780.01H1593.93V1814.68C1599.13 1802.47 1607.31 1793.12 1618.47 1786.63C1629.64 1780.14 1642.5 1776.89 1657.04 1776.89C1671.84 1776.89 1684.7 1780.27 1695.6 1787.02C1706.77 1793.51 1715.34 1802.73 1721.31 1814.68C1727.28 1826.36 1730.27 1840 1730.27 1855.58V1976.34H1692.49V1862.98C1692.49 1847.4 1688.33 1834.8 1680.02 1825.2C1671.71 1815.59 1660.54 1810.78 1646.52 1810.78C1636.39 1810.78 1627.3 1813.38 1619.25 1818.57C1611.2 1823.51 1604.97 1830.39 1600.56 1839.22C1596.14 1848.05 1593.93 1858.31 1593.93 1869.99V1976.34H1556.15ZM1851.43 1979.45C1830.91 1979.45 1813.38 1974.78 1798.84 1965.43C1784.3 1956.08 1773.26 1943.74 1765.73 1928.42C1758.2 1912.84 1754.43 1896.09 1754.43 1878.17C1754.43 1864.67 1756.51 1851.94 1760.67 1840C1765.08 1827.79 1771.44 1816.89 1779.75 1807.28C1788.06 1797.67 1798.19 1790.27 1810.14 1785.07C1822.34 1779.62 1836.11 1776.89 1851.43 1776.89C1867.01 1776.89 1881.29 1779.75 1894.28 1785.46C1907.52 1791.18 1918.43 1799.36 1927 1810C1935.83 1820.65 1941.02 1833.51 1942.58 1848.57H1904.8C1903.76 1841.04 1900.64 1834.42 1895.45 1828.7C1890.51 1822.99 1884.28 1818.44 1876.75 1815.07C1869.48 1811.69 1861.3 1810 1852.21 1810C1839.22 1810 1828.32 1813.12 1819.49 1819.35C1810.92 1825.59 1804.43 1833.77 1800.01 1843.89C1795.86 1854.02 1793.78 1865.45 1793.78 1878.17C1793.78 1890.64 1795.99 1902.06 1800.4 1912.45C1804.81 1922.58 1811.31 1930.76 1819.88 1936.99C1828.71 1943.23 1839.61 1946.34 1852.6 1946.34C1865.84 1946.34 1877.14 1943.1 1886.49 1936.6C1895.84 1929.85 1902.07 1921.02 1905.18 1910.11H1942.58C1940.5 1923.62 1935.44 1935.69 1927.39 1946.34C1919.34 1956.73 1908.82 1964.91 1895.84 1970.88C1883.11 1976.6 1868.31 1979.45 1851.43 1979.45ZM1968.16 1976.34V1780.01H2005.94V1976.34H1968.16ZM1965.82 1697.82H2007.89V1745.34H1965.82V1697.82ZM2110.06 1979.45C2094.22 1979.45 2080.58 1976.86 2069.16 1971.66C2057.73 1966.21 2048.77 1958.55 2042.28 1948.68C2036.05 1938.55 2032.28 1926.48 2030.98 1912.45H2065.65C2066.69 1923.88 2071.11 1932.84 2078.9 1939.33C2086.69 1945.56 2096.94 1948.68 2109.67 1948.68C2117.46 1948.68 2124.21 1947.51 2129.93 1945.17C2135.9 1942.84 2140.44 1939.46 2143.56 1935.05C2146.68 1930.63 2148.23 1925.57 2148.23 1919.85C2148.23 1912.84 2146.16 1907.52 2142 1903.88C2138.11 1900.25 2132.78 1897.52 2126.03 1895.7C2119.54 1893.88 2112.27 1892.46 2104.22 1891.42C2096.43 1890.12 2088.5 1888.56 2080.45 1886.74C2072.4 1884.92 2065 1882.2 2058.25 1878.56C2051.76 1874.67 2046.44 1869.34 2042.28 1862.59C2038.12 1855.58 2036.05 1846.49 2036.05 1835.32C2036.05 1823.9 2039.03 1813.77 2045.01 1804.94C2050.98 1796.11 2059.16 1789.23 2069.55 1784.29C2080.19 1779.36 2092.4 1776.89 2106.16 1776.89C2121.49 1776.89 2134.6 1779.36 2145.51 1784.29C2156.41 1788.97 2164.98 1795.98 2171.22 1805.33C2177.71 1814.42 2181.34 1825.33 2182.12 1838.05H2147.45C2146.94 1831.56 2144.86 1825.98 2141.22 1821.3C2137.59 1816.63 2132.78 1812.99 2126.81 1810.39C2120.84 1807.8 2114.08 1806.5 2106.55 1806.5C2096.94 1806.5 2088.63 1808.84 2081.62 1813.51C2074.61 1818.18 2071.11 1824.94 2071.11 1833.77C2071.11 1840.26 2073.05 1845.32 2076.95 1848.96C2081.1 1852.33 2086.56 1854.93 2093.31 1856.75C2100.06 1858.31 2107.46 1859.61 2115.51 1860.64C2123.56 1861.68 2131.48 1863.11 2139.27 1864.93C2147.32 1866.75 2154.73 1869.6 2161.48 1873.5C2168.23 1877.39 2173.55 1882.85 2177.45 1889.86C2181.6 1896.87 2183.68 1906.22 2183.68 1917.91C2183.68 1927.25 2181.99 1935.82 2178.62 1943.61C2175.24 1951.15 2170.31 1957.64 2163.82 1963.09C2157.58 1968.29 2149.92 1972.31 2140.83 1975.17C2131.74 1978.02 2121.49 1979.45 2110.06 1979.45ZM2295.41 1979.45C2274.89 1979.45 2257.36 1974.78 2242.82 1965.43C2228.28 1956.08 2217.24 1943.74 2209.71 1928.42C2202.18 1912.84 2198.41 1896.09 2198.41 1878.17C2198.41 1864.67 2200.49 1851.94 2204.65 1840C2209.06 1827.79 2215.42 1816.89 2223.73 1807.28C2232.04 1797.67 2242.17 1790.27 2254.12 1785.07C2266.32 1779.62 2280.09 1776.89 2295.41 1776.89C2310.99 1776.89 2325.27 1779.75 2338.26 1785.46C2351.5 1791.18 2362.41 1799.36 2370.98 1810C2379.81 1820.65 2385 1833.51 2386.56 1848.57H2348.77C2347.74 1841.04 2344.62 1834.42 2339.43 1828.7C2334.49 1822.99 2328.26 1818.44 2320.73 1815.07C2313.46 1811.69 2305.28 1810 2296.19 1810C2283.2 1810 2272.3 1813.12 2263.47 1819.35C2254.9 1825.59 2248.4 1833.77 2243.99 1843.89C2239.83 1854.02 2237.76 1865.45 2237.76 1878.17C2237.76 1890.64 2239.96 1902.06 2244.38 1912.45C2248.79 1922.58 2255.29 1930.76 2263.86 1936.99C2272.69 1943.23 2283.59 1946.34 2296.58 1946.34C2309.82 1946.34 2321.12 1943.1 2330.47 1936.6C2339.82 1929.85 2346.05 1921.02 2349.16 1910.11H2386.56C2384.48 1923.62 2379.42 1935.69 2371.37 1946.34C2363.32 1956.73 2352.8 1964.91 2339.82 1970.88C2327.09 1976.6 2312.29 1979.45 2295.41 1979.45ZM2500.17 1979.45C2480.44 1979.45 2462.91 1975.17 2447.59 1966.6C2432.52 1957.77 2420.58 1945.69 2411.75 1930.37C2403.18 1915.05 2398.89 1897.65 2398.89 1878.17C2398.89 1858.44 2403.18 1841.04 2411.75 1825.98C2420.58 1810.65 2432.52 1798.71 2447.59 1790.14C2462.91 1781.31 2480.44 1776.89 2500.17 1776.89C2519.65 1776.89 2536.92 1781.31 2551.98 1790.14C2567.3 1798.71 2579.25 1810.65 2587.82 1825.98C2596.65 1841.04 2601.06 1858.44 2601.06 1878.17C2601.06 1897.65 2596.65 1915.05 2587.82 1930.37C2579.25 1945.69 2567.3 1957.77 2551.98 1966.6C2536.92 1975.17 2519.65 1979.45 2500.17 1979.45ZM2500.17 1946.34C2512.64 1946.34 2523.54 1943.49 2532.89 1937.77C2542.24 1931.8 2549.51 1923.75 2554.71 1913.62C2559.9 1903.23 2562.5 1891.42 2562.5 1878.17C2562.5 1864.93 2559.9 1853.24 2554.71 1843.11C2549.51 1832.73 2542.24 1824.68 2532.89 1818.96C2523.54 1812.99 2512.64 1810 2500.17 1810C2487.71 1810 2476.67 1812.99 2467.06 1818.96C2457.71 1824.68 2450.44 1832.73 2445.25 1843.11C2440.05 1853.24 2437.46 1864.93 2437.46 1878.17C2437.46 1891.42 2440.05 1903.23 2445.25 1913.62C2450.44 1923.75 2457.71 1931.8 2467.06 1937.77C2476.67 1943.49 2487.71 1946.34 2500.17 1946.34Z" fill="black"/>
<path d="M2156.85 1158.07C2131.33 1147.67 2104.71 1142.39 2077.63 1142.39C2068.97 1142.39 2059.8 1143.42 2050.37 1144.66C1936.88 1000.12 1935.19 824.863 1935.19 823.095V815.492V730.617H1909.93V663.93H1891.71V730.617H1866.45V781.138H1825.03H1774.51H1723.99H1682.56V730.617H1657.3V663.93H1639.11V730.617H1613.85V815.492V823.12C1613.85 825.444 1611.3 1054.98 1440.64 1206.04C1424.9 1200.33 1410.66 1196.49 1396.74 1194.75C1391.79 1194.17 1387.21 1197.66 1386.58 1202.63C1385.98 1207.61 1389.51 1212.18 1394.49 1212.79C1408.59 1214.53 1422.96 1218.37 1439.71 1224.84C1461.13 1233.07 1479.97 1244.36 1496.21 1258.15C1486.18 1262.04 1476.36 1266.49 1466.96 1271.92C1462.62 1274.45 1461.13 1280 1463.65 1284.35C1465.34 1287.25 1468.4 1288.9 1471.53 1288.9C1473.07 1288.9 1474.64 1288.49 1476.08 1287.66C1490.2 1279.47 1505.21 1273.28 1520.69 1268.99C1523.44 1268.23 1526.25 1267.7 1529.03 1267.07C1534.51 1265.81 1540.01 1264.57 1545.47 1263.76C1549.69 1263.18 1553.98 1262.93 1558.28 1262.6C1562.22 1262.3 1566.16 1261.84 1570.07 1261.79C1587.05 1261.59 1604.05 1263.51 1620.67 1267.83H1620.7C1637.42 1272.15 1653.64 1278.84 1668.92 1287.73C1695.64 1303.27 1718.48 1325.09 1734.97 1350.86C1736.59 1353.41 1739.39 1354.98 1742.43 1355.05C1742.5 1355.05 1742.55 1355.05 1742.63 1355.05C1745.58 1355.05 1748.36 1353.61 1750.05 1351.21C1776.65 1313.6 1829.42 1300.67 1870.98 1324.94C1871.38 1325.17 1871.86 1324.94 1872.31 1325.12C1872.87 1325.62 1873.38 1326.18 1874.01 1326.53C1875.47 1327.44 1877.11 1327.92 1878.78 1327.92C1880.04 1327.92 1881.33 1327.64 1882.49 1327.11C1885.25 1325.88 1887.22 1323.38 1887.72 1320.37C1893.73 1285.69 1909.37 1253.18 1932.91 1226.33C1962.62 1192.5 2003.29 1170.02 2047.47 1163.1C2058.26 1161.41 2068.11 1160.57 2077.63 1160.57C2102.33 1160.57 2126.66 1165.37 2149.98 1174.87C2151.09 1175.35 2152.27 1175.55 2153.41 1175.55C2157 1175.55 2160.38 1173.41 2161.82 1169.87C2163.72 1165.3 2161.49 1159.99 2156.85 1158.07ZM1783.6 1203.49H1815.93V1235.8H1783.6V1203.49ZM1774.51 1185.3H1723.99H1682.56V1051.93H1723.99H1774.51H1825.03H1866.45V1185.3H1825.03H1774.51ZM1733.08 1203.49H1765.41V1235.8H1733.08V1203.49ZM1723.99 849.846H1774.51H1825.03H1866.45V983.22H1825.03H1774.51H1723.99H1682.56V849.846H1723.99ZM1834.12 1001.41H1866.43V1033.74H1834.12V1001.41ZM1783.6 1001.41H1815.93V1033.74H1783.6V1001.41ZM1733.08 1001.41H1765.41V1033.74H1733.08V1001.41ZM1682.56 1001.41H1714.89V1033.74H1682.56V1001.41ZM1682.56 1203.49H1714.89V1235.8H1682.56V1203.49ZM1834.12 1203.49H1866.43V1235.8H1834.12V1203.49ZM1866.45 831.658H1834.12V799.325H1866.43L1866.45 831.658ZM1815.93 831.658H1783.6V799.325H1815.93V831.658ZM1765.41 831.658H1733.08V799.325H1765.41V831.658ZM1714.89 799.325V831.658H1682.56V799.325H1714.89ZM1632.04 815.492V748.804H1664.37V790.231V840.752V992.314V1042.83V1194.4V1244.92V1265.25C1653.86 1260.12 1643.1 1255.78 1632.04 1252.5V815.492ZM1613.85 944.345V1248.05C1600.51 1245.37 1587.02 1243.73 1573.51 1243.65C1573.13 1243.6 1572.8 1243.43 1572.42 1243.43C1571.99 1243.43 1571.56 1243.5 1571.16 1243.5C1565.98 1243.53 1560.83 1244.16 1555.68 1244.56C1552.04 1244.87 1548.43 1244.87 1544.76 1245.37C1535.04 1246.66 1525.39 1248.5 1515.92 1251.13C1499.7 1235.77 1480.58 1223.27 1459.13 1213.49C1550.4 1129.6 1593.62 1024.52 1613.85 944.345ZM1743.18 1330.7C1726.97 1308.47 1706.18 1289.53 1682.56 1274.98V1254.01H1723.99H1774.51H1825.03H1866.45V1302.81C1823.49 1285.26 1773.47 1296.9 1743.18 1330.7ZM1884.64 1269.42V1244.92V1194.4V1042.83V992.314V840.752V790.231V748.804H1916.95V815.492V1217.31C1903.56 1233.12 1892.85 1250.73 1884.64 1269.42ZM1935.16 1198.26V947.098C1950.37 1006.69 1978.56 1079.61 2030.19 1148.09C1994.78 1156.25 1962.01 1173.61 1935.16 1198.26Z" fill="black" stroke="black" stroke-width="5"/>
</svg>
