<svg width="59" height="24" viewBox="0 0 59 24" fill="none" xmlns="http://www.w3.org/2000/svg">
<rect width="58.648" height="24" rx="12" fill="#E0E0E0"/>
<path opacity="0.5" d="M19 16.8569H20.6686C20.6686 14.7893 19.5384 12.9793 17.8482 11.9836C19.5384 10.988 20.6686 9.178 20.6686 7.11035H18.9999C18.9999 9.0669 17.5639 10.7037 15.6763 11.0875V7.11035H14.0079V11.0875C12.1114 10.7104 10.6843 9.07305 10.6843 7.11035H9.01566C9.01566 9.178 10.1459 10.988 11.8361 11.9836C10.1458 12.9793 9.01562 14.7893 9.01562 16.8569H10.6843C10.6843 14.8942 12.1114 13.2569 14.0079 12.8798V16.8587H15.6763V12.8798C17.5728 13.2569 19 14.8942 19 16.8569Z" fill="#121215"/>
<path d="M25.9448 16.5V7.372H29.4786C31.3173 7.372 32.4257 8.50648 32.4257 10.1234C32.4257 11.7404 31.3173 12.8749 29.4786 12.8749H27.3009V16.5H25.9448ZM27.3009 11.7013H29.4395C30.6131 11.7013 31.0695 10.958 31.0695 10.1234C31.0695 9.28888 30.6131 8.5456 29.4395 8.5456H27.3009V11.7013ZM33.6097 16.5V7.1764H34.8745V16.5H33.6097ZM42.3787 9.92784V16.5H41.1138V15.3394C40.7617 16.161 39.9793 16.6043 39.0013 16.6043C37.5147 16.6043 36.5498 15.535 36.5498 13.9702V9.92784H37.8146V13.7225C37.8146 14.7657 38.4275 15.4698 39.3534 15.4698C40.3835 15.4698 41.1138 14.6353 41.1138 13.4878V9.92784H42.3787ZM46.3075 16.6043C44.7687 16.6043 43.7386 15.7437 43.6473 14.3614H44.8339C44.9122 15.1178 45.4599 15.5481 46.3075 15.5481C47.0638 15.5481 47.5463 15.1438 47.5463 14.6614C47.5463 12.914 43.8168 14.5179 43.8168 11.7143C43.8168 10.5798 44.7818 9.82352 46.151 9.82352C47.6375 9.82352 48.6547 10.645 48.7199 11.8838H47.5332C47.4419 11.1275 46.7117 10.8276 46.151 10.8276C45.4729 10.8276 45.0165 11.1666 45.0165 11.6752C45.0165 13.3052 48.772 11.6361 48.772 14.6353C48.772 15.835 47.794 16.6043 46.3075 16.6043Z" fill="#121215"/>
</svg>
