<svg width="53" height="21" viewBox="0 0 53 13" fill="none" xmlns="http://www.w3.org/2000/svg">
<path opacity="0.5" d="M13.1856 12.9551H15.386C15.386 10.2285 13.8956 7.84179 11.6668 6.52881C13.8956 5.21584 15.386 2.82909 15.386 0.102539H13.1856C13.1856 2.68259 11.292 4.841 8.80283 5.34705V0.102539H6.60271V5.34705C4.10185 4.84981 2.21997 2.6907 2.21997 0.102539H0.0195801C0.0195801 2.82909 1.50995 5.21584 3.7388 6.52881C1.50993 7.84179 0.0195312 10.2285 0.0195312 12.9551H2.21993C2.21993 10.3669 4.10184 8.20783 6.60271 7.71058V12.9574H8.80283V7.71058C11.3037 8.2078 13.1856 10.3669 13.1856 12.9551Z" fill="white"/>
<path d="M21.8608 12.5498V0.51295H26.5208C28.9454 0.51295 30.407 2.00896 30.407 4.1412C30.407 6.27345 28.9454 7.76945 26.5208 7.76945H23.6491V12.5498H21.8608ZM23.6491 6.22186H26.4692C28.0168 6.22186 28.6186 5.24171 28.6186 4.1412C28.6186 3.04069 28.0168 2.06055 26.4692 2.06055H23.6491V6.22186ZM31.9683 12.5498V0.255018H33.6362V12.5498H31.9683ZM43.5317 3.88327V12.5498H41.8637V11.0194C41.3995 12.1027 40.3677 12.6874 39.0781 12.6874C37.1178 12.6874 35.8453 11.2773 35.8453 9.21388V3.88327H37.5133V8.88716C37.5133 10.2628 38.3215 11.1914 39.5424 11.1914C40.9008 11.1914 41.8637 10.0908 41.8637 8.57764V3.88327H43.5317ZM48.7125 12.6874C46.6835 12.6874 45.325 11.5525 45.2046 9.72974H46.7694C46.8726 10.7271 47.5948 11.2945 48.7125 11.2945C49.7099 11.2945 50.3461 10.7615 50.3461 10.1252C50.3461 7.82104 45.4282 9.93609 45.4282 6.23905C45.4282 4.74304 46.7007 3.74571 48.5062 3.74571C50.4665 3.74571 51.8077 4.82902 51.8937 6.4626H50.3289C50.2085 5.46526 49.2456 5.06976 48.5062 5.06976C47.612 5.06976 47.0102 5.51684 47.0102 6.18747C47.0102 8.33691 51.9625 6.13588 51.9625 10.0908C51.9625 11.6728 50.6728 12.6874 48.7125 12.6874Z" fill="white"/>
</svg>
