<svg width="55" height="24" viewBox="0 0 55 24" fill="none" xmlns="http://www.w3.org/2000/svg">
<rect width="54.6484" height="24" rx="12" fill="url(#paint0_linear_967_8096)"/>
<rect width="54.6484" height="24" rx="12" fill="url(#paint1_radial_967_8096)" fill-opacity="0.6"/>
<path d="M19 16.8569H20.6686C20.6686 14.7893 19.5384 12.9793 17.8482 11.9836C19.5384 10.988 20.6686 9.178 20.6686 7.11035H18.9999C18.9999 9.0669 17.5639 10.7037 15.6763 11.0875V7.11035H14.0079V11.0875C12.1114 10.7104 10.6843 9.07305 10.6843 7.11035H9.01566C9.01566 9.178 10.1459 10.988 11.8361 11.9836C10.1458 12.9793 9.01562 14.7893 9.01562 16.8569H10.6843C10.6843 14.8942 12.1114 13.2569 14.0079 12.8798V16.8587H15.6763V12.8798C17.5728 13.2569 19 14.8942 19 16.8569Z" fill="#121215"/>
<path d="M26.0996 16.4512V7.32317H29.6335C30.2594 7.32317 30.794 7.44053 31.2374 7.67525C31.6895 7.90997 32.0328 8.23597 32.2676 8.65325C32.5023 9.06184 32.6196 9.53562 32.6196 10.0746C32.6196 10.6136 32.5023 11.0917 32.2676 11.509C32.0328 11.9176 31.6895 12.2393 31.2374 12.474C30.794 12.7087 30.2594 12.8261 29.6335 12.8261H27.4558V16.4512H26.0996ZM27.4558 11.6525H29.5944C30.1855 11.6525 30.6028 11.496 30.8462 11.183C31.0983 10.8614 31.2244 10.4919 31.2244 10.0746C31.2244 9.65733 31.0983 9.29221 30.8462 8.97925C30.6028 8.6576 30.1855 8.49677 29.5944 8.49677H27.4558V11.6525ZM33.7757 16.4512V9.87901H35.0406V11.1439C35.1884 10.7092 35.4014 10.3919 35.6796 10.192C35.9577 9.98333 36.3272 9.87901 36.788 9.87901H37.5834V10.9744H36.6315C36.2316 10.9744 35.9143 11.083 35.6796 11.3004C35.4535 11.5177 35.2884 11.8176 35.184 12.2001C35.0884 12.5739 35.0406 12.9999 35.0406 13.4781V16.4512H33.7757ZM41.3835 16.5555C40.7315 16.5555 40.1491 16.4121 39.6362 16.1252C39.1233 15.8296 38.719 15.4254 38.4235 14.9125C38.1366 14.3995 37.9931 13.8171 37.9931 13.1651C37.9931 12.5044 38.1366 11.9219 38.4235 11.4177C38.719 10.9048 39.1233 10.5049 39.6362 10.2181C40.1491 9.92248 40.7315 9.77469 41.3835 9.77469C42.0442 9.77469 42.6267 9.92248 43.1309 10.2181C43.6351 10.5049 44.0307 10.9048 44.3175 11.4177C44.6131 11.9219 44.7609 12.5044 44.7609 13.1651C44.7609 13.8171 44.6131 14.3995 44.3175 14.9125C44.0307 15.4254 43.6351 15.8296 43.1309 16.1252C42.6267 16.4121 42.0442 16.5555 41.3835 16.5555ZM41.3835 15.4471C42.0008 15.4471 42.5006 15.2341 42.8831 14.8081C43.2743 14.3822 43.4699 13.8345 43.4699 13.1651C43.4699 12.4957 43.2743 11.948 42.8831 11.5221C42.5006 11.0961 42.0008 10.8831 41.3835 10.8831C40.7576 10.8831 40.2491 11.0961 39.8579 11.5221C39.4754 11.948 39.2841 12.4957 39.2841 13.1651C39.2841 13.8345 39.4754 14.3822 39.8579 14.8081C40.2491 15.2341 40.7576 15.4471 41.3835 15.4471Z" fill="#121215"/>
<defs>
<linearGradient id="paint0_linear_967_8096" x1="1.36621" y1="0.500001" x2="8.13985" y2="54.6387" gradientUnits="userSpaceOnUse">
<stop stop-color="#FFE7CE"/>
<stop offset="1" stop-color="#E88002"/>
</linearGradient>
<radialGradient id="paint1_radial_967_8096" cx="0" cy="0" r="1" gradientTransform="matrix(-30.512 7.9 -17.9884 -13.4 45.9958 -1.7)" gradientUnits="userSpaceOnUse">
<stop stop-color="white"/>
<stop offset="1" stop-color="white" stop-opacity="0"/>
</radialGradient>
</defs>
</svg>
