<svg width="50" height="21" viewBox="0 0 50 17" fill="none" xmlns="http://www.w3.org/2000/svg">
<path d="M15.523 14.9565H17.724C17.724 12.2292 16.2332 9.84186 14.0038 8.52854C16.2332 7.21522 17.724 4.82785 17.724 2.10059H15.523C15.523 4.68131 13.6289 6.84028 11.1391 7.34647V2.10059H8.93842V7.34647C6.4369 6.8491 4.55453 4.68943 4.55453 2.10059H2.35356C2.35356 4.82785 3.84432 7.21522 6.07376 8.52854C3.8443 9.84186 2.35352 12.2292 2.35352 14.9565H4.55449C4.55449 12.3677 6.4369 10.208 8.93842 9.71062V14.9589H11.1391V9.71061C13.6406 10.208 15.523 12.3676 15.523 14.9565Z" fill="url(#paint0_linear_232_2620)"/>
<path d="M15.523 14.9565H17.724C17.724 12.2292 16.2332 9.84186 14.0038 8.52854C16.2332 7.21522 17.724 4.82785 17.724 2.10059H15.523C15.523 4.68131 13.6289 6.84028 11.1391 7.34647V2.10059H8.93842V7.34647C6.4369 6.8491 4.55453 4.68943 4.55453 2.10059H2.35356C2.35356 4.82785 3.84432 7.21522 6.07376 8.52854C3.8443 9.84186 2.35352 12.2292 2.35352 14.9565H4.55449C4.55449 12.3677 6.4369 10.208 8.93842 9.71062V14.9589H11.1391V9.71061C13.6406 10.208 15.523 12.3676 15.523 14.9565Z" fill="url(#paint1_radial_232_2620)" fill-opacity="0.6"/>
<g style="mix-blend-mode:color-dodge" opacity="0.25" filter="url(#filter0_f_232_2620)">
<path d="M15.523 14.9565H17.724C17.724 12.2292 16.2332 9.84186 14.0038 8.52854C16.2332 7.21522 17.724 4.82785 17.724 2.10059H15.523C15.523 4.68131 13.6289 6.84028 11.1391 7.34647V2.10059H8.93842V7.34647C6.4369 6.8491 4.55453 4.68943 4.55453 2.10059H2.35356C2.35356 4.82785 3.84432 7.21522 6.07376 8.52854C3.8443 9.84186 2.35352 12.2292 2.35352 14.9565H4.55449C4.55449 12.3677 6.4369 10.208 8.93842 9.71062V14.9589H11.1391V9.71061C13.6406 10.208 15.523 12.3676 15.523 14.9565Z" fill="url(#paint2_linear_232_2620)"/>
<path d="M15.523 14.9565H17.724C17.724 12.2292 16.2332 9.84186 14.0038 8.52854C16.2332 7.21522 17.724 4.82785 17.724 2.10059H15.523C15.523 4.68131 13.6289 6.84028 11.1391 7.34647V2.10059H8.93842V7.34647C6.4369 6.8491 4.55453 4.68943 4.55453 2.10059H2.35356C2.35356 4.82785 3.84432 7.21522 6.07376 8.52854C3.8443 9.84186 2.35352 12.2292 2.35352 14.9565H4.55449C4.55449 12.3677 6.4369 10.208 8.93842 9.71062V14.9589H11.1391V9.71061C13.6406 10.208 15.523 12.3676 15.523 14.9565Z" fill="url(#paint3_radial_232_2620)" fill-opacity="0.6"/>
</g>
<path d="M24.5607 14.5498V2.5098H29.2219C31.6471 2.5098 33.1091 4.0062 33.1091 6.139C33.1091 8.2718 31.6471 9.7682 29.2219 9.7682H26.3495V14.5498H24.5607ZM26.3495 8.2202H29.1703C30.7183 8.2202 31.3203 7.2398 31.3203 6.139C31.3203 5.0382 30.7183 4.0578 29.1703 4.0578H26.3495V8.2202ZM39.6072 7.3258H38.3516C36.7692 7.3258 36.2532 8.7362 36.2532 10.6282V14.5498H34.5848V5.881H36.2532V7.5494C36.6488 6.397 37.3368 5.881 38.558 5.881H39.6072V7.3258ZM44.588 14.6874C41.9908 14.6874 40.116 12.8126 40.116 10.2154C40.116 7.6182 41.9908 5.7434 44.588 5.7434C47.1852 5.7434 49.0428 7.6182 49.0428 10.2154C49.0428 12.8126 47.1852 14.6874 44.588 14.6874ZM44.588 13.2254C46.222 13.2254 47.34 11.987 47.34 10.2154C47.34 8.4438 46.222 7.2054 44.588 7.2054C42.9368 7.2054 41.8188 8.4438 41.8188 10.2154C41.8188 11.987 42.9368 13.2254 44.588 13.2254Z" fill="white"/>
<defs>
<filter id="filter0_f_232_2620" x="0.674229" y="0.439854" width="18.8" height="16.2199" filterUnits="userSpaceOnUse" color-interpolation-filters="sRGB">
<feFlood flood-opacity="0" result="BackgroundImageFix"/>
<feBlend mode="normal" in="SourceGraphic" in2="BackgroundImageFix" result="shape"/>
<feGaussianBlur stdDeviation="0.829878" result="effect1_foregroundBlur_232_2620"/>
</filter>
<linearGradient id="paint0_linear_232_2620" x1="2.73778" y1="2.36847" x2="14.1844" y2="17.5374" gradientUnits="userSpaceOnUse">
<stop stop-color="#F6E4F0"/>
<stop offset="0.491919" stop-color="#E16766"/>
<stop offset="1" stop-color="#F756F2"/>
</linearGradient>
<radialGradient id="paint1_radial_232_2620" cx="0" cy="0" r="1" gradientTransform="matrix(-8.58186 4.23251 -5.05945 -7.1792 15.2903 1.18979)" gradientUnits="userSpaceOnUse">
<stop stop-color="white"/>
<stop offset="1" stop-color="white" stop-opacity="0"/>
</radialGradient>
<linearGradient id="paint2_linear_232_2620" x1="2.73778" y1="2.36847" x2="14.1844" y2="17.5374" gradientUnits="userSpaceOnUse">
<stop stop-color="#F6E4F0"/>
<stop offset="0.491919" stop-color="#E16766"/>
<stop offset="1" stop-color="#F756F2"/>
</linearGradient>
<radialGradient id="paint3_radial_232_2620" cx="0" cy="0" r="1" gradientTransform="matrix(-8.58186 4.23251 -5.05945 -7.1792 15.2903 1.18979)" gradientUnits="userSpaceOnUse">
<stop stop-color="white"/>
<stop offset="1" stop-color="white" stop-opacity="0"/>
</radialGradient>
</defs>
</svg>
