<svg width="65" height="21" viewBox="0 0 65 21" fill="none" xmlns="http://www.w3.org/2000/svg">
<path d="M16.8551 16.9067H19.056C19.056 14.1794 17.5653 11.7921 15.3358 10.4787C17.5653 9.16542 19.056 6.77804 19.056 4.05078H16.855C16.855 6.63151 14.9609 8.79048 12.4711 9.29666V4.05078H10.2704V9.29666C7.76893 8.79929 5.88657 6.63962 5.88657 4.05078H3.6856C3.6856 6.77804 5.17635 9.16542 7.40579 10.4787C5.17633 11.7921 3.68555 14.1794 3.68555 16.9067H5.88652C5.88652 14.3179 7.76893 12.1582 10.2704 11.6608V16.9091H12.4711V11.6608C14.9727 12.1582 16.8551 14.3178 16.8551 16.9067Z" fill="white"/>
<path d="M16.8551 16.9067H19.056C19.056 14.1794 17.5653 11.7921 15.3358 10.4787C17.5653 9.16542 19.056 6.77804 19.056 4.05078H16.855C16.855 6.63151 14.9609 8.79048 12.4711 9.29666V4.05078H10.2704V9.29666C7.76893 8.79929 5.88657 6.63962 5.88657 4.05078H3.6856C3.6856 6.77804 5.17635 9.16542 7.40579 10.4787C5.17633 11.7921 3.68555 14.1794 3.68555 16.9067H5.88652C5.88652 14.3179 7.76893 12.1582 10.2704 11.6608V16.9091H12.4711V11.6608C14.9727 12.1582 16.8551 14.3178 16.8551 16.9067Z" fill="url(#paint0_linear_232_2703)"/>
<path d="M16.8551 16.9067H19.056C19.056 14.1794 17.5653 11.7921 15.3358 10.4787C17.5653 9.16542 19.056 6.77804 19.056 4.05078H16.855C16.855 6.63151 14.9609 8.79048 12.4711 9.29666V4.05078H10.2704V9.29666C7.76893 8.79929 5.88657 6.63962 5.88657 4.05078H3.6856C3.6856 6.77804 5.17635 9.16542 7.40579 10.4787C5.17633 11.7921 3.68555 14.1794 3.68555 16.9067H5.88652C5.88652 14.3179 7.76893 12.1582 10.2704 11.6608V16.9091H12.4711V11.6608C14.9727 12.1582 16.8551 14.3178 16.8551 16.9067Z" fill="url(#paint1_radial_232_2703)" fill-opacity="0.6"/>
<g style="mix-blend-mode:color-dodge" opacity="0.5" filter="url(#filter0_f_232_2703)">
<path d="M16.8551 16.9067H19.056C19.056 14.1794 17.5653 11.7921 15.3358 10.4787C17.5653 9.16542 19.056 6.77804 19.056 4.05078H16.855C16.855 6.63151 14.9609 8.79048 12.4711 9.29666V4.05078H10.2704V9.29666C7.76893 8.79929 5.88657 6.63962 5.88657 4.05078H3.6856C3.6856 6.77804 5.17635 9.16542 7.40579 10.4787C5.17633 11.7921 3.68555 14.1794 3.68555 16.9067H5.88652C5.88652 14.3179 7.76893 12.1582 10.2704 11.6608V16.9091H12.4711V11.6608C14.9727 12.1582 16.8551 14.3178 16.8551 16.9067Z" fill="white"/>
<path d="M16.8551 16.9067H19.056C19.056 14.1794 17.5653 11.7921 15.3358 10.4787C17.5653 9.16542 19.056 6.77804 19.056 4.05078H16.855C16.855 6.63151 14.9609 8.79048 12.4711 9.29666V4.05078H10.2704V9.29666C7.76893 8.79929 5.88657 6.63962 5.88657 4.05078H3.6856C3.6856 6.77804 5.17635 9.16542 7.40579 10.4787C5.17633 11.7921 3.68555 14.1794 3.68555 16.9067H5.88652C5.88652 14.3179 7.76893 12.1582 10.2704 11.6608V16.9091H12.4711V11.6608C14.9727 12.1582 16.8551 14.3178 16.8551 16.9067Z" fill="url(#paint2_linear_232_2703)"/>
<path d="M16.8551 16.9067H19.056C19.056 14.1794 17.5653 11.7921 15.3358 10.4787C17.5653 9.16542 19.056 6.77804 19.056 4.05078H16.855C16.855 6.63151 14.9609 8.79048 12.4711 9.29666V4.05078H10.2704V9.29666C7.76893 8.79929 5.88657 6.63962 5.88657 4.05078H3.6856C3.6856 6.77804 5.17635 9.16542 7.40579 10.4787C5.17633 11.7921 3.68555 14.1794 3.68555 16.9067H5.88652C5.88652 14.3179 7.76893 12.1582 10.2704 11.6608V16.9091H12.4711V11.6608C14.9727 12.1582 16.8551 14.3178 16.8551 16.9067Z" fill="url(#paint3_radial_232_2703)" fill-opacity="0.6"/>
</g>
<path d="M30.4125 16.6376C27.6605 16.6376 25.8029 15.038 25.8029 12.286V4.46H27.5229V12.3376C27.5229 14.0576 28.6925 15.038 30.4125 15.038C32.1497 15.038 33.3193 14.0576 33.3193 12.3376V4.46H35.0393V12.286C35.0393 15.038 33.1817 16.6376 30.4125 16.6376ZM37.1944 16.5V4.202H38.8628V16.5H37.1944ZM42.0701 5.1136H43.7385V7.8312H46.3013V9.276H43.7385V13.6104C43.7385 14.5392 44.2373 15.0552 45.0801 15.0552H46.3013V16.5H44.9425C43.1881 16.5 42.0701 15.4336 42.0701 13.662V9.276H40.2985V7.8312H42.0701V5.1136ZM52.7464 9.276H51.4908C49.9084 9.276 49.3924 10.6864 49.3924 12.5784V16.5H47.724V7.8312H49.3924V9.4996C49.788 8.3472 50.476 7.8312 51.6972 7.8312H52.7464V9.276ZM57.2437 7.6936C59.4797 7.6936 60.9589 8.9836 60.9589 10.91V16.5H59.2905V15.0896C58.8777 16.0184 57.7769 16.6376 56.4697 16.6376C54.6981 16.6376 53.5285 15.5712 53.5285 14.0232C53.5285 12.3548 54.8529 11.3228 56.8997 11.3228H58.7057C59.1013 11.3228 59.2905 11.1164 59.2905 10.8068C59.2905 9.7576 58.5337 9.0352 57.1921 9.0352C55.9881 9.0352 55.1109 9.792 55.0593 10.6692H53.5113C53.6489 8.9664 55.1969 7.6936 57.2437 7.6936ZM56.7965 15.3132C58.3789 15.3132 59.2905 14.2984 59.2905 12.6988V12.4924H57.0545C55.9193 12.4924 55.1797 13.0772 55.1797 13.9888C55.1797 14.78 55.8333 15.3132 56.7965 15.3132Z" fill="white"/>
<path d="M30.4125 16.6376C27.6605 16.6376 25.8029 15.038 25.8029 12.286V4.46H27.5229V12.3376C27.5229 14.0576 28.6925 15.038 30.4125 15.038C32.1497 15.038 33.3193 14.0576 33.3193 12.3376V4.46H35.0393V12.286C35.0393 15.038 33.1817 16.6376 30.4125 16.6376ZM37.1944 16.5V4.202H38.8628V16.5H37.1944ZM42.0701 5.1136H43.7385V7.8312H46.3013V9.276H43.7385V13.6104C43.7385 14.5392 44.2373 15.0552 45.0801 15.0552H46.3013V16.5H44.9425C43.1881 16.5 42.0701 15.4336 42.0701 13.662V9.276H40.2985V7.8312H42.0701V5.1136ZM52.7464 9.276H51.4908C49.9084 9.276 49.3924 10.6864 49.3924 12.5784V16.5H47.724V7.8312H49.3924V9.4996C49.788 8.3472 50.476 7.8312 51.6972 7.8312H52.7464V9.276ZM57.2437 7.6936C59.4797 7.6936 60.9589 8.9836 60.9589 10.91V16.5H59.2905V15.0896C58.8777 16.0184 57.7769 16.6376 56.4697 16.6376C54.6981 16.6376 53.5285 15.5712 53.5285 14.0232C53.5285 12.3548 54.8529 11.3228 56.8997 11.3228H58.7057C59.1013 11.3228 59.2905 11.1164 59.2905 10.8068C59.2905 9.7576 58.5337 9.0352 57.1921 9.0352C55.9881 9.0352 55.1109 9.792 55.0593 10.6692H53.5113C53.6489 8.9664 55.1969 7.6936 57.2437 7.6936ZM56.7965 15.3132C58.3789 15.3132 59.2905 14.2984 59.2905 12.6988V12.4924H57.0545C55.9193 12.4924 55.1797 13.0772 55.1797 13.9888C55.1797 14.78 55.8333 15.3132 56.7965 15.3132Z" fill="white"/>
<path d="M30.4125 16.6376C27.6605 16.6376 25.8029 15.038 25.8029 12.286V4.46H27.5229V12.3376C27.5229 14.0576 28.6925 15.038 30.4125 15.038C32.1497 15.038 33.3193 14.0576 33.3193 12.3376V4.46H35.0393V12.286C35.0393 15.038 33.1817 16.6376 30.4125 16.6376ZM37.1944 16.5V4.202H38.8628V16.5H37.1944ZM42.0701 5.1136H43.7385V7.8312H46.3013V9.276H43.7385V13.6104C43.7385 14.5392 44.2373 15.0552 45.0801 15.0552H46.3013V16.5H44.9425C43.1881 16.5 42.0701 15.4336 42.0701 13.662V9.276H40.2985V7.8312H42.0701V5.1136ZM52.7464 9.276H51.4908C49.9084 9.276 49.3924 10.6864 49.3924 12.5784V16.5H47.724V7.8312H49.3924V9.4996C49.788 8.3472 50.476 7.8312 51.6972 7.8312H52.7464V9.276ZM57.2437 7.6936C59.4797 7.6936 60.9589 8.9836 60.9589 10.91V16.5H59.2905V15.0896C58.8777 16.0184 57.7769 16.6376 56.4697 16.6376C54.6981 16.6376 53.5285 15.5712 53.5285 14.0232C53.5285 12.3548 54.8529 11.3228 56.8997 11.3228H58.7057C59.1013 11.3228 59.2905 11.1164 59.2905 10.8068C59.2905 9.7576 58.5337 9.0352 57.1921 9.0352C55.9881 9.0352 55.1109 9.792 55.0593 10.6692H53.5113C53.6489 8.9664 55.1969 7.6936 57.2437 7.6936ZM56.7965 15.3132C58.3789 15.3132 59.2905 14.2984 59.2905 12.6988V12.4924H57.0545C55.9193 12.4924 55.1797 13.0772 55.1797 13.9888C55.1797 14.78 55.8333 15.3132 56.7965 15.3132Z" fill="url(#paint4_linear_232_2703)"/>
<path d="M30.4125 16.6376C27.6605 16.6376 25.8029 15.038 25.8029 12.286V4.46H27.5229V12.3376C27.5229 14.0576 28.6925 15.038 30.4125 15.038C32.1497 15.038 33.3193 14.0576 33.3193 12.3376V4.46H35.0393V12.286C35.0393 15.038 33.1817 16.6376 30.4125 16.6376ZM37.1944 16.5V4.202H38.8628V16.5H37.1944ZM42.0701 5.1136H43.7385V7.8312H46.3013V9.276H43.7385V13.6104C43.7385 14.5392 44.2373 15.0552 45.0801 15.0552H46.3013V16.5H44.9425C43.1881 16.5 42.0701 15.4336 42.0701 13.662V9.276H40.2985V7.8312H42.0701V5.1136ZM52.7464 9.276H51.4908C49.9084 9.276 49.3924 10.6864 49.3924 12.5784V16.5H47.724V7.8312H49.3924V9.4996C49.788 8.3472 50.476 7.8312 51.6972 7.8312H52.7464V9.276ZM57.2437 7.6936C59.4797 7.6936 60.9589 8.9836 60.9589 10.91V16.5H59.2905V15.0896C58.8777 16.0184 57.7769 16.6376 56.4697 16.6376C54.6981 16.6376 53.5285 15.5712 53.5285 14.0232C53.5285 12.3548 54.8529 11.3228 56.8997 11.3228H58.7057C59.1013 11.3228 59.2905 11.1164 59.2905 10.8068C59.2905 9.7576 58.5337 9.0352 57.1921 9.0352C55.9881 9.0352 55.1109 9.792 55.0593 10.6692H53.5113C53.6489 8.9664 55.1969 7.6936 57.2437 7.6936ZM56.7965 15.3132C58.3789 15.3132 59.2905 14.2984 59.2905 12.6988V12.4924H57.0545C55.9193 12.4924 55.1797 13.0772 55.1797 13.9888C55.1797 14.78 55.8333 15.3132 56.7965 15.3132Z" fill="url(#paint5_radial_232_2703)" fill-opacity="0.6"/>
<g opacity="0.25" filter="url(#filter1_f_232_2703)">
<path d="M30.4125 16.6376C27.6605 16.6376 25.8029 15.038 25.8029 12.286V4.46H27.5229V12.3376C27.5229 14.0576 28.6925 15.038 30.4125 15.038C32.1497 15.038 33.3193 14.0576 33.3193 12.3376V4.46H35.0393V12.286C35.0393 15.038 33.1817 16.6376 30.4125 16.6376ZM37.1944 16.5V4.202H38.8628V16.5H37.1944ZM42.0701 5.1136H43.7385V7.8312H46.3013V9.276H43.7385V13.6104C43.7385 14.5392 44.2373 15.0552 45.0801 15.0552H46.3013V16.5H44.9425C43.1881 16.5 42.0701 15.4336 42.0701 13.662V9.276H40.2985V7.8312H42.0701V5.1136ZM52.7464 9.276H51.4908C49.9084 9.276 49.3924 10.6864 49.3924 12.5784V16.5H47.724V7.8312H49.3924V9.4996C49.788 8.3472 50.476 7.8312 51.6972 7.8312H52.7464V9.276ZM57.2437 7.6936C59.4797 7.6936 60.9589 8.9836 60.9589 10.91V16.5H59.2905V15.0896C58.8777 16.0184 57.7769 16.6376 56.4697 16.6376C54.6981 16.6376 53.5285 15.5712 53.5285 14.0232C53.5285 12.3548 54.8529 11.3228 56.8997 11.3228H58.7057C59.1013 11.3228 59.2905 11.1164 59.2905 10.8068C59.2905 9.7576 58.5337 9.0352 57.1921 9.0352C55.9881 9.0352 55.1109 9.792 55.0593 10.6692H53.5113C53.6489 8.9664 55.1969 7.6936 57.2437 7.6936ZM56.7965 15.3132C58.3789 15.3132 59.2905 14.2984 59.2905 12.6988V12.4924H57.0545C55.9193 12.4924 55.1797 13.0772 55.1797 13.9888C55.1797 14.78 55.8333 15.3132 56.7965 15.3132Z" fill="white"/>
<path d="M30.4125 16.6376C27.6605 16.6376 25.8029 15.038 25.8029 12.286V4.46H27.5229V12.3376C27.5229 14.0576 28.6925 15.038 30.4125 15.038C32.1497 15.038 33.3193 14.0576 33.3193 12.3376V4.46H35.0393V12.286C35.0393 15.038 33.1817 16.6376 30.4125 16.6376ZM37.1944 16.5V4.202H38.8628V16.5H37.1944ZM42.0701 5.1136H43.7385V7.8312H46.3013V9.276H43.7385V13.6104C43.7385 14.5392 44.2373 15.0552 45.0801 15.0552H46.3013V16.5H44.9425C43.1881 16.5 42.0701 15.4336 42.0701 13.662V9.276H40.2985V7.8312H42.0701V5.1136ZM52.7464 9.276H51.4908C49.9084 9.276 49.3924 10.6864 49.3924 12.5784V16.5H47.724V7.8312H49.3924V9.4996C49.788 8.3472 50.476 7.8312 51.6972 7.8312H52.7464V9.276ZM57.2437 7.6936C59.4797 7.6936 60.9589 8.9836 60.9589 10.91V16.5H59.2905V15.0896C58.8777 16.0184 57.7769 16.6376 56.4697 16.6376C54.6981 16.6376 53.5285 15.5712 53.5285 14.0232C53.5285 12.3548 54.8529 11.3228 56.8997 11.3228H58.7057C59.1013 11.3228 59.2905 11.1164 59.2905 10.8068C59.2905 9.7576 58.5337 9.0352 57.1921 9.0352C55.9881 9.0352 55.1109 9.792 55.0593 10.6692H53.5113C53.6489 8.9664 55.1969 7.6936 57.2437 7.6936ZM56.7965 15.3132C58.3789 15.3132 59.2905 14.2984 59.2905 12.6988V12.4924H57.0545C55.9193 12.4924 55.1797 13.0772 55.1797 13.9888C55.1797 14.78 55.8333 15.3132 56.7965 15.3132Z" fill="white"/>
<path d="M30.4125 16.6376C27.6605 16.6376 25.8029 15.038 25.8029 12.286V4.46H27.5229V12.3376C27.5229 14.0576 28.6925 15.038 30.4125 15.038C32.1497 15.038 33.3193 14.0576 33.3193 12.3376V4.46H35.0393V12.286C35.0393 15.038 33.1817 16.6376 30.4125 16.6376ZM37.1944 16.5V4.202H38.8628V16.5H37.1944ZM42.0701 5.1136H43.7385V7.8312H46.3013V9.276H43.7385V13.6104C43.7385 14.5392 44.2373 15.0552 45.0801 15.0552H46.3013V16.5H44.9425C43.1881 16.5 42.0701 15.4336 42.0701 13.662V9.276H40.2985V7.8312H42.0701V5.1136ZM52.7464 9.276H51.4908C49.9084 9.276 49.3924 10.6864 49.3924 12.5784V16.5H47.724V7.8312H49.3924V9.4996C49.788 8.3472 50.476 7.8312 51.6972 7.8312H52.7464V9.276ZM57.2437 7.6936C59.4797 7.6936 60.9589 8.9836 60.9589 10.91V16.5H59.2905V15.0896C58.8777 16.0184 57.7769 16.6376 56.4697 16.6376C54.6981 16.6376 53.5285 15.5712 53.5285 14.0232C53.5285 12.3548 54.8529 11.3228 56.8997 11.3228H58.7057C59.1013 11.3228 59.2905 11.1164 59.2905 10.8068C59.2905 9.7576 58.5337 9.0352 57.1921 9.0352C55.9881 9.0352 55.1109 9.792 55.0593 10.6692H53.5113C53.6489 8.9664 55.1969 7.6936 57.2437 7.6936ZM56.7965 15.3132C58.3789 15.3132 59.2905 14.2984 59.2905 12.6988V12.4924H57.0545C55.9193 12.4924 55.1797 13.0772 55.1797 13.9888C55.1797 14.78 55.8333 15.3132 56.7965 15.3132Z" fill="url(#paint6_linear_232_2703)"/>
<path d="M30.4125 16.6376C27.6605 16.6376 25.8029 15.038 25.8029 12.286V4.46H27.5229V12.3376C27.5229 14.0576 28.6925 15.038 30.4125 15.038C32.1497 15.038 33.3193 14.0576 33.3193 12.3376V4.46H35.0393V12.286C35.0393 15.038 33.1817 16.6376 30.4125 16.6376ZM37.1944 16.5V4.202H38.8628V16.5H37.1944ZM42.0701 5.1136H43.7385V7.8312H46.3013V9.276H43.7385V13.6104C43.7385 14.5392 44.2373 15.0552 45.0801 15.0552H46.3013V16.5H44.9425C43.1881 16.5 42.0701 15.4336 42.0701 13.662V9.276H40.2985V7.8312H42.0701V5.1136ZM52.7464 9.276H51.4908C49.9084 9.276 49.3924 10.6864 49.3924 12.5784V16.5H47.724V7.8312H49.3924V9.4996C49.788 8.3472 50.476 7.8312 51.6972 7.8312H52.7464V9.276ZM57.2437 7.6936C59.4797 7.6936 60.9589 8.9836 60.9589 10.91V16.5H59.2905V15.0896C58.8777 16.0184 57.7769 16.6376 56.4697 16.6376C54.6981 16.6376 53.5285 15.5712 53.5285 14.0232C53.5285 12.3548 54.8529 11.3228 56.8997 11.3228H58.7057C59.1013 11.3228 59.2905 11.1164 59.2905 10.8068C59.2905 9.7576 58.5337 9.0352 57.1921 9.0352C55.9881 9.0352 55.1109 9.792 55.0593 10.6692H53.5113C53.6489 8.9664 55.1969 7.6936 57.2437 7.6936ZM56.7965 15.3132C58.3789 15.3132 59.2905 14.2984 59.2905 12.6988V12.4924H57.0545C55.9193 12.4924 55.1797 13.0772 55.1797 13.9888C55.1797 14.78 55.8333 15.3132 56.7965 15.3132Z" fill="url(#paint7_radial_232_2703)" fill-opacity="0.6"/>
</g>
<defs>
<filter id="filter0_f_232_2703" x="0.226016" y="0.609805" width="22.3605" height="19.7804" filterUnits="userSpaceOnUse" color-interpolation-filters="sRGB">
<feFlood flood-opacity="0" result="BackgroundImageFix"/>
<feBlend mode="normal" in="SourceGraphic" in2="BackgroundImageFix" result="shape"/>
<feGaussianBlur stdDeviation="1.72" result="effect1_foregroundBlur_232_2703"/>
</filter>
<filter id="filter1_f_232_2703" x="22.3627" y="0.762148" width="42.0363" height="19.3155" filterUnits="userSpaceOnUse" color-interpolation-filters="sRGB">
<feFlood flood-opacity="0" result="BackgroundImageFix"/>
<feBlend mode="normal" in="SourceGraphic" in2="BackgroundImageFix" result="shape"/>
<feGaussianBlur stdDeviation="1.72" result="effect1_foregroundBlur_232_2703"/>
</filter>
<linearGradient id="paint0_linear_232_2703" x1="5.53771" y1="3.99132" x2="20.8991" y2="14.73" gradientUnits="userSpaceOnUse">
<stop stop-color="#23D3FF"/>
<stop offset="0.380795" stop-color="#FDF5E0"/>
<stop offset="0.682258" stop-color="#FFC78C"/>
<stop offset="1" stop-color="#FF1B07"/>
</linearGradient>
<radialGradient id="paint1_radial_232_2703" cx="0" cy="0" r="1" gradientTransform="matrix(4.0988 -5.57192 6.66055 3.42887 4.71025 16.9091)" gradientUnits="userSpaceOnUse">
<stop stop-color="white"/>
<stop offset="1" stop-color="white" stop-opacity="0"/>
</radialGradient>
<linearGradient id="paint2_linear_232_2703" x1="5.53771" y1="3.99132" x2="25.5951" y2="18.5575" gradientUnits="userSpaceOnUse">
<stop stop-color="#23D3FF"/>
<stop offset="0.380795" stop-color="#FDF5E0"/>
<stop offset="0.682258" stop-color="#FFC78C"/>
<stop offset="1" stop-color="#FF1B07"/>
</linearGradient>
<radialGradient id="paint3_radial_232_2703" cx="0" cy="0" r="1" gradientTransform="matrix(4.0988 -5.57192 6.66055 3.42887 4.71025 16.9091)" gradientUnits="userSpaceOnUse">
<stop stop-color="white"/>
<stop offset="1" stop-color="white" stop-opacity="0"/>
</radialGradient>
<linearGradient id="paint4_linear_232_2703" x1="28.8857" y1="4.44451" x2="44.9965" y2="35.4392" gradientUnits="userSpaceOnUse">
<stop stop-color="#23D3FF"/>
<stop offset="0.380795" stop-color="#FDF5E0"/>
<stop offset="0.682258" stop-color="#FFC78C"/>
<stop offset="1" stop-color="#FF1B07"/>
</linearGradient>
<radialGradient id="paint5_radial_232_2703" cx="0" cy="0" r="1" gradientTransform="matrix(10.1333 -5.2 16.4667 3.2 26.84 16.5)" gradientUnits="userSpaceOnUse">
<stop stop-color="white"/>
<stop offset="1" stop-color="white" stop-opacity="0"/>
</radialGradient>
<linearGradient id="paint6_linear_232_2703" x1="28.8857" y1="4.44451" x2="44.9965" y2="35.4392" gradientUnits="userSpaceOnUse">
<stop stop-color="#23D3FF"/>
<stop offset="0.380795" stop-color="#FDF5E0"/>
<stop offset="0.682258" stop-color="#FFC78C"/>
<stop offset="1" stop-color="#FF1B07"/>
</linearGradient>
<radialGradient id="paint7_radial_232_2703" cx="0" cy="0" r="1" gradientTransform="matrix(10.1333 -5.2 16.4667 3.2 26.84 16.5)" gradientUnits="userSpaceOnUse">
<stop stop-color="white"/>
<stop offset="1" stop-color="white" stop-opacity="0"/>
</radialGradient>
</defs>
</svg>
