<svg width="106" height="28" viewBox="0 0 106 28" fill="none" xmlns="http://www.w3.org/2000/svg">
<path d="M16.7045 14.2631C16.7166 13.3432 16.9669 12.4413 17.4321 11.6412C17.8972 10.8411 18.5621 10.1688 19.3648 9.68702C18.8548 8.97597 18.1821 8.39081 17.4 7.978C16.6178 7.5652 15.7479 7.33613 14.8592 7.30898C12.9635 7.11471 11.1258 8.41644 10.1598 8.41644C9.17506 8.41644 7.68776 7.32827 6.08616 7.36044C5.05021 7.39311 4.04059 7.68722 3.15568 8.2141C2.27077 8.74099 1.54075 9.48268 1.03674 10.3669C-1.14648 14.0573 0.482005 19.4809 2.57338 22.464C3.61975 23.9247 4.84264 25.5564 6.44279 25.4985C8.00863 25.4351 8.59344 24.5237 10.4835 24.5237C12.3561 24.5237 12.9048 25.4985 14.5374 25.4617C16.2176 25.4351 17.2762 23.9945 18.2859 22.52C19.0377 21.4792 19.6162 20.3288 20 19.1116C19.0238 18.7085 18.1908 18.0338 17.6048 17.1716C17.0187 16.3094 16.7056 15.2979 16.7045 14.2631Z" fill="white"/>
<path d="M13.6208 5.34713C14.5369 4.27343 14.9883 2.89335 14.879 1.5C13.4794 1.64352 12.1865 2.2966 11.258 3.32911C10.804 3.83351 10.4563 4.42033 10.2348 5.05601C10.0132 5.69168 9.92221 6.36375 9.96687 7.0338C10.6669 7.04084 11.3595 6.8927 11.9924 6.60054C12.6254 6.30838 13.1821 5.87982 13.6208 5.34713Z" fill="white"/>
<path d="M28.791 2.00146H30.8608C32.6494 2.00146 33.5195 3.06494 33.5195 4.99414C33.5195 6.92334 32.6406 8 30.8608 8H28.791V2.00146ZM29.7886 2.84082V7.16064H30.751C31.9375 7.16064 32.4956 6.44434 32.4956 5.00732C32.4956 3.56152 31.9331 2.84082 30.751 2.84082H29.7886ZM36.6748 3.27588C37.8877 3.27588 38.7358 4.0625 38.7358 5.36768V5.96973C38.7358 7.31885 37.8877 8.0791 36.6748 8.0791C35.4443 8.0791 34.605 7.32764 34.605 5.97412V5.37207C34.605 4.10205 35.4575 3.27588 36.6748 3.27588ZM36.6792 4.0625C35.9849 4.0625 35.5894 4.64258 35.5894 5.42041V5.93896C35.5894 6.7168 35.9585 7.29248 36.6792 7.29248C37.3911 7.29248 37.7559 6.72119 37.7559 5.93896V5.42041C37.7559 4.64258 37.3735 4.0625 36.6792 4.0625ZM45.8989 3.35498L44.6772 8H43.6841L42.7129 4.57227H42.6865L41.7329 8H40.7354L39.4609 3.35498H40.5112L41.2583 6.89697H41.3022L42.2383 3.35498H43.1567L44.1191 6.89697H44.1631L44.9233 3.35498H45.8989ZM46.8657 8V3.35498H47.8237V4.18994H47.8721C47.9907 3.8252 48.3291 3.28467 49.2695 3.28467C50.2056 3.28467 50.834 3.80322 50.834 4.8623V8H49.8584V5.14795C49.8584 4.44043 49.4893 4.11523 48.9399 4.11523C48.2192 4.11523 47.8413 4.66895 47.8413 5.42041V8H46.8657ZM52.3105 8V1.68506H53.2861V8H52.3105ZM56.6348 3.27588C57.8477 3.27588 58.6958 4.0625 58.6958 5.36768V5.96973C58.6958 7.31885 57.8477 8.0791 56.6348 8.0791C55.4043 8.0791 54.5649 7.32764 54.5649 5.97412V5.37207C54.5649 4.10205 55.4175 3.27588 56.6348 3.27588ZM56.6392 4.0625C55.9448 4.0625 55.5493 4.64258 55.5493 5.42041V5.93896C55.5493 6.7168 55.9185 7.29248 56.6392 7.29248C57.3511 7.29248 57.7158 6.72119 57.7158 5.93896V5.42041C57.7158 4.64258 57.3335 4.0625 56.6392 4.0625ZM61.2227 8.07031C60.3218 8.07031 59.7021 7.5166 59.7021 6.65088C59.7021 5.8291 60.2734 5.27539 61.3457 5.27539H62.519V4.84033C62.519 4.30859 62.1807 4.05811 61.6445 4.05811C61.1172 4.05811 60.8799 4.27783 60.8052 4.58545H59.8779C59.9351 3.80762 60.5195 3.28467 61.6753 3.28467C62.6685 3.28467 63.4902 3.69775 63.4902 4.85352V8H62.563V7.39795H62.519C62.3125 7.75391 61.9082 8.07031 61.2227 8.07031ZM61.5259 7.31445C62.0796 7.31445 62.519 6.93652 62.519 6.43115V5.93018H61.4995C60.9326 5.93018 60.6821 6.21582 60.6821 6.60254C60.6821 7.08594 61.0864 7.31445 61.5259 7.31445ZM66.4961 3.29346C67.1509 3.29346 67.6519 3.5835 67.832 4.05371H67.8804V1.68506H68.856V8H67.9067V7.25732H67.8584C67.7178 7.72754 67.1597 8.06152 66.4829 8.06152C65.415 8.06152 64.7207 7.30127 64.7207 6.0752V5.27979C64.7207 4.05371 65.4282 3.29346 66.4961 3.29346ZM66.7686 4.09326C66.1182 4.09326 65.7139 4.57666 65.7139 5.42041V5.93018C65.7139 6.77832 66.1226 7.26172 66.7905 7.26172C67.4497 7.26172 67.8804 6.78271 67.8804 5.9917V5.28857C67.8804 4.57227 67.4102 4.09326 66.7686 4.09326ZM74.2129 3.27588C75.4258 3.27588 76.2739 4.0625 76.2739 5.36768V5.96973C76.2739 7.31885 75.4258 8.0791 74.2129 8.0791C72.9824 8.0791 72.1431 7.32764 72.1431 5.97412V5.37207C72.1431 4.10205 72.9956 3.27588 74.2129 3.27588ZM74.2173 4.0625C73.5229 4.0625 73.1274 4.64258 73.1274 5.42041V5.93896C73.1274 6.7168 73.4966 7.29248 74.2173 7.29248C74.9292 7.29248 75.2939 6.72119 75.2939 5.93896V5.42041C75.2939 4.64258 74.9116 4.0625 74.2173 4.0625ZM77.5308 8V3.35498H78.4888V4.18994H78.5371C78.6558 3.8252 78.9941 3.28467 79.9346 3.28467C80.8706 3.28467 81.499 3.80322 81.499 4.8623V8H80.5234V5.14795C80.5234 4.44043 80.1543 4.11523 79.605 4.11523C78.8843 4.11523 78.5063 4.66895 78.5063 5.42041V8H77.5308ZM85.2739 3.38574V2.22559H86.2275V3.38574H87.269V4.15039H86.2275V6.61572C86.2275 7.12109 86.4165 7.26172 86.9395 7.26172C87.0713 7.26172 87.2471 7.25293 87.3218 7.24414V7.99121C87.2427 8.00439 86.9175 8.03076 86.6978 8.03076C85.5684 8.03076 85.2607 7.62646 85.2607 6.69482V4.15039H84.5532V3.38574H85.2739ZM88.4995 8V1.68506H89.4707V4.18994H89.519C89.6201 3.86035 89.998 3.28467 90.9297 3.28467C91.835 3.28467 92.481 3.80762 92.481 4.8667V8H91.5098V5.15234C91.5098 4.44482 91.1187 4.11523 90.5649 4.11523C89.8662 4.11523 89.4707 4.66455 89.4707 5.42041V8H88.4995ZM95.7549 8.0791C94.4893 8.0791 93.7026 7.30127 93.7026 5.9917V5.36328C93.7026 4.04492 94.564 3.27588 95.6978 3.27588C96.8623 3.27588 97.6841 4.08447 97.6841 5.36328V5.9082H94.6694V6.13672C94.6694 6.80469 95.0649 7.29688 95.7505 7.29688C96.2603 7.29688 96.6118 7.05518 96.6777 6.76514H97.6313C97.5742 7.30127 97.0073 8.0791 95.7549 8.0791ZM94.6694 5.271H96.7305V5.20947C96.7305 4.51074 96.3218 4.04492 95.7021 4.04492C95.0825 4.04492 94.6694 4.51074 94.6694 5.20947V5.271Z" fill="white"/>
<path d="M30.2061 24H28.1758L32.3066 12.0029H34.5391L38.6611 24H36.5518L35.4883 20.6777H31.2783L30.2061 24ZM33.4316 14.0771H33.3525L31.7266 19.1484H35.04L33.4316 14.0771ZM44.2644 24.1318C43.0603 24.1318 42.1462 23.5605 41.654 22.708H41.5837V27.085H39.6325V14.71H41.531V16.0723H41.6013C42.1111 15.1846 43.0603 14.5869 44.3083 14.5869C46.3913 14.5869 47.8767 16.1602 47.8767 18.9375V19.7637C47.8767 22.5234 46.4089 24.1318 44.2644 24.1318ZM43.8161 22.5234C45.0554 22.5234 45.8991 21.5303 45.8991 19.6582V19.0078C45.8991 17.2061 45.1081 16.1777 43.781 16.1777C42.4187 16.1777 41.5661 17.2852 41.5661 18.999V19.6582C41.5661 21.416 42.4275 22.5234 43.8161 22.5234ZM54.183 24.1318C52.9789 24.1318 52.0649 23.5605 51.5727 22.708H51.5024V27.085H49.5512V14.71H51.4496V16.0723H51.52C52.0297 15.1846 52.9789 14.5869 54.227 14.5869C56.31 14.5869 57.7954 16.1602 57.7954 18.9375V19.7637C57.7954 22.5234 56.3276 24.1318 54.183 24.1318ZM53.7348 22.5234C54.9741 22.5234 55.8178 21.5303 55.8178 19.6582V19.0078C55.8178 17.2061 55.0268 16.1777 53.6996 16.1777C52.3373 16.1777 51.4848 17.2852 51.4848 18.999V19.6582C51.4848 21.416 52.3461 22.5234 53.7348 22.5234ZM61.8387 20.6689H63.7899C63.8778 21.7061 64.7919 22.5938 66.4882 22.5938C68.0438 22.5938 68.9667 21.8643 68.9667 20.7305C68.9667 19.8164 68.3514 19.3242 67.0682 19.0166L65.0995 18.5244C63.5526 18.1641 62.1639 17.2412 62.1639 15.29C62.1639 12.9961 64.1679 11.7393 66.497 11.7393C68.8261 11.7393 70.7684 12.9961 70.8124 15.2373H68.8964C68.8085 14.2178 68.0262 13.374 66.4706 13.374C65.0995 13.374 64.1679 14.0244 64.1679 15.1406C64.1679 15.9229 64.7128 16.4854 65.829 16.7402L67.7889 17.2236C69.5907 17.6631 70.9618 18.5156 70.9618 20.5547C70.9618 22.9102 69.0546 24.2373 66.3387 24.2373C62.9989 24.2373 61.8827 22.2861 61.8387 20.6689ZM73.3395 14.71V12.4512H75.2555V14.71H77.066V16.2744H75.2555V21.2314C75.2555 22.2422 75.6334 22.5234 76.6793 22.5234C76.8463 22.5234 77.0045 22.5234 77.1188 22.5059V24C76.9605 24.0264 76.5914 24.0615 76.1959 24.0615C73.9371 24.0615 73.3131 23.2529 73.3131 21.3896V16.2744H72.0299V14.71H73.3395ZM82.3353 14.5518C85.0071 14.5518 86.4573 16.4326 86.4573 18.9639V19.7109C86.4573 22.3301 85.0159 24.1582 82.3353 24.1582C79.6546 24.1582 78.1956 22.3301 78.1956 19.7109V18.9639C78.1956 16.4414 79.6634 14.5518 82.3353 14.5518ZM82.3353 16.1162C80.8851 16.1162 80.1644 17.3027 80.1644 18.9902V19.7021C80.1644 21.3633 80.8763 22.585 82.3353 22.585C83.7943 22.585 84.4974 21.3721 84.4974 19.7021V18.9902C84.4974 17.2939 83.7855 16.1162 82.3353 16.1162ZM88.1055 24V14.71H90.0567V15.9316H90.127C90.3643 15.3516 91.0586 14.5781 92.3506 14.5781C92.6055 14.5781 92.8252 14.5957 93.0098 14.6309V16.3535C92.8428 16.3096 92.5 16.2832 92.1748 16.2832C90.6104 16.2832 90.083 17.25 90.083 18.498V24H88.1055ZM97.7429 24.1582C95.2556 24.1582 93.6736 22.5146 93.6736 19.7637V18.8232C93.6736 16.2305 95.2205 14.5518 97.6638 14.5518C100.142 14.5518 101.636 16.292 101.636 18.9111V19.7988H95.5984V20.0186C95.5984 21.583 96.4421 22.6201 97.7693 22.6201C98.7625 22.6201 99.4392 22.1279 99.6765 21.3281H101.531C101.25 22.8311 100.037 24.1582 97.7429 24.1582ZM95.5984 18.4365H99.7293V18.4189C99.7293 17.1006 98.9119 16.0635 97.6726 16.0635C96.4158 16.0635 95.5984 17.1006 95.5984 18.4189V18.4365Z" fill="white"/>
</svg>
