<svg width="1395" height="143" viewBox="0 0 1395 143" fill="none" xmlns="http://www.w3.org/2000/svg">
<path d="M147.784 142.73C117.1 142.73 95.1821 120.813 95.1821 90.9254C95.1821 61.0379 117.1 39.1204 147.784 39.1204C178.269 39.1204 200.187 61.0379 200.187 90.9254C200.187 120.813 178.269 142.73 147.784 142.73ZM147.784 121.61C164.322 121.61 175.48 109.057 175.48 90.9254C175.48 72.7936 164.322 60.2409 147.784 60.2409C131.047 60.2409 119.889 72.7936 119.889 90.9254C119.889 109.057 131.047 121.61 147.784 121.61Z" fill="black"/>
<path d="M269.194 61.2371V40.7144H260.96C244.223 40.7144 210.749 50.7566 210.749 90.9254V141.136H235.256L236.004 90.9254C236.004 71.7974 241.433 61.2371 256.975 61.2371H269.194Z" fill="black"/>
<path d="M24.6935 1.65684H0V141.108H24.6935V84.2494C51.0331 89.7545 70.8171 113.108 70.8171 141.083H94.1189C94.1189 111.505 78.336 85.6131 54.7328 71.3698C78.3358 57.1264 94.1183 31.2347 94.1183 1.65674H70.8166C70.8166 29.5429 50.9103 52.8885 24.6935 58.4888V1.65684Z" fill="black"/>
<path d="M278.502 10.4284H303.01V40.7144H337.059V61.2371H303.01V105.072C303.01 115.234 308.39 120.414 317.555 120.414H337.059V141.136H314.766C292.848 141.136 278.502 128.384 278.502 106.068V10.4284Z" fill="black"/>
<path d="M347.503 14.772C347.523 7.52296 353.405 1.65674 360.654 1.65674C367.93 1.65674 373.824 7.56588 373.804 14.8424L373.803 15.3812C373.783 22.6302 367.901 28.4965 360.652 28.4965C353.376 28.4965 347.482 22.5873 347.502 15.3108L347.503 14.772ZM348.535 141.136V40.7144H373.042V141.136H348.535Z" fill="black"/>
<path d="M407.342 141.077H385.008C385.008 120.445 395.234 102.2 410.893 91.1357C395.235 80.0711 385.009 61.8283 385.009 41.1965H407.344C407.344 57.0459 416.853 70.6743 430.478 76.6869C444.103 70.6743 453.613 57.0459 453.613 41.1965H475.947C475.947 61.8283 465.722 80.0711 450.063 91.1357C465.722 102.2 475.948 120.445 475.948 141.077H453.614C453.614 125.228 444.103 111.599 430.478 105.587C416.853 111.599 407.343 125.228 407.342 141.077Z" fill="black"/>
<path d="M509.333 141.131L562.257 3.92033H586.563L639.291 141.131H612.633L574.41 37.047L536.187 141.131H509.333ZM538.539 109.181L540.304 87.2269H608.517L610.281 109.181H538.539ZM684.629 142.699C675.22 142.699 667.118 140.543 660.323 136.231C653.659 131.918 648.432 125.973 644.642 118.393C640.983 110.683 639.154 101.797 639.154 91.7353C639.154 84.2867 640.199 77.4262 642.29 71.1537C644.381 64.8812 647.386 59.5234 651.307 55.0804C655.227 50.5067 659.997 46.9784 665.616 44.4956C671.365 42.0127 677.834 40.7713 685.021 40.7713C691.163 40.7713 696.847 42.0127 702.075 44.4956C707.432 46.9784 711.679 50.2453 714.816 54.2963V2.49095e-05H738.729V141.131H714.816V128.782C711.81 132.964 707.628 136.362 702.271 138.975C696.913 141.458 691.032 142.699 684.629 142.699ZM689.53 121.922C693.581 121.922 697.24 121.203 700.506 119.766C703.773 118.328 706.583 116.303 708.935 113.689C711.287 110.945 713.051 107.743 714.228 104.084C715.534 100.425 716.188 96.309 716.188 91.7353C716.188 82.5879 713.77 75.27 708.935 69.7816C704.1 64.2931 697.632 61.5489 689.53 61.5489C685.609 61.5489 682.016 62.2676 678.749 63.7051C675.482 65.1425 672.672 67.168 670.32 69.7816C667.968 72.3951 666.138 75.5967 664.832 79.3863C663.656 83.0453 663.067 87.1616 663.067 91.7353C663.067 100.883 665.485 108.201 670.32 113.689C675.155 119.177 681.558 121.922 689.53 121.922ZM785.09 141.131L749.023 42.3394H773.329L796.459 110.749L819.197 42.3394H843.699L807.632 141.131H785.09ZM891.377 142.699C881.968 142.699 873.866 140.543 867.071 136.231C860.275 131.918 854.983 125.973 851.193 118.393C847.534 110.683 845.705 101.797 845.705 91.7353C845.705 84.2867 846.75 77.4262 848.841 71.1537C850.932 64.8812 853.938 59.5234 857.858 55.0804C861.778 50.5067 866.548 46.9784 872.167 44.4956C877.917 42.0127 884.385 40.7713 891.573 40.7713C897.453 40.7713 903.072 41.9474 908.43 44.2995C913.788 46.521 918.1 49.592 921.367 53.5123V42.3394H945.281V141.131H921.367V129.566C919.407 132.311 916.859 134.663 913.722 136.623C910.717 138.583 907.319 140.086 903.53 141.131C899.74 142.177 895.689 142.699 891.377 142.699ZM896.081 121.922C900.132 121.922 903.791 121.203 907.058 119.766C910.325 118.328 913.134 116.303 915.486 113.689C917.839 110.945 919.603 107.743 920.779 104.084C922.086 100.425 922.739 96.309 922.739 91.7353C922.739 82.5879 920.322 75.27 915.486 69.7816C910.651 64.2931 904.183 61.5489 896.081 61.5489C892.161 61.5489 888.567 62.2676 885.3 63.7051C882.033 65.1425 879.224 67.2334 876.871 69.9776C874.519 72.5911 872.69 75.7274 871.383 79.3863C870.207 83.0453 869.619 87.1616 869.619 91.7353C869.619 100.752 872.036 108.07 876.871 113.689C881.706 119.177 888.11 121.922 896.081 121.922ZM965.572 141.131V42.3394H989.681V57.6286C992.426 52.2708 996.477 48.1545 1001.83 45.2796C1007.19 42.274 1013.4 40.7713 1020.46 40.7713C1027.9 40.7713 1034.37 42.4701 1039.86 45.8677C1045.35 49.1346 1049.6 53.7083 1052.6 59.5888C1055.61 65.4692 1057.11 72.2644 1057.11 79.9744V141.131H1033.2V85.0708C1033.2 78.2756 1031.3 72.7871 1027.51 68.6055C1023.72 64.2931 1018.69 62.137 1012.42 62.137C1007.98 62.137 1004.06 63.2477 1000.66 65.4692C997.261 67.5601 994.582 70.5003 992.622 74.2899C990.662 78.0796 989.681 82.3919 989.681 87.2269V141.131H965.572ZM1120.8 142.699C1110.61 142.699 1101.72 140.413 1094.15 135.839C1086.7 131.265 1080.95 125.123 1076.9 117.413C1072.85 109.703 1070.82 101.144 1070.82 91.7353C1070.82 84.6787 1071.93 78.0796 1074.15 71.9377C1076.5 65.7959 1079.9 60.3728 1084.34 55.6684C1088.79 50.9641 1094.08 47.3051 1100.22 44.6916C1106.36 42.078 1113.22 40.7713 1120.8 40.7713C1129.17 40.7713 1136.81 42.3394 1143.74 45.4756C1150.66 48.6119 1156.28 52.9896 1160.59 58.6087C1165.04 64.0971 1167.59 70.6963 1168.24 78.4062H1144.13C1143.61 75.1393 1142.23 72.2644 1140.01 69.7816C1137.92 67.168 1135.24 65.1425 1131.98 63.7051C1128.84 62.2676 1125.38 61.5489 1121.59 61.5489C1115.97 61.5489 1111.2 62.921 1107.28 65.6652C1103.49 68.2788 1100.61 71.8071 1098.65 76.2501C1096.69 80.6931 1095.71 85.8548 1095.71 91.7353C1095.71 97.4851 1096.69 102.647 1098.65 107.221C1100.74 111.664 1103.68 115.257 1107.47 118.001C1111.39 120.615 1116.16 121.922 1121.78 121.922C1127.53 121.922 1132.43 120.419 1136.48 117.413C1140.54 114.408 1143.21 110.553 1144.52 105.848H1168.63C1167.72 112.905 1165.04 119.243 1160.59 124.862C1156.28 130.35 1150.73 134.728 1143.93 137.995C1137.14 141.131 1129.43 142.699 1120.8 142.699ZM1226.57 142.699C1218.6 142.699 1211.47 141.262 1205.2 138.387C1198.93 135.512 1193.64 131.657 1189.32 126.822C1185.14 121.856 1181.94 116.368 1179.72 110.357C1177.5 104.215 1176.39 97.8771 1176.39 91.3433C1176.39 84.8094 1177.37 78.5369 1179.33 72.5258C1181.42 66.5146 1184.49 61.1569 1188.54 56.4525C1192.59 51.6175 1197.62 47.8278 1203.63 45.0836C1209.65 42.2087 1216.7 40.7713 1224.8 40.7713C1233.04 40.7713 1240.16 42.1434 1246.17 44.8876C1252.18 47.5011 1257.15 51.1601 1261.07 55.8645C1264.99 60.4382 1267.86 65.5346 1269.69 71.1537C1271.65 76.7728 1272.63 82.5226 1272.63 88.403C1272.63 90.1018 1272.57 91.67 1272.44 93.1074C1272.44 94.5449 1272.37 95.7863 1272.24 96.8317H1190.3V80.3664H1248.72C1248.19 74.0939 1245.84 68.9975 1241.66 65.0772C1237.61 61.0262 1231.99 59.0007 1224.8 59.0007C1220.75 59.0007 1217.09 59.7194 1213.83 61.1569C1210.69 62.4636 1208.01 64.4891 1205.79 67.2334C1203.7 69.8469 1202.07 73.1792 1200.89 77.2302C1199.84 81.1505 1199.32 85.7242 1199.32 90.9512C1199.32 97.3544 1200.43 102.974 1202.65 107.809C1204.88 112.513 1208.01 116.172 1212.06 118.785C1216.11 121.399 1220.95 122.706 1226.57 122.706C1232.84 122.706 1237.94 121.464 1241.86 118.981C1245.78 116.499 1248.33 112.905 1249.5 108.201H1273.02C1271.98 115.126 1269.3 121.203 1264.99 126.43C1260.67 131.526 1255.25 135.512 1248.72 138.387C1242.18 141.262 1234.8 142.699 1226.57 142.699ZM1327.83 142.699C1318.42 142.699 1310.32 140.543 1303.52 136.231C1296.86 131.918 1291.63 125.973 1287.84 118.393C1284.18 110.683 1282.35 101.797 1282.35 91.7353C1282.35 84.2867 1283.4 77.4262 1285.49 71.1537C1287.58 64.8812 1290.59 59.5234 1294.51 55.0804C1298.43 50.5067 1303.2 46.9784 1308.81 44.4956C1314.56 42.0127 1321.03 40.7713 1328.22 40.7713C1334.36 40.7713 1340.05 42.0127 1345.27 44.4956C1350.63 46.9784 1354.88 50.2453 1358.01 54.2963V2.49095e-05H1381.93V141.131H1358.01V128.782C1355.01 132.964 1350.83 136.362 1345.47 138.975C1340.11 141.458 1334.23 142.699 1327.83 142.699ZM1332.73 121.922C1336.78 121.922 1340.44 121.203 1343.71 119.766C1346.97 118.328 1349.78 116.303 1352.13 113.689C1354.49 110.945 1356.25 107.743 1357.43 104.084C1358.73 100.425 1359.39 96.309 1359.39 91.7353C1359.39 82.5879 1356.97 75.27 1352.13 69.7816C1347.3 64.2931 1340.83 61.5489 1332.73 61.5489C1328.81 61.5489 1325.21 62.2676 1321.95 63.7051C1318.68 65.1425 1315.87 67.168 1313.52 69.7816C1311.17 72.3951 1309.34 75.5967 1308.03 79.3863C1306.85 83.0453 1306.27 87.1616 1306.27 91.7353C1306.27 100.883 1308.68 108.201 1313.52 113.689C1318.35 119.177 1324.76 121.922 1332.73 121.922Z" fill="black"/>
<path d="M509.333 141.131L562.257 3.92033H586.563L639.291 141.131H612.633L574.41 37.047L536.187 141.131H509.333ZM538.539 109.181L540.304 87.2269H608.517L610.281 109.181H538.539ZM684.629 142.699C675.22 142.699 667.118 140.543 660.323 136.231C653.659 131.918 648.432 125.973 644.642 118.393C640.983 110.683 639.154 101.797 639.154 91.7353C639.154 84.2867 640.199 77.4262 642.29 71.1537C644.381 64.8812 647.386 59.5234 651.307 55.0804C655.227 50.5067 659.997 46.9784 665.616 44.4956C671.365 42.0127 677.834 40.7713 685.021 40.7713C691.163 40.7713 696.847 42.0127 702.075 44.4956C707.432 46.9784 711.679 50.2453 714.816 54.2963V2.49095e-05H738.729V141.131H714.816V128.782C711.81 132.964 707.628 136.362 702.271 138.975C696.913 141.458 691.032 142.699 684.629 142.699ZM689.53 121.922C693.581 121.922 697.24 121.203 700.506 119.766C703.773 118.328 706.583 116.303 708.935 113.689C711.287 110.945 713.051 107.743 714.228 104.084C715.534 100.425 716.188 96.309 716.188 91.7353C716.188 82.5879 713.77 75.27 708.935 69.7816C704.1 64.2931 697.632 61.5489 689.53 61.5489C685.609 61.5489 682.016 62.2676 678.749 63.7051C675.482 65.1425 672.672 67.168 670.32 69.7816C667.968 72.3951 666.138 75.5967 664.832 79.3863C663.656 83.0453 663.067 87.1616 663.067 91.7353C663.067 100.883 665.485 108.201 670.32 113.689C675.155 119.177 681.558 121.922 689.53 121.922ZM785.09 141.131L749.023 42.3394H773.329L796.459 110.749L819.197 42.3394H843.699L807.632 141.131H785.09ZM891.377 142.699C881.968 142.699 873.866 140.543 867.071 136.231C860.275 131.918 854.983 125.973 851.193 118.393C847.534 110.683 845.705 101.797 845.705 91.7353C845.705 84.2867 846.75 77.4262 848.841 71.1537C850.932 64.8812 853.938 59.5234 857.858 55.0804C861.778 50.5067 866.548 46.9784 872.167 44.4956C877.917 42.0127 884.385 40.7713 891.573 40.7713C897.453 40.7713 903.072 41.9474 908.43 44.2995C913.788 46.521 918.1 49.592 921.367 53.5123V42.3394H945.281V141.131H921.367V129.566C919.407 132.311 916.859 134.663 913.722 136.623C910.717 138.583 907.319 140.086 903.53 141.131C899.74 142.177 895.689 142.699 891.377 142.699ZM896.081 121.922C900.132 121.922 903.791 121.203 907.058 119.766C910.325 118.328 913.134 116.303 915.486 113.689C917.839 110.945 919.603 107.743 920.779 104.084C922.086 100.425 922.739 96.309 922.739 91.7353C922.739 82.5879 920.322 75.27 915.486 69.7816C910.651 64.2931 904.183 61.5489 896.081 61.5489C892.161 61.5489 888.567 62.2676 885.3 63.7051C882.033 65.1425 879.224 67.2334 876.871 69.9776C874.519 72.5911 872.69 75.7274 871.383 79.3863C870.207 83.0453 869.619 87.1616 869.619 91.7353C869.619 100.752 872.036 108.07 876.871 113.689C881.706 119.177 888.11 121.922 896.081 121.922ZM965.572 141.131V42.3394H989.681V57.6286C992.426 52.2708 996.477 48.1545 1001.83 45.2796C1007.19 42.274 1013.4 40.7713 1020.46 40.7713C1027.9 40.7713 1034.37 42.4701 1039.86 45.8677C1045.35 49.1346 1049.6 53.7083 1052.6 59.5888C1055.61 65.4692 1057.11 72.2644 1057.11 79.9744V141.131H1033.2V85.0708C1033.2 78.2756 1031.3 72.7871 1027.51 68.6055C1023.72 64.2931 1018.69 62.137 1012.42 62.137C1007.98 62.137 1004.06 63.2477 1000.66 65.4692C997.261 67.5601 994.582 70.5003 992.622 74.2899C990.662 78.0796 989.681 82.3919 989.681 87.2269V141.131H965.572ZM1120.8 142.699C1110.61 142.699 1101.72 140.413 1094.15 135.839C1086.7 131.265 1080.95 125.123 1076.9 117.413C1072.85 109.703 1070.82 101.144 1070.82 91.7353C1070.82 84.6787 1071.93 78.0796 1074.15 71.9377C1076.5 65.7959 1079.9 60.3728 1084.34 55.6684C1088.79 50.9641 1094.08 47.3051 1100.22 44.6916C1106.36 42.078 1113.22 40.7713 1120.8 40.7713C1129.17 40.7713 1136.81 42.3394 1143.74 45.4756C1150.66 48.6119 1156.28 52.9896 1160.59 58.6087C1165.04 64.0971 1167.59 70.6963 1168.24 78.4062H1144.13C1143.61 75.1393 1142.23 72.2644 1140.01 69.7816C1137.92 67.168 1135.24 65.1425 1131.98 63.7051C1128.84 62.2676 1125.38 61.5489 1121.59 61.5489C1115.97 61.5489 1111.2 62.921 1107.28 65.6652C1103.49 68.2788 1100.61 71.8071 1098.65 76.2501C1096.69 80.6931 1095.71 85.8548 1095.71 91.7353C1095.71 97.4851 1096.69 102.647 1098.65 107.221C1100.74 111.664 1103.68 115.257 1107.47 118.001C1111.39 120.615 1116.16 121.922 1121.78 121.922C1127.53 121.922 1132.43 120.419 1136.48 117.413C1140.54 114.408 1143.21 110.553 1144.52 105.848H1168.63C1167.72 112.905 1165.04 119.243 1160.59 124.862C1156.28 130.35 1150.73 134.728 1143.93 137.995C1137.14 141.131 1129.43 142.699 1120.8 142.699ZM1226.57 142.699C1218.6 142.699 1211.47 141.262 1205.2 138.387C1198.93 135.512 1193.64 131.657 1189.32 126.822C1185.14 121.856 1181.94 116.368 1179.72 110.357C1177.5 104.215 1176.39 97.8771 1176.39 91.3433C1176.39 84.8094 1177.37 78.5369 1179.33 72.5258C1181.42 66.5146 1184.49 61.1569 1188.54 56.4525C1192.59 51.6175 1197.62 47.8278 1203.63 45.0836C1209.65 42.2087 1216.7 40.7713 1224.8 40.7713C1233.04 40.7713 1240.16 42.1434 1246.17 44.8876C1252.18 47.5011 1257.15 51.1601 1261.07 55.8645C1264.99 60.4382 1267.86 65.5346 1269.69 71.1537C1271.65 76.7728 1272.63 82.5226 1272.63 88.403C1272.63 90.1018 1272.57 91.67 1272.44 93.1074C1272.44 94.5449 1272.37 95.7863 1272.24 96.8317H1190.3V80.3664H1248.72C1248.19 74.0939 1245.84 68.9975 1241.66 65.0772C1237.61 61.0262 1231.99 59.0007 1224.8 59.0007C1220.75 59.0007 1217.09 59.7194 1213.83 61.1569C1210.69 62.4636 1208.01 64.4891 1205.79 67.2334C1203.7 69.8469 1202.07 73.1792 1200.89 77.2302C1199.84 81.1505 1199.32 85.7242 1199.32 90.9512C1199.32 97.3544 1200.43 102.974 1202.65 107.809C1204.88 112.513 1208.01 116.172 1212.06 118.785C1216.11 121.399 1220.95 122.706 1226.57 122.706C1232.84 122.706 1237.94 121.464 1241.86 118.981C1245.78 116.499 1248.33 112.905 1249.5 108.201H1273.02C1271.98 115.126 1269.3 121.203 1264.99 126.43C1260.67 131.526 1255.25 135.512 1248.72 138.387C1242.18 141.262 1234.8 142.699 1226.57 142.699ZM1327.83 142.699C1318.42 142.699 1310.32 140.543 1303.52 136.231C1296.86 131.918 1291.63 125.973 1287.84 118.393C1284.18 110.683 1282.35 101.797 1282.35 91.7353C1282.35 84.2867 1283.4 77.4262 1285.49 71.1537C1287.58 64.8812 1290.59 59.5234 1294.51 55.0804C1298.43 50.5067 1303.2 46.9784 1308.81 44.4956C1314.56 42.0127 1321.03 40.7713 1328.22 40.7713C1334.36 40.7713 1340.05 42.0127 1345.27 44.4956C1350.63 46.9784 1354.88 50.2453 1358.01 54.2963V2.49095e-05H1381.93V141.131H1358.01V128.782C1355.01 132.964 1350.83 136.362 1345.47 138.975C1340.11 141.458 1334.23 142.699 1327.83 142.699ZM1332.73 121.922C1336.78 121.922 1340.44 121.203 1343.71 119.766C1346.97 118.328 1349.78 116.303 1352.13 113.689C1354.49 110.945 1356.25 107.743 1357.43 104.084C1358.73 100.425 1359.39 96.309 1359.39 91.7353C1359.39 82.5879 1356.97 75.27 1352.13 69.7816C1347.3 64.2931 1340.83 61.5489 1332.73 61.5489C1328.81 61.5489 1325.21 62.2676 1321.95 63.7051C1318.68 65.1425 1315.87 67.168 1313.52 69.7816C1311.17 72.3951 1309.34 75.5967 1308.03 79.3863C1306.85 83.0453 1306.27 87.1616 1306.27 91.7353C1306.27 100.883 1308.68 108.201 1313.52 113.689C1318.35 119.177 1324.76 121.922 1332.73 121.922Z" fill="url(#paint0_linear_924_2795)"/>
<path d="M509.333 141.131L562.257 3.92033H586.563L639.291 141.131H612.633L574.41 37.047L536.187 141.131H509.333ZM538.539 109.181L540.304 87.2269H608.517L610.281 109.181H538.539ZM684.629 142.699C675.22 142.699 667.118 140.543 660.323 136.231C653.659 131.918 648.432 125.973 644.642 118.393C640.983 110.683 639.154 101.797 639.154 91.7353C639.154 84.2867 640.199 77.4262 642.29 71.1537C644.381 64.8812 647.386 59.5234 651.307 55.0804C655.227 50.5067 659.997 46.9784 665.616 44.4956C671.365 42.0127 677.834 40.7713 685.021 40.7713C691.163 40.7713 696.847 42.0127 702.075 44.4956C707.432 46.9784 711.679 50.2453 714.816 54.2963V2.49095e-05H738.729V141.131H714.816V128.782C711.81 132.964 707.628 136.362 702.271 138.975C696.913 141.458 691.032 142.699 684.629 142.699ZM689.53 121.922C693.581 121.922 697.24 121.203 700.506 119.766C703.773 118.328 706.583 116.303 708.935 113.689C711.287 110.945 713.051 107.743 714.228 104.084C715.534 100.425 716.188 96.309 716.188 91.7353C716.188 82.5879 713.77 75.27 708.935 69.7816C704.1 64.2931 697.632 61.5489 689.53 61.5489C685.609 61.5489 682.016 62.2676 678.749 63.7051C675.482 65.1425 672.672 67.168 670.32 69.7816C667.968 72.3951 666.138 75.5967 664.832 79.3863C663.656 83.0453 663.067 87.1616 663.067 91.7353C663.067 100.883 665.485 108.201 670.32 113.689C675.155 119.177 681.558 121.922 689.53 121.922ZM785.09 141.131L749.023 42.3394H773.329L796.459 110.749L819.197 42.3394H843.699L807.632 141.131H785.09ZM891.377 142.699C881.968 142.699 873.866 140.543 867.071 136.231C860.275 131.918 854.983 125.973 851.193 118.393C847.534 110.683 845.705 101.797 845.705 91.7353C845.705 84.2867 846.75 77.4262 848.841 71.1537C850.932 64.8812 853.938 59.5234 857.858 55.0804C861.778 50.5067 866.548 46.9784 872.167 44.4956C877.917 42.0127 884.385 40.7713 891.573 40.7713C897.453 40.7713 903.072 41.9474 908.43 44.2995C913.788 46.521 918.1 49.592 921.367 53.5123V42.3394H945.281V141.131H921.367V129.566C919.407 132.311 916.859 134.663 913.722 136.623C910.717 138.583 907.319 140.086 903.53 141.131C899.74 142.177 895.689 142.699 891.377 142.699ZM896.081 121.922C900.132 121.922 903.791 121.203 907.058 119.766C910.325 118.328 913.134 116.303 915.486 113.689C917.839 110.945 919.603 107.743 920.779 104.084C922.086 100.425 922.739 96.309 922.739 91.7353C922.739 82.5879 920.322 75.27 915.486 69.7816C910.651 64.2931 904.183 61.5489 896.081 61.5489C892.161 61.5489 888.567 62.2676 885.3 63.7051C882.033 65.1425 879.224 67.2334 876.871 69.9776C874.519 72.5911 872.69 75.7274 871.383 79.3863C870.207 83.0453 869.619 87.1616 869.619 91.7353C869.619 100.752 872.036 108.07 876.871 113.689C881.706 119.177 888.11 121.922 896.081 121.922ZM965.572 141.131V42.3394H989.681V57.6286C992.426 52.2708 996.477 48.1545 1001.83 45.2796C1007.19 42.274 1013.4 40.7713 1020.46 40.7713C1027.9 40.7713 1034.37 42.4701 1039.86 45.8677C1045.35 49.1346 1049.6 53.7083 1052.6 59.5888C1055.61 65.4692 1057.11 72.2644 1057.11 79.9744V141.131H1033.2V85.0708C1033.2 78.2756 1031.3 72.7871 1027.51 68.6055C1023.72 64.2931 1018.69 62.137 1012.42 62.137C1007.98 62.137 1004.06 63.2477 1000.66 65.4692C997.261 67.5601 994.582 70.5003 992.622 74.2899C990.662 78.0796 989.681 82.3919 989.681 87.2269V141.131H965.572ZM1120.8 142.699C1110.61 142.699 1101.72 140.413 1094.15 135.839C1086.7 131.265 1080.95 125.123 1076.9 117.413C1072.85 109.703 1070.82 101.144 1070.82 91.7353C1070.82 84.6787 1071.93 78.0796 1074.15 71.9377C1076.5 65.7959 1079.9 60.3728 1084.34 55.6684C1088.79 50.9641 1094.08 47.3051 1100.22 44.6916C1106.36 42.078 1113.22 40.7713 1120.8 40.7713C1129.17 40.7713 1136.81 42.3394 1143.74 45.4756C1150.66 48.6119 1156.28 52.9896 1160.59 58.6087C1165.04 64.0971 1167.59 70.6963 1168.24 78.4062H1144.13C1143.61 75.1393 1142.23 72.2644 1140.01 69.7816C1137.92 67.168 1135.24 65.1425 1131.98 63.7051C1128.84 62.2676 1125.38 61.5489 1121.59 61.5489C1115.97 61.5489 1111.2 62.921 1107.28 65.6652C1103.49 68.2788 1100.61 71.8071 1098.65 76.2501C1096.69 80.6931 1095.71 85.8548 1095.71 91.7353C1095.71 97.4851 1096.69 102.647 1098.65 107.221C1100.74 111.664 1103.68 115.257 1107.47 118.001C1111.39 120.615 1116.16 121.922 1121.78 121.922C1127.53 121.922 1132.43 120.419 1136.48 117.413C1140.54 114.408 1143.21 110.553 1144.52 105.848H1168.63C1167.72 112.905 1165.04 119.243 1160.59 124.862C1156.28 130.35 1150.73 134.728 1143.93 137.995C1137.14 141.131 1129.43 142.699 1120.8 142.699ZM1226.57 142.699C1218.6 142.699 1211.47 141.262 1205.2 138.387C1198.93 135.512 1193.64 131.657 1189.32 126.822C1185.14 121.856 1181.94 116.368 1179.72 110.357C1177.5 104.215 1176.39 97.8771 1176.39 91.3433C1176.39 84.8094 1177.37 78.5369 1179.33 72.5258C1181.42 66.5146 1184.49 61.1569 1188.54 56.4525C1192.59 51.6175 1197.62 47.8278 1203.63 45.0836C1209.65 42.2087 1216.7 40.7713 1224.8 40.7713C1233.04 40.7713 1240.16 42.1434 1246.17 44.8876C1252.18 47.5011 1257.15 51.1601 1261.07 55.8645C1264.99 60.4382 1267.86 65.5346 1269.69 71.1537C1271.65 76.7728 1272.63 82.5226 1272.63 88.403C1272.63 90.1018 1272.57 91.67 1272.44 93.1074C1272.44 94.5449 1272.37 95.7863 1272.24 96.8317H1190.3V80.3664H1248.72C1248.19 74.0939 1245.84 68.9975 1241.66 65.0772C1237.61 61.0262 1231.99 59.0007 1224.8 59.0007C1220.75 59.0007 1217.09 59.7194 1213.83 61.1569C1210.69 62.4636 1208.01 64.4891 1205.79 67.2334C1203.7 69.8469 1202.07 73.1792 1200.89 77.2302C1199.84 81.1505 1199.32 85.7242 1199.32 90.9512C1199.32 97.3544 1200.43 102.974 1202.65 107.809C1204.88 112.513 1208.01 116.172 1212.06 118.785C1216.11 121.399 1220.95 122.706 1226.57 122.706C1232.84 122.706 1237.94 121.464 1241.86 118.981C1245.78 116.499 1248.33 112.905 1249.5 108.201H1273.02C1271.98 115.126 1269.3 121.203 1264.99 126.43C1260.67 131.526 1255.25 135.512 1248.72 138.387C1242.18 141.262 1234.8 142.699 1226.57 142.699ZM1327.83 142.699C1318.42 142.699 1310.32 140.543 1303.52 136.231C1296.86 131.918 1291.63 125.973 1287.84 118.393C1284.18 110.683 1282.35 101.797 1282.35 91.7353C1282.35 84.2867 1283.4 77.4262 1285.49 71.1537C1287.58 64.8812 1290.59 59.5234 1294.51 55.0804C1298.43 50.5067 1303.2 46.9784 1308.81 44.4956C1314.56 42.0127 1321.03 40.7713 1328.22 40.7713C1334.36 40.7713 1340.05 42.0127 1345.27 44.4956C1350.63 46.9784 1354.88 50.2453 1358.01 54.2963V2.49095e-05H1381.93V141.131H1358.01V128.782C1355.01 132.964 1350.83 136.362 1345.47 138.975C1340.11 141.458 1334.23 142.699 1327.83 142.699ZM1332.73 121.922C1336.78 121.922 1340.44 121.203 1343.71 119.766C1346.97 118.328 1349.78 116.303 1352.13 113.689C1354.49 110.945 1356.25 107.743 1357.43 104.084C1358.73 100.425 1359.39 96.309 1359.39 91.7353C1359.39 82.5879 1356.97 75.27 1352.13 69.7816C1347.3 64.2931 1340.83 61.5489 1332.73 61.5489C1328.81 61.5489 1325.21 62.2676 1321.95 63.7051C1318.68 65.1425 1315.87 67.168 1313.52 69.7816C1311.17 72.3951 1309.34 75.5967 1308.03 79.3863C1306.85 83.0453 1306.27 87.1616 1306.27 91.7353C1306.27 100.883 1308.68 108.201 1313.52 113.689C1318.35 119.177 1324.76 121.922 1332.73 121.922Z" fill="url(#paint1_radial_924_2795)" fill-opacity="0.6"/>
<path d="M509.333 141.131L562.257 3.92033H586.563L639.291 141.131H612.633L574.41 37.047L536.187 141.131H509.333ZM538.539 109.181L540.304 87.2269H608.517L610.281 109.181H538.539ZM684.629 142.699C675.22 142.699 667.118 140.543 660.323 136.231C653.659 131.918 648.432 125.973 644.642 118.393C640.983 110.683 639.154 101.797 639.154 91.7353C639.154 84.2867 640.199 77.4262 642.29 71.1537C644.381 64.8812 647.386 59.5234 651.307 55.0804C655.227 50.5067 659.997 46.9784 665.616 44.4956C671.365 42.0127 677.834 40.7713 685.021 40.7713C691.163 40.7713 696.847 42.0127 702.075 44.4956C707.432 46.9784 711.679 50.2453 714.816 54.2963V2.49095e-05H738.729V141.131H714.816V128.782C711.81 132.964 707.628 136.362 702.271 138.975C696.913 141.458 691.032 142.699 684.629 142.699ZM689.53 121.922C693.581 121.922 697.24 121.203 700.506 119.766C703.773 118.328 706.583 116.303 708.935 113.689C711.287 110.945 713.051 107.743 714.228 104.084C715.534 100.425 716.188 96.309 716.188 91.7353C716.188 82.5879 713.77 75.27 708.935 69.7816C704.1 64.2931 697.632 61.5489 689.53 61.5489C685.609 61.5489 682.016 62.2676 678.749 63.7051C675.482 65.1425 672.672 67.168 670.32 69.7816C667.968 72.3951 666.138 75.5967 664.832 79.3863C663.656 83.0453 663.067 87.1616 663.067 91.7353C663.067 100.883 665.485 108.201 670.32 113.689C675.155 119.177 681.558 121.922 689.53 121.922ZM785.09 141.131L749.023 42.3394H773.329L796.459 110.749L819.197 42.3394H843.699L807.632 141.131H785.09ZM891.377 142.699C881.968 142.699 873.866 140.543 867.071 136.231C860.275 131.918 854.983 125.973 851.193 118.393C847.534 110.683 845.705 101.797 845.705 91.7353C845.705 84.2867 846.75 77.4262 848.841 71.1537C850.932 64.8812 853.938 59.5234 857.858 55.0804C861.778 50.5067 866.548 46.9784 872.167 44.4956C877.917 42.0127 884.385 40.7713 891.573 40.7713C897.453 40.7713 903.072 41.9474 908.43 44.2995C913.788 46.521 918.1 49.592 921.367 53.5123V42.3394H945.281V141.131H921.367V129.566C919.407 132.311 916.859 134.663 913.722 136.623C910.717 138.583 907.319 140.086 903.53 141.131C899.74 142.177 895.689 142.699 891.377 142.699ZM896.081 121.922C900.132 121.922 903.791 121.203 907.058 119.766C910.325 118.328 913.134 116.303 915.486 113.689C917.839 110.945 919.603 107.743 920.779 104.084C922.086 100.425 922.739 96.309 922.739 91.7353C922.739 82.5879 920.322 75.27 915.486 69.7816C910.651 64.2931 904.183 61.5489 896.081 61.5489C892.161 61.5489 888.567 62.2676 885.3 63.7051C882.033 65.1425 879.224 67.2334 876.871 69.9776C874.519 72.5911 872.69 75.7274 871.383 79.3863C870.207 83.0453 869.619 87.1616 869.619 91.7353C869.619 100.752 872.036 108.07 876.871 113.689C881.706 119.177 888.11 121.922 896.081 121.922ZM965.572 141.131V42.3394H989.681V57.6286C992.426 52.2708 996.477 48.1545 1001.83 45.2796C1007.19 42.274 1013.4 40.7713 1020.46 40.7713C1027.9 40.7713 1034.37 42.4701 1039.86 45.8677C1045.35 49.1346 1049.6 53.7083 1052.6 59.5888C1055.61 65.4692 1057.11 72.2644 1057.11 79.9744V141.131H1033.2V85.0708C1033.2 78.2756 1031.3 72.7871 1027.51 68.6055C1023.72 64.2931 1018.69 62.137 1012.42 62.137C1007.98 62.137 1004.06 63.2477 1000.66 65.4692C997.261 67.5601 994.582 70.5003 992.622 74.2899C990.662 78.0796 989.681 82.3919 989.681 87.2269V141.131H965.572ZM1120.8 142.699C1110.61 142.699 1101.72 140.413 1094.15 135.839C1086.7 131.265 1080.95 125.123 1076.9 117.413C1072.85 109.703 1070.82 101.144 1070.82 91.7353C1070.82 84.6787 1071.93 78.0796 1074.15 71.9377C1076.5 65.7959 1079.9 60.3728 1084.34 55.6684C1088.79 50.9641 1094.08 47.3051 1100.22 44.6916C1106.36 42.078 1113.22 40.7713 1120.8 40.7713C1129.17 40.7713 1136.81 42.3394 1143.74 45.4756C1150.66 48.6119 1156.28 52.9896 1160.59 58.6087C1165.04 64.0971 1167.59 70.6963 1168.24 78.4062H1144.13C1143.61 75.1393 1142.23 72.2644 1140.01 69.7816C1137.92 67.168 1135.24 65.1425 1131.98 63.7051C1128.84 62.2676 1125.38 61.5489 1121.59 61.5489C1115.97 61.5489 1111.2 62.921 1107.28 65.6652C1103.49 68.2788 1100.61 71.8071 1098.65 76.2501C1096.69 80.6931 1095.71 85.8548 1095.71 91.7353C1095.71 97.4851 1096.69 102.647 1098.65 107.221C1100.74 111.664 1103.68 115.257 1107.47 118.001C1111.39 120.615 1116.16 121.922 1121.78 121.922C1127.53 121.922 1132.43 120.419 1136.48 117.413C1140.54 114.408 1143.21 110.553 1144.52 105.848H1168.63C1167.72 112.905 1165.04 119.243 1160.59 124.862C1156.28 130.35 1150.73 134.728 1143.93 137.995C1137.14 141.131 1129.43 142.699 1120.8 142.699ZM1226.57 142.699C1218.6 142.699 1211.47 141.262 1205.2 138.387C1198.93 135.512 1193.64 131.657 1189.32 126.822C1185.14 121.856 1181.94 116.368 1179.72 110.357C1177.5 104.215 1176.39 97.8771 1176.39 91.3433C1176.39 84.8094 1177.37 78.5369 1179.33 72.5258C1181.42 66.5146 1184.49 61.1569 1188.54 56.4525C1192.59 51.6175 1197.62 47.8278 1203.63 45.0836C1209.65 42.2087 1216.7 40.7713 1224.8 40.7713C1233.04 40.7713 1240.16 42.1434 1246.17 44.8876C1252.18 47.5011 1257.15 51.1601 1261.07 55.8645C1264.99 60.4382 1267.86 65.5346 1269.69 71.1537C1271.65 76.7728 1272.63 82.5226 1272.63 88.403C1272.63 90.1018 1272.57 91.67 1272.44 93.1074C1272.44 94.5449 1272.37 95.7863 1272.24 96.8317H1190.3V80.3664H1248.72C1248.19 74.0939 1245.84 68.9975 1241.66 65.0772C1237.61 61.0262 1231.99 59.0007 1224.8 59.0007C1220.75 59.0007 1217.09 59.7194 1213.83 61.1569C1210.69 62.4636 1208.01 64.4891 1205.79 67.2334C1203.7 69.8469 1202.07 73.1792 1200.89 77.2302C1199.84 81.1505 1199.32 85.7242 1199.32 90.9512C1199.32 97.3544 1200.43 102.974 1202.65 107.809C1204.88 112.513 1208.01 116.172 1212.06 118.785C1216.11 121.399 1220.95 122.706 1226.57 122.706C1232.84 122.706 1237.94 121.464 1241.86 118.981C1245.78 116.499 1248.33 112.905 1249.5 108.201H1273.02C1271.98 115.126 1269.3 121.203 1264.99 126.43C1260.67 131.526 1255.25 135.512 1248.72 138.387C1242.18 141.262 1234.8 142.699 1226.57 142.699ZM1327.83 142.699C1318.42 142.699 1310.32 140.543 1303.52 136.231C1296.86 131.918 1291.63 125.973 1287.84 118.393C1284.18 110.683 1282.35 101.797 1282.35 91.7353C1282.35 84.2867 1283.4 77.4262 1285.49 71.1537C1287.58 64.8812 1290.59 59.5234 1294.51 55.0804C1298.43 50.5067 1303.2 46.9784 1308.81 44.4956C1314.56 42.0127 1321.03 40.7713 1328.22 40.7713C1334.36 40.7713 1340.05 42.0127 1345.27 44.4956C1350.63 46.9784 1354.88 50.2453 1358.01 54.2963V2.49095e-05H1381.93V141.131H1358.01V128.782C1355.01 132.964 1350.83 136.362 1345.47 138.975C1340.11 141.458 1334.23 142.699 1327.83 142.699ZM1332.73 121.922C1336.78 121.922 1340.44 121.203 1343.71 119.766C1346.97 118.328 1349.78 116.303 1352.13 113.689C1354.49 110.945 1356.25 107.743 1357.43 104.084C1358.73 100.425 1359.39 96.309 1359.39 91.7353C1359.39 82.5879 1356.97 75.27 1352.13 69.7816C1347.3 64.2931 1340.83 61.5489 1332.73 61.5489C1328.81 61.5489 1325.21 62.2676 1321.95 63.7051C1318.68 65.1425 1315.87 67.168 1313.52 69.7816C1311.17 72.3951 1309.34 75.5967 1308.03 79.3863C1306.85 83.0453 1306.27 87.1616 1306.27 91.7353C1306.27 100.883 1308.68 108.201 1313.52 113.689C1318.35 119.177 1324.76 121.922 1332.73 121.922Z" fill="url(#paint2_linear_924_2795)"/>
<path d="M509.333 141.131L562.257 3.92033H586.563L639.291 141.131H612.633L574.41 37.047L536.187 141.131H509.333ZM538.539 109.181L540.304 87.2269H608.517L610.281 109.181H538.539ZM684.629 142.699C675.22 142.699 667.118 140.543 660.323 136.231C653.659 131.918 648.432 125.973 644.642 118.393C640.983 110.683 639.154 101.797 639.154 91.7353C639.154 84.2867 640.199 77.4262 642.29 71.1537C644.381 64.8812 647.386 59.5234 651.307 55.0804C655.227 50.5067 659.997 46.9784 665.616 44.4956C671.365 42.0127 677.834 40.7713 685.021 40.7713C691.163 40.7713 696.847 42.0127 702.075 44.4956C707.432 46.9784 711.679 50.2453 714.816 54.2963V2.49095e-05H738.729V141.131H714.816V128.782C711.81 132.964 707.628 136.362 702.271 138.975C696.913 141.458 691.032 142.699 684.629 142.699ZM689.53 121.922C693.581 121.922 697.24 121.203 700.506 119.766C703.773 118.328 706.583 116.303 708.935 113.689C711.287 110.945 713.051 107.743 714.228 104.084C715.534 100.425 716.188 96.309 716.188 91.7353C716.188 82.5879 713.77 75.27 708.935 69.7816C704.1 64.2931 697.632 61.5489 689.53 61.5489C685.609 61.5489 682.016 62.2676 678.749 63.7051C675.482 65.1425 672.672 67.168 670.32 69.7816C667.968 72.3951 666.138 75.5967 664.832 79.3863C663.656 83.0453 663.067 87.1616 663.067 91.7353C663.067 100.883 665.485 108.201 670.32 113.689C675.155 119.177 681.558 121.922 689.53 121.922ZM785.09 141.131L749.023 42.3394H773.329L796.459 110.749L819.197 42.3394H843.699L807.632 141.131H785.09ZM891.377 142.699C881.968 142.699 873.866 140.543 867.071 136.231C860.275 131.918 854.983 125.973 851.193 118.393C847.534 110.683 845.705 101.797 845.705 91.7353C845.705 84.2867 846.75 77.4262 848.841 71.1537C850.932 64.8812 853.938 59.5234 857.858 55.0804C861.778 50.5067 866.548 46.9784 872.167 44.4956C877.917 42.0127 884.385 40.7713 891.573 40.7713C897.453 40.7713 903.072 41.9474 908.43 44.2995C913.788 46.521 918.1 49.592 921.367 53.5123V42.3394H945.281V141.131H921.367V129.566C919.407 132.311 916.859 134.663 913.722 136.623C910.717 138.583 907.319 140.086 903.53 141.131C899.74 142.177 895.689 142.699 891.377 142.699ZM896.081 121.922C900.132 121.922 903.791 121.203 907.058 119.766C910.325 118.328 913.134 116.303 915.486 113.689C917.839 110.945 919.603 107.743 920.779 104.084C922.086 100.425 922.739 96.309 922.739 91.7353C922.739 82.5879 920.322 75.27 915.486 69.7816C910.651 64.2931 904.183 61.5489 896.081 61.5489C892.161 61.5489 888.567 62.2676 885.3 63.7051C882.033 65.1425 879.224 67.2334 876.871 69.9776C874.519 72.5911 872.69 75.7274 871.383 79.3863C870.207 83.0453 869.619 87.1616 869.619 91.7353C869.619 100.752 872.036 108.07 876.871 113.689C881.706 119.177 888.11 121.922 896.081 121.922ZM965.572 141.131V42.3394H989.681V57.6286C992.426 52.2708 996.477 48.1545 1001.83 45.2796C1007.19 42.274 1013.4 40.7713 1020.46 40.7713C1027.9 40.7713 1034.37 42.4701 1039.86 45.8677C1045.35 49.1346 1049.6 53.7083 1052.6 59.5888C1055.61 65.4692 1057.11 72.2644 1057.11 79.9744V141.131H1033.2V85.0708C1033.2 78.2756 1031.3 72.7871 1027.51 68.6055C1023.72 64.2931 1018.69 62.137 1012.42 62.137C1007.98 62.137 1004.06 63.2477 1000.66 65.4692C997.261 67.5601 994.582 70.5003 992.622 74.2899C990.662 78.0796 989.681 82.3919 989.681 87.2269V141.131H965.572ZM1120.8 142.699C1110.61 142.699 1101.72 140.413 1094.15 135.839C1086.7 131.265 1080.95 125.123 1076.9 117.413C1072.85 109.703 1070.82 101.144 1070.82 91.7353C1070.82 84.6787 1071.93 78.0796 1074.15 71.9377C1076.5 65.7959 1079.9 60.3728 1084.34 55.6684C1088.79 50.9641 1094.08 47.3051 1100.22 44.6916C1106.36 42.078 1113.22 40.7713 1120.8 40.7713C1129.17 40.7713 1136.81 42.3394 1143.74 45.4756C1150.66 48.6119 1156.28 52.9896 1160.59 58.6087C1165.04 64.0971 1167.59 70.6963 1168.24 78.4062H1144.13C1143.61 75.1393 1142.23 72.2644 1140.01 69.7816C1137.92 67.168 1135.24 65.1425 1131.98 63.7051C1128.84 62.2676 1125.38 61.5489 1121.59 61.5489C1115.97 61.5489 1111.2 62.921 1107.28 65.6652C1103.49 68.2788 1100.61 71.8071 1098.65 76.2501C1096.69 80.6931 1095.71 85.8548 1095.71 91.7353C1095.71 97.4851 1096.69 102.647 1098.65 107.221C1100.74 111.664 1103.68 115.257 1107.47 118.001C1111.39 120.615 1116.16 121.922 1121.78 121.922C1127.53 121.922 1132.43 120.419 1136.48 117.413C1140.54 114.408 1143.21 110.553 1144.52 105.848H1168.63C1167.72 112.905 1165.04 119.243 1160.59 124.862C1156.28 130.35 1150.73 134.728 1143.93 137.995C1137.14 141.131 1129.43 142.699 1120.8 142.699ZM1226.57 142.699C1218.6 142.699 1211.47 141.262 1205.2 138.387C1198.93 135.512 1193.64 131.657 1189.32 126.822C1185.14 121.856 1181.94 116.368 1179.72 110.357C1177.5 104.215 1176.39 97.8771 1176.39 91.3433C1176.39 84.8094 1177.37 78.5369 1179.33 72.5258C1181.42 66.5146 1184.49 61.1569 1188.54 56.4525C1192.59 51.6175 1197.62 47.8278 1203.63 45.0836C1209.65 42.2087 1216.7 40.7713 1224.8 40.7713C1233.04 40.7713 1240.16 42.1434 1246.17 44.8876C1252.18 47.5011 1257.15 51.1601 1261.07 55.8645C1264.99 60.4382 1267.86 65.5346 1269.69 71.1537C1271.65 76.7728 1272.63 82.5226 1272.63 88.403C1272.63 90.1018 1272.57 91.67 1272.44 93.1074C1272.44 94.5449 1272.37 95.7863 1272.24 96.8317H1190.3V80.3664H1248.72C1248.19 74.0939 1245.84 68.9975 1241.66 65.0772C1237.61 61.0262 1231.99 59.0007 1224.8 59.0007C1220.75 59.0007 1217.09 59.7194 1213.83 61.1569C1210.69 62.4636 1208.01 64.4891 1205.79 67.2334C1203.7 69.8469 1202.07 73.1792 1200.89 77.2302C1199.84 81.1505 1199.32 85.7242 1199.32 90.9512C1199.32 97.3544 1200.43 102.974 1202.65 107.809C1204.88 112.513 1208.01 116.172 1212.06 118.785C1216.11 121.399 1220.95 122.706 1226.57 122.706C1232.84 122.706 1237.94 121.464 1241.86 118.981C1245.78 116.499 1248.33 112.905 1249.5 108.201H1273.02C1271.98 115.126 1269.3 121.203 1264.99 126.43C1260.67 131.526 1255.25 135.512 1248.72 138.387C1242.18 141.262 1234.8 142.699 1226.57 142.699ZM1327.83 142.699C1318.42 142.699 1310.32 140.543 1303.52 136.231C1296.86 131.918 1291.63 125.973 1287.84 118.393C1284.18 110.683 1282.35 101.797 1282.35 91.7353C1282.35 84.2867 1283.4 77.4262 1285.49 71.1537C1287.58 64.8812 1290.59 59.5234 1294.51 55.0804C1298.43 50.5067 1303.2 46.9784 1308.81 44.4956C1314.56 42.0127 1321.03 40.7713 1328.22 40.7713C1334.36 40.7713 1340.05 42.0127 1345.27 44.4956C1350.63 46.9784 1354.88 50.2453 1358.01 54.2963V2.49095e-05H1381.93V141.131H1358.01V128.782C1355.01 132.964 1350.83 136.362 1345.47 138.975C1340.11 141.458 1334.23 142.699 1327.83 142.699ZM1332.73 121.922C1336.78 121.922 1340.44 121.203 1343.71 119.766C1346.97 118.328 1349.78 116.303 1352.13 113.689C1354.49 110.945 1356.25 107.743 1357.43 104.084C1358.73 100.425 1359.39 96.309 1359.39 91.7353C1359.39 82.5879 1356.97 75.27 1352.13 69.7816C1347.3 64.2931 1340.83 61.5489 1332.73 61.5489C1328.81 61.5489 1325.21 62.2676 1321.95 63.7051C1318.68 65.1425 1315.87 67.168 1313.52 69.7816C1311.17 72.3951 1309.34 75.5967 1308.03 79.3863C1306.85 83.0453 1306.27 87.1616 1306.27 91.7353C1306.27 100.883 1308.68 108.201 1313.52 113.689C1318.35 119.177 1324.76 121.922 1332.73 121.922Z" fill="url(#paint3_radial_924_2795)" fill-opacity="0.6"/>
<path d="M509.333 141.131L562.257 3.92033H586.563L639.291 141.131H612.633L574.41 37.047L536.187 141.131H509.333ZM538.539 109.181L540.304 87.2269H608.517L610.281 109.181H538.539ZM684.629 142.699C675.22 142.699 667.118 140.543 660.323 136.231C653.659 131.918 648.432 125.973 644.642 118.393C640.983 110.683 639.154 101.797 639.154 91.7353C639.154 84.2867 640.199 77.4262 642.29 71.1537C644.381 64.8812 647.386 59.5234 651.307 55.0804C655.227 50.5067 659.997 46.9784 665.616 44.4956C671.365 42.0127 677.834 40.7713 685.021 40.7713C691.163 40.7713 696.847 42.0127 702.075 44.4956C707.432 46.9784 711.679 50.2453 714.816 54.2963V2.49095e-05H738.729V141.131H714.816V128.782C711.81 132.964 707.628 136.362 702.271 138.975C696.913 141.458 691.032 142.699 684.629 142.699ZM689.53 121.922C693.581 121.922 697.24 121.203 700.506 119.766C703.773 118.328 706.583 116.303 708.935 113.689C711.287 110.945 713.051 107.743 714.228 104.084C715.534 100.425 716.188 96.309 716.188 91.7353C716.188 82.5879 713.77 75.27 708.935 69.7816C704.1 64.2931 697.632 61.5489 689.53 61.5489C685.609 61.5489 682.016 62.2676 678.749 63.7051C675.482 65.1425 672.672 67.168 670.32 69.7816C667.968 72.3951 666.138 75.5967 664.832 79.3863C663.656 83.0453 663.067 87.1616 663.067 91.7353C663.067 100.883 665.485 108.201 670.32 113.689C675.155 119.177 681.558 121.922 689.53 121.922ZM785.09 141.131L749.023 42.3394H773.329L796.459 110.749L819.197 42.3394H843.699L807.632 141.131H785.09ZM891.377 142.699C881.968 142.699 873.866 140.543 867.071 136.231C860.275 131.918 854.983 125.973 851.193 118.393C847.534 110.683 845.705 101.797 845.705 91.7353C845.705 84.2867 846.75 77.4262 848.841 71.1537C850.932 64.8812 853.938 59.5234 857.858 55.0804C861.778 50.5067 866.548 46.9784 872.167 44.4956C877.917 42.0127 884.385 40.7713 891.573 40.7713C897.453 40.7713 903.072 41.9474 908.43 44.2995C913.788 46.521 918.1 49.592 921.367 53.5123V42.3394H945.281V141.131H921.367V129.566C919.407 132.311 916.859 134.663 913.722 136.623C910.717 138.583 907.319 140.086 903.53 141.131C899.74 142.177 895.689 142.699 891.377 142.699ZM896.081 121.922C900.132 121.922 903.791 121.203 907.058 119.766C910.325 118.328 913.134 116.303 915.486 113.689C917.839 110.945 919.603 107.743 920.779 104.084C922.086 100.425 922.739 96.309 922.739 91.7353C922.739 82.5879 920.322 75.27 915.486 69.7816C910.651 64.2931 904.183 61.5489 896.081 61.5489C892.161 61.5489 888.567 62.2676 885.3 63.7051C882.033 65.1425 879.224 67.2334 876.871 69.9776C874.519 72.5911 872.69 75.7274 871.383 79.3863C870.207 83.0453 869.619 87.1616 869.619 91.7353C869.619 100.752 872.036 108.07 876.871 113.689C881.706 119.177 888.11 121.922 896.081 121.922ZM965.572 141.131V42.3394H989.681V57.6286C992.426 52.2708 996.477 48.1545 1001.83 45.2796C1007.19 42.274 1013.4 40.7713 1020.46 40.7713C1027.9 40.7713 1034.37 42.4701 1039.86 45.8677C1045.35 49.1346 1049.6 53.7083 1052.6 59.5888C1055.61 65.4692 1057.11 72.2644 1057.11 79.9744V141.131H1033.2V85.0708C1033.2 78.2756 1031.3 72.7871 1027.51 68.6055C1023.72 64.2931 1018.69 62.137 1012.42 62.137C1007.98 62.137 1004.06 63.2477 1000.66 65.4692C997.261 67.5601 994.582 70.5003 992.622 74.2899C990.662 78.0796 989.681 82.3919 989.681 87.2269V141.131H965.572ZM1120.8 142.699C1110.61 142.699 1101.72 140.413 1094.15 135.839C1086.7 131.265 1080.95 125.123 1076.9 117.413C1072.85 109.703 1070.82 101.144 1070.82 91.7353C1070.82 84.6787 1071.93 78.0796 1074.15 71.9377C1076.5 65.7959 1079.9 60.3728 1084.34 55.6684C1088.79 50.9641 1094.08 47.3051 1100.22 44.6916C1106.36 42.078 1113.22 40.7713 1120.8 40.7713C1129.17 40.7713 1136.81 42.3394 1143.74 45.4756C1150.66 48.6119 1156.28 52.9896 1160.59 58.6087C1165.04 64.0971 1167.59 70.6963 1168.24 78.4062H1144.13C1143.61 75.1393 1142.23 72.2644 1140.01 69.7816C1137.92 67.168 1135.24 65.1425 1131.98 63.7051C1128.84 62.2676 1125.38 61.5489 1121.59 61.5489C1115.97 61.5489 1111.2 62.921 1107.28 65.6652C1103.49 68.2788 1100.61 71.8071 1098.65 76.2501C1096.69 80.6931 1095.71 85.8548 1095.71 91.7353C1095.71 97.4851 1096.69 102.647 1098.65 107.221C1100.74 111.664 1103.68 115.257 1107.47 118.001C1111.39 120.615 1116.16 121.922 1121.78 121.922C1127.53 121.922 1132.43 120.419 1136.48 117.413C1140.54 114.408 1143.21 110.553 1144.52 105.848H1168.63C1167.72 112.905 1165.04 119.243 1160.59 124.862C1156.28 130.35 1150.73 134.728 1143.93 137.995C1137.14 141.131 1129.43 142.699 1120.8 142.699ZM1226.57 142.699C1218.6 142.699 1211.47 141.262 1205.2 138.387C1198.93 135.512 1193.64 131.657 1189.32 126.822C1185.14 121.856 1181.94 116.368 1179.72 110.357C1177.5 104.215 1176.39 97.8771 1176.39 91.3433C1176.39 84.8094 1177.37 78.5369 1179.33 72.5258C1181.42 66.5146 1184.49 61.1569 1188.54 56.4525C1192.59 51.6175 1197.62 47.8278 1203.63 45.0836C1209.65 42.2087 1216.7 40.7713 1224.8 40.7713C1233.04 40.7713 1240.16 42.1434 1246.17 44.8876C1252.18 47.5011 1257.15 51.1601 1261.07 55.8645C1264.99 60.4382 1267.86 65.5346 1269.69 71.1537C1271.65 76.7728 1272.63 82.5226 1272.63 88.403C1272.63 90.1018 1272.57 91.67 1272.44 93.1074C1272.44 94.5449 1272.37 95.7863 1272.24 96.8317H1190.3V80.3664H1248.72C1248.19 74.0939 1245.84 68.9975 1241.66 65.0772C1237.61 61.0262 1231.99 59.0007 1224.8 59.0007C1220.75 59.0007 1217.09 59.7194 1213.83 61.1569C1210.69 62.4636 1208.01 64.4891 1205.79 67.2334C1203.7 69.8469 1202.07 73.1792 1200.89 77.2302C1199.84 81.1505 1199.32 85.7242 1199.32 90.9512C1199.32 97.3544 1200.43 102.974 1202.65 107.809C1204.88 112.513 1208.01 116.172 1212.06 118.785C1216.11 121.399 1220.95 122.706 1226.57 122.706C1232.84 122.706 1237.94 121.464 1241.86 118.981C1245.78 116.499 1248.33 112.905 1249.5 108.201H1273.02C1271.98 115.126 1269.3 121.203 1264.99 126.43C1260.67 131.526 1255.25 135.512 1248.72 138.387C1242.18 141.262 1234.8 142.699 1226.57 142.699ZM1327.83 142.699C1318.42 142.699 1310.32 140.543 1303.52 136.231C1296.86 131.918 1291.63 125.973 1287.84 118.393C1284.18 110.683 1282.35 101.797 1282.35 91.7353C1282.35 84.2867 1283.4 77.4262 1285.49 71.1537C1287.58 64.8812 1290.59 59.5234 1294.51 55.0804C1298.43 50.5067 1303.2 46.9784 1308.81 44.4956C1314.56 42.0127 1321.03 40.7713 1328.22 40.7713C1334.36 40.7713 1340.05 42.0127 1345.27 44.4956C1350.63 46.9784 1354.88 50.2453 1358.01 54.2963V2.49095e-05H1381.93V141.131H1358.01V128.782C1355.01 132.964 1350.83 136.362 1345.47 138.975C1340.11 141.458 1334.23 142.699 1327.83 142.699ZM1332.73 121.922C1336.78 121.922 1340.44 121.203 1343.71 119.766C1346.97 118.328 1349.78 116.303 1352.13 113.689C1354.49 110.945 1356.25 107.743 1357.43 104.084C1358.73 100.425 1359.39 96.309 1359.39 91.7353C1359.39 82.5879 1356.97 75.27 1352.13 69.7816C1347.3 64.2931 1340.83 61.5489 1332.73 61.5489C1328.81 61.5489 1325.21 62.2676 1321.95 63.7051C1318.68 65.1425 1315.87 67.168 1313.52 69.7816C1311.17 72.3951 1309.34 75.5967 1308.03 79.3863C1306.85 83.0453 1306.27 87.1616 1306.27 91.7353C1306.27 100.883 1308.68 108.201 1313.52 113.689C1318.35 119.177 1324.76 121.922 1332.73 121.922Z" fill="url(#paint4_linear_924_2795)"/>
<path d="M509.333 141.131L562.257 3.92033H586.563L639.291 141.131H612.633L574.41 37.047L536.187 141.131H509.333ZM538.539 109.181L540.304 87.2269H608.517L610.281 109.181H538.539ZM684.629 142.699C675.22 142.699 667.118 140.543 660.323 136.231C653.659 131.918 648.432 125.973 644.642 118.393C640.983 110.683 639.154 101.797 639.154 91.7353C639.154 84.2867 640.199 77.4262 642.29 71.1537C644.381 64.8812 647.386 59.5234 651.307 55.0804C655.227 50.5067 659.997 46.9784 665.616 44.4956C671.365 42.0127 677.834 40.7713 685.021 40.7713C691.163 40.7713 696.847 42.0127 702.075 44.4956C707.432 46.9784 711.679 50.2453 714.816 54.2963V2.49095e-05H738.729V141.131H714.816V128.782C711.81 132.964 707.628 136.362 702.271 138.975C696.913 141.458 691.032 142.699 684.629 142.699ZM689.53 121.922C693.581 121.922 697.24 121.203 700.506 119.766C703.773 118.328 706.583 116.303 708.935 113.689C711.287 110.945 713.051 107.743 714.228 104.084C715.534 100.425 716.188 96.309 716.188 91.7353C716.188 82.5879 713.77 75.27 708.935 69.7816C704.1 64.2931 697.632 61.5489 689.53 61.5489C685.609 61.5489 682.016 62.2676 678.749 63.7051C675.482 65.1425 672.672 67.168 670.32 69.7816C667.968 72.3951 666.138 75.5967 664.832 79.3863C663.656 83.0453 663.067 87.1616 663.067 91.7353C663.067 100.883 665.485 108.201 670.32 113.689C675.155 119.177 681.558 121.922 689.53 121.922ZM785.09 141.131L749.023 42.3394H773.329L796.459 110.749L819.197 42.3394H843.699L807.632 141.131H785.09ZM891.377 142.699C881.968 142.699 873.866 140.543 867.071 136.231C860.275 131.918 854.983 125.973 851.193 118.393C847.534 110.683 845.705 101.797 845.705 91.7353C845.705 84.2867 846.75 77.4262 848.841 71.1537C850.932 64.8812 853.938 59.5234 857.858 55.0804C861.778 50.5067 866.548 46.9784 872.167 44.4956C877.917 42.0127 884.385 40.7713 891.573 40.7713C897.453 40.7713 903.072 41.9474 908.43 44.2995C913.788 46.521 918.1 49.592 921.367 53.5123V42.3394H945.281V141.131H921.367V129.566C919.407 132.311 916.859 134.663 913.722 136.623C910.717 138.583 907.319 140.086 903.53 141.131C899.74 142.177 895.689 142.699 891.377 142.699ZM896.081 121.922C900.132 121.922 903.791 121.203 907.058 119.766C910.325 118.328 913.134 116.303 915.486 113.689C917.839 110.945 919.603 107.743 920.779 104.084C922.086 100.425 922.739 96.309 922.739 91.7353C922.739 82.5879 920.322 75.27 915.486 69.7816C910.651 64.2931 904.183 61.5489 896.081 61.5489C892.161 61.5489 888.567 62.2676 885.3 63.7051C882.033 65.1425 879.224 67.2334 876.871 69.9776C874.519 72.5911 872.69 75.7274 871.383 79.3863C870.207 83.0453 869.619 87.1616 869.619 91.7353C869.619 100.752 872.036 108.07 876.871 113.689C881.706 119.177 888.11 121.922 896.081 121.922ZM965.572 141.131V42.3394H989.681V57.6286C992.426 52.2708 996.477 48.1545 1001.83 45.2796C1007.19 42.274 1013.4 40.7713 1020.46 40.7713C1027.9 40.7713 1034.37 42.4701 1039.86 45.8677C1045.35 49.1346 1049.6 53.7083 1052.6 59.5888C1055.61 65.4692 1057.11 72.2644 1057.11 79.9744V141.131H1033.2V85.0708C1033.2 78.2756 1031.3 72.7871 1027.51 68.6055C1023.72 64.2931 1018.69 62.137 1012.42 62.137C1007.98 62.137 1004.06 63.2477 1000.66 65.4692C997.261 67.5601 994.582 70.5003 992.622 74.2899C990.662 78.0796 989.681 82.3919 989.681 87.2269V141.131H965.572ZM1120.8 142.699C1110.61 142.699 1101.72 140.413 1094.15 135.839C1086.7 131.265 1080.95 125.123 1076.9 117.413C1072.85 109.703 1070.82 101.144 1070.82 91.7353C1070.82 84.6787 1071.93 78.0796 1074.15 71.9377C1076.5 65.7959 1079.9 60.3728 1084.34 55.6684C1088.79 50.9641 1094.08 47.3051 1100.22 44.6916C1106.36 42.078 1113.22 40.7713 1120.8 40.7713C1129.17 40.7713 1136.81 42.3394 1143.74 45.4756C1150.66 48.6119 1156.28 52.9896 1160.59 58.6087C1165.04 64.0971 1167.59 70.6963 1168.24 78.4062H1144.13C1143.61 75.1393 1142.23 72.2644 1140.01 69.7816C1137.92 67.168 1135.24 65.1425 1131.98 63.7051C1128.84 62.2676 1125.38 61.5489 1121.59 61.5489C1115.97 61.5489 1111.2 62.921 1107.28 65.6652C1103.49 68.2788 1100.61 71.8071 1098.65 76.2501C1096.69 80.6931 1095.71 85.8548 1095.71 91.7353C1095.71 97.4851 1096.69 102.647 1098.65 107.221C1100.74 111.664 1103.68 115.257 1107.47 118.001C1111.39 120.615 1116.16 121.922 1121.78 121.922C1127.53 121.922 1132.43 120.419 1136.48 117.413C1140.54 114.408 1143.21 110.553 1144.52 105.848H1168.63C1167.72 112.905 1165.04 119.243 1160.59 124.862C1156.28 130.35 1150.73 134.728 1143.93 137.995C1137.14 141.131 1129.43 142.699 1120.8 142.699ZM1226.57 142.699C1218.6 142.699 1211.47 141.262 1205.2 138.387C1198.93 135.512 1193.64 131.657 1189.32 126.822C1185.14 121.856 1181.94 116.368 1179.72 110.357C1177.5 104.215 1176.39 97.8771 1176.39 91.3433C1176.39 84.8094 1177.37 78.5369 1179.33 72.5258C1181.42 66.5146 1184.49 61.1569 1188.54 56.4525C1192.59 51.6175 1197.62 47.8278 1203.63 45.0836C1209.65 42.2087 1216.7 40.7713 1224.8 40.7713C1233.04 40.7713 1240.16 42.1434 1246.17 44.8876C1252.18 47.5011 1257.15 51.1601 1261.07 55.8645C1264.99 60.4382 1267.86 65.5346 1269.69 71.1537C1271.65 76.7728 1272.63 82.5226 1272.63 88.403C1272.63 90.1018 1272.57 91.67 1272.44 93.1074C1272.44 94.5449 1272.37 95.7863 1272.24 96.8317H1190.3V80.3664H1248.72C1248.19 74.0939 1245.84 68.9975 1241.66 65.0772C1237.61 61.0262 1231.99 59.0007 1224.8 59.0007C1220.75 59.0007 1217.09 59.7194 1213.83 61.1569C1210.69 62.4636 1208.01 64.4891 1205.79 67.2334C1203.7 69.8469 1202.07 73.1792 1200.89 77.2302C1199.84 81.1505 1199.32 85.7242 1199.32 90.9512C1199.32 97.3544 1200.43 102.974 1202.65 107.809C1204.88 112.513 1208.01 116.172 1212.06 118.785C1216.11 121.399 1220.95 122.706 1226.57 122.706C1232.84 122.706 1237.94 121.464 1241.86 118.981C1245.78 116.499 1248.33 112.905 1249.5 108.201H1273.02C1271.98 115.126 1269.3 121.203 1264.99 126.43C1260.67 131.526 1255.25 135.512 1248.72 138.387C1242.18 141.262 1234.8 142.699 1226.57 142.699ZM1327.83 142.699C1318.42 142.699 1310.32 140.543 1303.52 136.231C1296.86 131.918 1291.63 125.973 1287.84 118.393C1284.18 110.683 1282.35 101.797 1282.35 91.7353C1282.35 84.2867 1283.4 77.4262 1285.49 71.1537C1287.58 64.8812 1290.59 59.5234 1294.51 55.0804C1298.43 50.5067 1303.2 46.9784 1308.81 44.4956C1314.56 42.0127 1321.03 40.7713 1328.22 40.7713C1334.36 40.7713 1340.05 42.0127 1345.27 44.4956C1350.63 46.9784 1354.88 50.2453 1358.01 54.2963V2.49095e-05H1381.93V141.131H1358.01V128.782C1355.01 132.964 1350.83 136.362 1345.47 138.975C1340.11 141.458 1334.23 142.699 1327.83 142.699ZM1332.73 121.922C1336.78 121.922 1340.44 121.203 1343.71 119.766C1346.97 118.328 1349.78 116.303 1352.13 113.689C1354.49 110.945 1356.25 107.743 1357.43 104.084C1358.73 100.425 1359.39 96.309 1359.39 91.7353C1359.39 82.5879 1356.97 75.27 1352.13 69.7816C1347.3 64.2931 1340.83 61.5489 1332.73 61.5489C1328.81 61.5489 1325.21 62.2676 1321.95 63.7051C1318.68 65.1425 1315.87 67.168 1313.52 69.7816C1311.17 72.3951 1309.34 75.5967 1308.03 79.3863C1306.85 83.0453 1306.27 87.1616 1306.27 91.7353C1306.27 100.883 1308.68 108.201 1313.52 113.689C1318.35 119.177 1324.76 121.922 1332.73 121.922Z" fill="url(#paint5_radial_924_2795)" fill-opacity="0.6"/>
<defs>
<linearGradient id="paint0_linear_924_2795" x1="494.6" y1="-24.4648" x2="523.499" y2="237.567" gradientUnits="userSpaceOnUse">
<stop stop-color="#F6E4F0"/>
<stop offset="0.491919" stop-color="#E16766"/>
<stop offset="1" stop-color="#F756F2"/>
</linearGradient>
<radialGradient id="paint1_radial_924_2795" cx="0" cy="0" r="1" gradientTransform="matrix(-494.683 45.0958 -291.642 -76.4917 1253.87 -5.57294)" gradientUnits="userSpaceOnUse">
<stop stop-color="white"/>
<stop offset="1" stop-color="white" stop-opacity="0"/>
</radialGradient>
<linearGradient id="paint2_linear_924_2795" x1="457.378" y1="-75.2553" x2="470.81" y2="249.97" gradientUnits="userSpaceOnUse">
<stop stop-color="#F6E4F0"/>
<stop offset="0.491919" stop-color="#E17F66"/>
<stop offset="1" stop-color="#FF6200"/>
</linearGradient>
<radialGradient id="paint3_radial_924_2795" cx="0" cy="0" r="1" gradientTransform="matrix(-494.683 45.0958 -291.642 -76.4917 1253.87 -5.57294)" gradientUnits="userSpaceOnUse">
<stop stop-color="white"/>
<stop offset="1" stop-color="white" stop-opacity="0"/>
</radialGradient>
<linearGradient id="paint4_linear_924_2795" x1="457.378" y1="-75.2553" x2="470.81" y2="249.97" gradientUnits="userSpaceOnUse">
<stop stop-color="#F6E4F0"/>
<stop offset="0.491919" stop-color="#E19766"/>
<stop offset="1" stop-color="#FF6200"/>
</linearGradient>
<radialGradient id="paint5_radial_924_2795" cx="0" cy="0" r="1" gradientTransform="matrix(-494.683 45.0958 -291.642 -76.4917 1253.87 -5.57294)" gradientUnits="userSpaceOnUse">
<stop stop-color="white"/>
<stop offset="1" stop-color="white" stop-opacity="0"/>
</radialGradient>
</defs>
</svg>
