<svg width="24" height="24" viewBox="0 0 24 24" fill="none" xmlns="http://www.w3.org/2000/svg">
<path d="M19 4H5C3.89543 4 3 4.89543 3 6V14C3 15.1046 3.89543 16 5 16H19C20.1046 16 21 15.1046 21 14V6C21 4.89543 20.1046 4 19 4Z" stroke="black" stroke-width="2" stroke-linecap="round" stroke-linejoin="round"/>
<path d="M2 20H22" stroke="black" stroke-width="2" stroke-linecap="round" stroke-linejoin="round"/>
<g clip-path="url(#clip0_7_8)">
<path d="M15.5205 13.9731H16.9423C16.9423 12.2818 15.9793 10.8012 14.5391 9.98677C15.9793 9.17232 16.9423 7.69178 16.9423 6.00046H15.5205C15.5205 7.60091 14.2969 8.9398 12.6885 9.25372V6.00046H11.2669V9.25372C9.65091 8.94527 8.43491 7.60594 8.43491 6.00046H7.01309C7.01309 7.69178 7.97611 9.17232 9.41632 9.98677C7.9761 10.8012 7.01306 12.2818 7.01306 13.9731H8.43488C8.43488 12.3676 9.6509 11.0283 11.2669 10.7199V13.9746H12.6885V10.7199C14.3045 11.0283 15.5205 12.3676 15.5205 13.9731Z" fill="black"/>
</g>
<defs>
<clipPath id="clip0_7_8">
<rect width="10" height="8" fill="white" transform="translate(7 6)"/>
</clipPath>
</defs>
</svg>
