<svg width="100" height="20" viewBox="0 0 100 20" fill="none" xmlns="http://www.w3.org/2000/svg">
<path d="M20.1251 19.7812H23.3894C23.3894 15.5851 21.1784 11.9119 17.8719 9.89126C21.1784 7.8706 23.3893 4.19741 23.3893 0.00128174H20.125C20.125 3.97195 17.3159 7.29372 13.6233 8.07253V0.00128174H10.3594V8.07253C6.64936 7.30729 3.8576 3.98444 3.8576 0.00128174H0.593319C0.593319 4.19741 2.80427 7.8706 6.11078 9.89126C2.80424 11.9119 0.593246 15.5851 0.593246 19.7812H3.85753C3.85753 15.7981 6.64935 12.4752 10.3594 11.71V19.7849H13.6233V11.71C17.3333 12.4752 20.1251 15.7981 20.1251 19.7812Z" fill="black"/>
<path d="M53.6532 20.0001C49.3577 20.0001 46.2894 16.8929 46.2894 12.6557C46.2894 8.41858 49.3577 5.31134 53.6532 5.31134C57.9209 5.31134 60.9891 8.41858 60.9891 12.6557C60.9891 16.8929 57.9209 20.0001 53.6532 20.0001ZM53.6532 17.0059C55.9684 17.0059 57.5304 15.2263 57.5304 12.6557C57.5304 10.0852 55.9684 8.30559 53.6532 8.30559C51.3102 8.30559 49.7482 10.0852 49.7482 12.6557C49.7482 15.2263 51.3102 17.0059 53.6532 17.0059Z" fill="black"/>
<path d="M70.6495 8.44683V5.53732H69.4968C67.1538 5.53732 62.4677 6.961 62.4677 12.6557V19.7741H65.8986L66.0032 12.6557C66.0032 9.94396 66.7633 8.44683 68.9389 8.44683H70.6495Z" fill="black"/>
<path d="M36.4216 0.000136828H32.9648V19.7702H36.4216V11.7093C40.1089 12.4897 42.8785 15.8006 42.8785 19.7665H46.1406C46.1406 15.5733 43.9311 11.9026 40.6269 9.88333C43.9311 7.86405 46.1405 4.19338 46.1405 0.00012207H42.8784C42.8784 3.95354 40.0917 7.26324 36.4216 8.0572V0.000136828Z" fill="black"/>
<path d="M71.9526 1.24368H75.3835V5.53732H80.15V8.44683H75.3835V14.6613C75.3835 16.1019 76.1366 16.8364 77.4197 16.8364H80.15V19.7741H77.0292C73.9609 19.7741 71.9526 17.9663 71.9526 14.8026V1.24368Z" fill="black"/>
<path d="M81.6121 1.85947C81.6149 0.831776 82.4383 0.00012207 83.4531 0.00012207C84.4717 0.00012207 85.2968 0.837861 85.294 1.86945L85.2938 1.94584C85.2911 2.97353 84.4677 3.80519 83.4529 3.80519C82.4342 3.80519 81.6092 2.96745 81.6119 1.93585L81.6121 1.85947ZM81.7565 19.7741V5.53732H85.1874V19.7741H81.7565Z" fill="black"/>
<path d="M89.9891 19.7657H86.8625C86.8625 16.8407 88.294 14.2542 90.4862 12.6855C88.2941 11.1169 86.8627 8.53064 86.8627 5.60567H89.9892C89.9892 7.85264 91.3205 9.78474 93.2279 10.6371C95.1352 9.78474 96.4665 7.85264 96.4665 5.60567H99.5931C99.5931 8.53064 98.1617 11.1169 95.9696 12.6855C98.1618 14.2542 99.5933 16.8407 99.5933 19.7657H96.4667C96.4667 17.5188 95.1353 15.5867 93.2279 14.7343C91.3204 15.5867 89.9891 17.5188 89.9891 19.7657Z" fill="black"/>
</svg>
