<svg width="164" height="140" viewBox="0 0 164 140" fill="none" xmlns="http://www.w3.org/2000/svg">
<path d="M139.737 139.53H163.055C163.055 109.932 147.261 84.0225 123.642 69.7694C147.261 55.5163 163.054 29.6068 163.054 0.0085907H139.736C139.736 28.0165 119.67 51.4471 93.2921 56.9406V0.0085907H69.9773V56.9406C43.4754 51.5428 23.5331 28.1045 23.5331 0.0085907H0.215285C0.215285 29.6068 16.0088 55.5163 39.6282 69.7694C16.0086 84.0225 0.214767 109.932 0.214767 139.53H23.5325C23.5325 111.434 43.4754 87.996 69.9773 82.5981V139.556H93.2921V82.598C119.794 87.9957 139.737 111.434 139.737 139.53Z" fill="white"/>
</svg>
