<svg width="477" height="142" viewBox="0 0 477 142" fill="none" xmlns="http://www.w3.org/2000/svg">
<path d="M148.238 142C117.554 142 95.6365 120.083 95.6365 90.1951C95.6365 60.3076 117.554 38.3901 148.238 38.3901C178.724 38.3901 200.641 60.3076 200.641 90.1951C200.641 120.083 178.724 142 148.238 142ZM148.238 120.88C164.776 120.88 175.934 108.327 175.934 90.1951C175.934 72.0634 164.776 59.5106 148.238 59.5106C131.501 59.5106 120.343 72.0634 120.343 90.1951C120.343 108.327 131.501 120.88 148.238 120.88Z" fill="black"/>
<path d="M269.648 60.5069V39.9841H261.414C244.677 39.9841 211.203 50.0263 211.203 90.1951V140.406H235.711L236.458 90.1951C236.458 71.0671 241.888 60.5069 257.429 60.5069H269.648Z" fill="black"/>
<path d="M25.1479 0.926572H0.454426V140.378H25.1479V83.5191C51.4875 89.0242 71.2715 112.378 71.2715 140.353H94.5733C94.5733 110.775 78.7905 84.8828 55.1872 70.6395C78.7903 56.3961 94.5728 30.5044 94.5728 0.926468H71.271C71.271 28.8127 51.3647 52.1582 25.1479 57.7585V0.926572Z" fill="black"/>
<path d="M278.957 9.69813H303.465V39.9841H337.513V60.5069H303.465V104.342C303.465 114.504 308.844 119.684 318.01 119.684H337.513V140.406H315.22C293.303 140.406 278.957 127.654 278.957 105.338V9.69813Z" fill="black"/>
<path d="M347.958 14.0417C347.977 6.79269 353.859 0.926468 361.108 0.926468C368.385 0.926468 374.278 6.83561 374.259 14.1121L374.257 14.6509C374.238 21.9 368.356 27.7662 361.107 27.7662C353.83 27.7662 347.937 21.857 347.956 14.5805L347.958 14.0417ZM348.989 140.406V39.9841H373.497V140.406H348.989Z" fill="black"/>
<path d="M407.797 140.347H385.463C385.463 119.714 395.688 101.47 411.348 90.4055C395.689 79.3408 385.464 61.0981 385.464 40.4662H407.798C407.798 56.3157 417.308 69.9441 430.932 75.9566C444.557 69.9441 454.067 56.3157 454.067 40.4662H476.401C476.401 61.0981 466.176 79.3408 450.517 90.4055C466.177 101.47 476.402 119.714 476.402 140.347H454.068C454.068 124.498 444.558 110.869 430.932 104.857C417.307 110.869 407.797 124.498 407.797 140.347Z" fill="black"/>
</svg>
